<?xml version="1.0" encoding="utf-8"?>
<!-- Generator: Adobe Illustrator 23.0.0, SVG Export Plug-In . SVG Version: 6.00 Build 0)  -->
<svg version="1.1" id="Layer_1" xmlns="http://www.w3.org/2000/svg" xmlns:xlink="http://www.w3.org/1999/xlink" x="0px" y="0px"
	 viewBox="0 0 500 500" style="enable-background:new 0 0 500 500;" xml:space="preserve">
<style type="text/css">
	.st0{fill:#4285F4;}
</style>
<path class="st0" d="M236.6,269.4h26.8c3.3,0,6-2.7,6-6v-26.8c0-3.3-2.7-6-6-6l-26.8,0c-3.3,0-6,2.7-6,6l0,26.8
	C230.6,266.7,233.3,269.4,236.6,269.4z"/>
<path class="st0" d="M315.8,402.2l32.3,0c4,0,7.3-3.2,7.3-7.3l0-32.3c0-4-3.2-7.3-7.3-7.3l-32.3,0c-4,0-7.3,3.2-7.3,7.3l0,32.3
	C308.6,399,311.8,402.2,315.8,402.2z"/>
<path class="st0" d="M346.5,366.6l23.5,0c2.9,0,5.3-2.4,5.3-5.3l0-23.5c0-2.9-2.4-5.3-5.3-5.3l-23.5,0c-2.9,0-5.3,2.4-5.3,5.3
	l0,23.5C341.3,364.2,343.6,366.6,346.5,366.6z"/>
<path class="st0" d="M342.6,148.9l9.5,0c1.2,0,2.1-1,2.1-2.1v-9.5c0-1.2-1-2.1-2.1-2.1h-9.5c-1.2,0-2.1,1-2.1,2.1v9.5
	C340.5,147.9,341.5,148.9,342.6,148.9z"/>
<path class="st0" d="M150.1,343.2l49.4,0c6.1,0,11.1-5,11.1-11.1l0-49.4c0-6.1-5-11.1-11.1-11.1l-49.4,0c-6.1,0-11.1,5-11.1,11.1
	l0,49.4C139,338.2,143.9,343.2,150.1,343.2z"/>
<path class="st0" d="M163.1,206.3l23.5,0c2.9,0,5.3-2.4,5.3-5.3l0-23.5c0-2.9-2.4-5.3-5.3-5.3l-23.5,0c-2.9,0-5.3,2.4-5.3,5.3
	l0,23.5C157.8,203.9,160.1,206.2,163.1,206.3z"/>
</svg>
