<?xml version="1.0" standalone="no"?>
<svg
  width="600"
  height="600"
  viewBox="0 0 600 600"
  xmlns="http://www.w3.org/2000/svg"
>
  <g transform="translate(300,300)">
    <path d="M126.3,-202.3C162.6,-173.3,190,-136.3,192.9,-97.6C195.7,-58.9,174.1,-18.5,163.6,20.3C153,59.1,153.6,96.4,140.1,133.3C126.6,170.3,99.1,207,61.3,226C23.5,245,-24.6,246.3,-67.4,232.4C-110.2,218.5,-147.7,189.5,-182.6,155C-217.5,120.5,-249.8,80.5,-261.4,34.4C-273,-11.7,-263.8,-64,-236.8,-101.9C-209.8,-139.8,-164.9,-163.3,-122.5,-189.4C-80,-215.5,-40,-244.3,2.5,-248.2C45.1,-252.1,90.1,-231.2,126.3,-202.3Z" fill="#0693e3" />
  </g>
</svg>
    