<?xml version="1.0" encoding="utf-8"?>
<!-- Generator: Adobe Illustrator 23.0.0, SVG Export Plug-In . SVG Version: 6.00 Build 0)  -->
<svg version="1.1" id="Layer_1" xmlns="http://www.w3.org/2000/svg" xmlns:xlink="http://www.w3.org/1999/xlink" x="0px" y="0px"
	 viewBox="0 0 501.4 430.5" style="enable-background:new 0 0 501.4 430.5;" xml:space="preserve">
<style type="text/css">
	.st0{fill:#001E88;}
	.st1{fill:#FFFFFF;}
</style>
<g id="pinned">
	<g id="economy">
		<g id="XMLID_167_">
			<path id="XMLID_168_" class="st0" d="M248.4,252.3h-17.8c-2.3,0-4.1,1.9-4.1,4.1v17.8c0,2.3,1.9,4.1,4.1,4.1h7.3l1,1.5v18.5
				c0,0.3,0.2,0.5,0.5,0.5c0.3,0,0.5-0.2,0.5-0.5v-18.4l1.1-1.6h7.2c2.3,0,4.1-1.9,4.1-4.1v-17.8
				C252.6,254.1,250.7,252.3,248.4,252.3z"/>
		</g>
		<g id="XMLID_162_">
			<path id="XMLID_163_" class="st1" d="M240.6,270.9v2.1h-1.9v-2c-1.8-0.1-3.6-0.7-4.6-1.5l1-2.3c0.9,0.7,2.3,1.2,3.6,1.3v-3.1
				c-2.1-0.5-4.3-1.2-4.3-3.8c0-2,1.4-3.6,4.3-4v-2.1h1.9v2c1.4,0.1,2.7,0.5,3.8,1.1l-0.9,2.3c-0.9-0.5-1.9-0.9-2.8-1v3.1
				c2.1,0.5,4.3,1.2,4.3,3.8C244.9,268.8,243.5,270.5,240.6,270.9z M238.8,262.7v-2.6c-1,0.2-1.4,0.8-1.4,1.4
				C237.4,262.1,238,262.4,238.8,262.7z M242,267.1c0-0.6-0.5-1-1.3-1.3v2.6C241.5,268.2,242,267.7,242,267.1z"/>
		</g>
	</g>
	<g id="people_2_">
		<g id="XMLID_170_">
			<path id="XMLID_171_" class="st0" d="M332.8,232.5h-17.8c-2.3,0-4.1,1.9-4.1,4.1v17.8c0,2.3,1.9,4.1,4.1,4.1h7.3l1,1.5v18.5
				c0,0.3,0.2,0.5,0.5,0.5c0.3,0,0.5-0.2,0.5-0.5v-18.4l1.1-1.6h7.2c2.3,0,4.1-1.9,4.1-4.1v-17.8C337,234.4,335.1,232.5,332.8,232.5
				z"/>
		</g>
		<g id="XMLID_155_">
			<g>
				<g id="XMLID_590_">
					<g id="XMLID_594_">
						<g id="XMLID_595_">
							<path id="XMLID_596_" class="st1" d="M324,243.8c1.6,0,3-1.3,3-3c0-1.6-1.3-3-3-3c-1.6,0-3,1.3-3,3
								C321.1,242.5,322.4,243.8,324,243.8"/>
						</g>
					</g>
					<g id="XMLID_591_">
						<g id="XMLID_592_">
							<path id="XMLID_593_" class="st1" d="M325.3,244h-2.5c-2.1,0-3.8,1.7-3.8,3.8v3.1l0,0l0.2,0.1c2,0.6,3.7,0.8,5.2,0.8
								c2.8,0,4.4-0.8,4.5-0.8l0.2-0.1h0v-3.1C329.1,245.7,327.4,244,325.3,244"/>
						</g>
					</g>
				</g>
			</g>
		</g>
	</g>
	<g id="env">
		<g id="XMLID_153_">
			<g id="XMLID_159_">
				<path id="XMLID_160_" class="st0" d="M68,176.8H50.2c-2.3,0-4.1,1.9-4.1,4.1v17.8c0,2.3,1.9,4.1,4.1,4.1h7.3l1,1.5v18.5
					c0,0.3,0.2,0.5,0.5,0.5c0.3,0,0.5-0.2,0.5-0.5v-18.4l1.1-1.6H68c2.3,0,4.1-1.9,4.1-4.1v-17.8C72.1,178.7,70.3,176.8,68,176.8z"
					/>
			</g>
		</g>
		<g>
			<g>
				<path class="st1" d="M56.5,194.2L56.5,194.2L56.5,194.2c0-7.2,5.8-13,13-13h0v0C69.5,188.4,63.7,194.2,56.5,194.2z"/>
				<path class="st1" d="M59,195.1L59,195.1L59,195.1c-5.1,0-9.2-4.1-9.2-9.2v0h0C54.9,186,59,190.1,59,195.1z"/>
			</g>
			<rect x="57.5" y="192" class="st1" width="1.5" height="6.3"/>
		</g>
	</g>
	<g id="brand_1_">
		<g id="brand">
			<g id="XMLID_511_">
				<path id="XMLID_513_" class="st0" d="M270.8,52.1H253c-2.3,0-4.1,1.9-4.1,4.1V74c0,2.3,1.9,4.1,4.1,4.1h7.3l1,1.5v18.5
					c0,0.3,0.2,0.5,0.5,0.5c0.3,0,0.5-0.2,0.5-0.5V79.7l1.1-1.6h7.2c2.3,0,4.1-1.9,4.1-4.1V56.3C274.9,54,273,52.1,270.8,52.1z"/>
			</g>
		</g>
		<g>
			<g>
				<g id="Axonometric_Cylinder_10_">
					<path id="Cylinder_face_12_" class="st1" d="M262.6,68.6c-0.1,0.1-0.6,0.1-0.7,0c-0.1-0.1-0.1-0.3,0-0.4c0.3-0.1,0.6-0.1,0.7,0
						C262.8,68.3,262.8,68.4,262.6,68.6z"/>
					<path id="Cylinder_body_12_" class="st1" d="M262.6,68.3v5.9c0,0.1,0,0.1-0.1,0.3c-0.1,0.1-0.6,0.1-0.7,0
						c-0.1,0-0.1-0.1-0.1-0.3v-5.9c0,0.1,0,0.1,0.1,0.3c0.3,0.1,0.6,0.1,0.7,0C262.6,68.6,262.6,68.4,262.6,68.3z"/>
				</g>
			</g>
			<g>
				<path class="st1" d="M266.5,64.6c-0.7,0.9-1.6,1.6-2.2,1.9c-1.1,0.7-2.2,0.9-3,0.6c-0.7-0.6-1-1.6-1-2.9c0-2.9,1.7-6.2,4.2-8
					l-1.1-0.6l-0.3,0.1c-3,1.7-5.5,6-5.5,9.5c0,1.7,0.6,2.9,1.6,3.6l1.1,0.6c-0.1-0.1-0.3-0.1-0.4-0.3c1,0.9,2.4,1,4.3-0.1
					c1.4-0.9,2.6-2,3.6-3.6L266.5,64.6z"/>
				<path class="st1" d="M265.4,67c0.9-0.4,1.6-1.1,2.2-1.9c-1,1.6-2.2,2.9-3.6,3.6c-3,1.7-5.5,0.3-5.5-3.2s2.4-7.6,5.5-9.5l0.3-0.1
					c-2.3,1.9-4.2,5.2-4.2,8C260.2,67.3,262.5,68.7,265.4,67z"/>
			</g>
		</g>
	</g>
	<g id="living">
		<path id="XMLID_549_" class="st0" d="M475.4,182.2h-17.8c-2.3,0-4.1,1.9-4.1,4.1v17.8c0,2.3,1.9,4.1,4.1,4.1h7.3l1,1.5v9.9
			c0,0.3,0.2,0.5,0.5,0.5c0.3,0,0.5-0.2,0.5-0.5v-9.8l1.1-1.6h7.2c2.3,0,4.1-1.9,4.1-4.1v-17.8C479.6,184.1,477.7,182.2,475.4,182.2
			z"/>
		<g id="XMLID_504_">
			<g>
				<path id="XMLID_579_" class="st1" d="M466.6,199.9c-0.6,0-1.2,0.5-1.2,1.2c0,0.6,0.5,1.2,1.2,1.2c0.6,0,1.2-0.5,1.2-1.2
					C467.7,200.5,467.2,199.9,466.6,199.9z"/>
				<g id="XMLID_575_">
					<path id="XMLID_578_" class="st1" d="M466.6,197c-1.1,0-2.1,0.5-2.9,1.2c-0.3,0.3-0.3,0.8,0,1.1l0,0c0.3,0.3,0.8,0.3,1.1,0
						c0.5-0.5,1.1-0.8,1.8-0.8c0.7,0,1.4,0.3,1.8,0.8c0.3,0.3,0.8,0.3,1.1,0l0,0c0.3-0.3,0.3-0.8,0-1.1
						C468.7,197.4,467.7,197,466.6,197z"/>
					<path id="XMLID_577_" class="st1" d="M466.6,189.4c-3.1,0-6,1.2-8.1,3.3c-0.3,0.3-0.3,0.8,0,1.1l0.1,0.1c0.3,0.3,0.8,0.3,1.1,0
						c1.8-1.7,4.3-2.8,7-2.8c2.7,0,5.2,1.1,7,2.8c0.3,0.3,0.8,0.3,1.1,0l0.1-0.1c0.3-0.3,0.3-0.8,0-1.1
						C472.5,190.6,469.7,189.4,466.6,189.4z"/>
					<path id="XMLID_576_" class="st1" d="M466.6,193.5c-2,0-3.8,0.8-5.2,2.1c-0.3,0.3-0.4,0.8,0,1.2l0,0c0.3,0.3,0.8,0.3,1.1,0
						c1.1-1,2.5-1.6,4.1-1.6c1.6,0,3,0.6,4.1,1.6c0.3,0.3,0.8,0.3,1.1,0l0,0c0.3-0.3,0.3-0.9,0-1.2
						C470.4,194.3,468.6,193.5,466.6,193.5z"/>
				</g>
			</g>
		</g>
	</g>
	<g id="gov_2_">
		<g id="gov_1_">
			<g id="XMLID_538_">
				<path id="XMLID_539_" class="st0" d="M416,114.9h-17.8c-2.3,0-4.1,1.9-4.1,4.1v17.8c0,2.3,1.9,4.1,4.1,4.1h7.3l1,1.5V161
					c0,0.3,0.2,0.5,0.5,0.5c0.3,0,0.5-0.2,0.5-0.5v-18.4l1.1-1.6h7.2c2.3,0,4.1-1.9,4.1-4.1V119C420.2,116.8,418.3,114.9,416,114.9z
					"/>
			</g>
		</g>
		<g>
			<rect x="401.5" y="125.5" class="st1" width="1.5" height="6.8"/>
			<rect x="404.9" y="125.5" class="st1" width="1.5" height="6.8"/>
			<rect x="408.3" y="125.5" class="st1" width="1.5" height="6.8"/>
			<rect x="411.7" y="125.5" class="st1" width="1.5" height="6.8"/>
			<rect x="400.7" y="124.3" class="st1" width="12.8" height="0.7"/>
			<rect x="400.6" y="132.5" class="st1" width="13" height="0.8"/>
			<rect x="399.5" y="133.7" class="st1" width="15.3" height="1.5"/>
			<polygon class="st1" points="399.7,123.8 414.8,123.8 407.2,119.4 			"/>
		</g>
	</g>
</g>
</svg>
