<?xml version="1.0" encoding="utf-8"?>
<!-- Generator: Adobe Illustrator 23.0.0, SVG Export Plug-In . SVG Version: 6.00 Build 0)  -->
<svg version="1.1" id="Layer_1" xmlns="http://www.w3.org/2000/svg" xmlns:xlink="http://www.w3.org/1999/xlink" x="0px" y="0px"
	 viewBox="0 0 501.4 430.5" style="enable-background:new 0 0 501.4 430.5;" xml:space="preserve">
<style type="text/css">
	.st0{fill:#543B7F;}
</style>
<g id="governance">
	<path class="st0" d="M454.1,172.9l-0.1,0.1c0-7.8-6.4-14.2-14.2-14.2c-7.9,0-14.2,6.4-14.2,14.2c0,0-1.3,9.3,14.2,28.7l0-0.1l0.1,0
		C455.4,182.2,454.1,172.9,454.1,172.9z M428.6,173.5c0-6.3,5.1-11.3,11.3-11.3c6.2,0,11.3,5.1,11.3,11.3c0,6.2-5.1,11.3-11.3,11.3
		C433.6,184.8,428.6,179.7,428.6,173.5z"/>
	<rect x="433.9" y="170.1" class="st0" width="1.6" height="7.3"/>
	<rect x="437.5" y="170.1" class="st0" width="1.6" height="7.3"/>
	<rect x="441.1" y="170.1" class="st0" width="1.6" height="7.3"/>
	<rect x="444.8" y="170.1" class="st0" width="1.6" height="7.3"/>
	<rect x="433" y="168.9" class="st0" width="13.7" height="0.8"/>
	<rect x="432.9" y="177.6" class="st0" width="13.9" height="0.8"/>
	<rect x="431.7" y="178.9" class="st0" width="16.3" height="1.6"/>
	<polygon class="st0" points="431.9,168.3 448.1,168.3 440,163.6 	"/>
</g>
<g id="living">
	<path class="st0" d="M125.2,74.3l-0.1,0.1c0-8.3-6.8-15.1-15.1-15.1c-8.3,0-15.1,6.8-15.1,15.1c0,0-1.4,9.9,15.1,30.5l0-0.1l0.1,0
		C126.5,84.2,125.2,74.3,125.2,74.3z M98,74.8c0-6.6,5.4-12,12-12c6.6,0,12,5.4,12,12c0,6.6-5.4,12-12,12
		C103.4,86.9,98,81.5,98,74.8z"/>
	<g>
		<path class="st0" d="M112.4,79.3c0,1.3-1.1,2.4-2.4,2.4c-1.3,0-2.4-1.1-2.4-2.4c0-1.3,1.1-2.4,2.4-2.4
			C111.3,77,112.4,78,112.4,79.3z"/>
	</g>
	<g>
		<path class="st0" d="M101,75.6c-0.1,0-0.3,0-0.4-0.1c-0.6-0.2-1-0.9-0.8-1.5c1.5-4.4,5.6-7.3,10.2-7.3c4.6,0,8.7,2.9,10.2,7.3
			c0.2,0.6-0.1,1.3-0.8,1.5c-0.6,0.2-1.3-0.1-1.5-0.8c-1.1-3.4-4.3-5.6-7.9-5.6c-3.6,0-6.7,2.3-7.9,5.6
			C102,75.3,101.5,75.6,101,75.6z"/>
	</g>
	<g>
		<path class="st0" d="M104.5,78.2c-0.1,0-0.3,0-0.4-0.1c-0.6-0.2-1-0.9-0.8-1.5c1-2.9,3.6-4.8,6.6-4.8c3,0,5.7,1.9,6.6,4.8
			c0.2,0.6-0.1,1.3-0.8,1.5c-0.6,0.2-1.3-0.1-1.5-0.8c-0.6-1.9-2.4-3.1-4.3-3.1c-2,0-3.7,1.2-4.3,3.1
			C105.5,77.9,105,78.2,104.5,78.2z"/>
	</g>
</g>
<g id="economy">
	<g>
		<path class="st0" d="M69.8,185l-0.1,0.1c0-8.3-6.8-15.1-15.1-15.1c-8.3,0-15.1,6.8-15.1,15.1c0,0-1.4,9.9,15.1,30.5l0-0.1l0.1,0
			C71.2,194.9,69.8,185,69.8,185z M42.6,185.6c0-6.6,5.4-12,12-12c6.6,0,12,5.4,12,12c0,6.6-5.4,12-12,12
			C48,197.6,42.6,192.2,42.6,185.6z"/>
	</g>
	<g>
		<path class="st0" d="M59.8,187.5c0,1.2-0.4,2.2-1.2,3c-0.8,0.7-1.8,1.2-3.1,1.3v1.7h-1.3v-1.6c-1.2-0.1-2.1-0.4-3-1
			c-0.8-0.6-1.4-1.3-1.6-2.2l3.4-1.8c0.2,0.8,0.6,1.3,1.2,1.4v-1.8l-0.1,0c-0.7-0.2-1.3-0.5-1.7-0.7c-0.4-0.2-0.9-0.5-1.3-0.8
			c-0.4-0.3-0.7-0.7-0.9-1.2s-0.3-1-0.3-1.6c0-1.2,0.4-2.2,1.2-3c0.8-0.8,1.8-1.2,3.1-1.3v-1.6h1.3v1.7c1.9,0.2,3.3,1.2,4.1,2.9
			l-3.3,1.8c-0.2-0.6-0.4-0.9-0.8-1.1v1.9c0,0,0,0,0.1,0c0,0,0,0,0.1,0c1.3,0.5,2.2,0.9,2.6,1.2C59.2,185.2,59.8,186.2,59.8,187.5z
			 M53.5,182.1c0,0.3,0.2,0.5,0.6,0.7v-1.5C53.7,181.5,53.5,181.7,53.5,182.1z M55.5,188.3c0.4-0.1,0.7-0.3,0.7-0.7
			c0-0.3-0.2-0.5-0.7-0.7V188.3z"/>
	</g>
</g>
<g id="branding">
	<g>
		<path class="st0" d="M229,90.9L229,91c0-8.3-6.8-15.1-15.1-15.1c-8.3,0-15.1,6.8-15.1,15.1c0,0-1.4,9.9,15.1,30.5l0-0.1l0.1,0
			C230.4,100.8,229,90.9,229,90.9z M201.8,91.4c0-6.6,5.4-12,12-12c6.6,0,12,5.4,12,12c0,6.6-5.4,12-12,12
			C207.2,103.5,201.8,98.1,201.8,91.4z"/>
	</g>
	<path class="st0" d="M216.3,95.4v-5v-0.9c0.3,0,0.6-0.2,0.8-0.5c0.1-0.2,0.2-0.5,0.1-0.7l-0.7-2.8c-0.1-0.4-0.5-0.7-0.9-0.7h-0.4
		V84l0,0l0-0.3c0-0.1,0.1-0.1,0-0.2c0,0,0-0.1-0.1-0.1l-0.4-0.3l-0.2-0.2c-0.2-0.2-0.4-0.3-0.7-0.3h-0.4c-0.1,0-0.1,0-0.2,0.1
		l-0.2,0.1c-0.1,0.1-0.2,0.2-0.3,0.3l-0.7,0.8c-0.1,0.1-0.1,0.1-0.1,0.2v0.4v0.8c0,0.4-0.1,0.8-0.4,1.2l-0.2,0.2
		c-0.2,0.1-0.3,0.2-0.3,0.4c0,0.1,0,0.1,0,0.2l0,0v0.1c0,0.1,0,0.2,0,0.3v2.9l-0.2,4.6l-0.2,3.6l0,0.4c0,0.4,0.2,0.7,0.5,0.9
		c0.3,0.2,0.6,0.2,0.9,0l0.2-0.1c0.2-0.1,0.3-0.3,0.4-0.5l0.2-0.5l0,0c0,0,0,0,0-0.1l0.7,0.4h0.6c0.2,0,0.4-0.2,0.4-0.4v-0.2
		l-0.7-0.4l0,0l1.6-0.1l0.3,0.1h0.6c0.2,0,0.4-0.2,0.4-0.4v-0.2l0.4-0.5c0.2-0.2,0.2-0.5,0.1-0.7L216.3,95.4z"/>
</g>
<g id="environment">
	<g>
		<path class="st0" d="M326.7,299.7l-0.1,0.1c0-8.3-6.8-15.1-15.1-15.1c-8.3,0-15.1,6.8-15.1,15.1c0,0-1.4,9.9,15.1,30.5l0-0.1
			l0.1,0C328,309.6,326.7,299.7,326.7,299.7z M299.5,300.3c0-6.6,5.4-12,12-12c6.6,0,12,5.4,12,12c0,6.6-5.4,12-12,12
			C304.9,312.3,299.5,306.9,299.5,300.3z"/>
	</g>
	<g>
		<path class="st0" d="M315,296.6l0.9,0.7l1.9-1.5L315,296.6l0.9-0.8h-1.9l-0.8-0.7h1.3l-0.9-0.8l0,0h1.9l-0.9-0.8l2-1.6h-1.9
			l-4.8,3.9l-1-0.4l0,0v0l-0.4-0.2l-0.1-0.3v0.2l-0.2-0.1l-0.4-1.4v1.3l-0.2-0.1l-0.3-0.8v0.6l-0.1,0l-0.4-1v0.9h-1l1,0.9l-0.5,0.4
			h1l0,0l-0.5,0.4h1l0,0l-0.6,0.5l-0.2-0.1l-1,0.6l0.5-0.3h-1.1l0.6,0.3h0l-1.7-0.3l1.1,0.6l0.5-0.3l-0.5,0.3l0,0l0,0h-0.1l-0.2,0
			l0.1,0h-0.9l0.6,0.3l0.5-0.3l0,0l-0.7,0.4l0.2-0.1h-1.1l0.6,0.3l-1.1,0.6h1.1v0.6l0.6-1l0,0v0.6l0.6-1l-0.1,0.1l0.4-0.3v0
			l-0.4,0.2v0.8h-0.2l0.2,0.2v0.2l0.1-0.2l0.6,0.5l0.9-0.8h-1.5l0.3-1l0.1,0.1v0.4l0.1-0.2l0.9,0.8l0.9-0.8l-1.3-0.4l0.4-0.7
			l0.8,0.3H307l0.9,0.8l0.6-0.5l0,0l-5.3,4.4h1.9l2.8-2.3v0l-0.9,0.8v3.1l0.9-3.8v1.5l0.8-1.9v1.3v0.6v0.6l0.3,0.2l-0.3,0.5v0.6v0.6
			v0.6l-0.1,0.4l0.1,0.2l1.1,0.6l-0.6-0.3l-0.6-0.3l-0.6,0.8v1.4l-0.7,0.4l2.3,1.4l2.2-1.3v-0.8v-0.6l-0.8,0.5h0l0.8-0.5l-0.5-0.8
			l0.1-0.4l-0.2-0.2l0-0.2v-0.6l-0.1-1.3l-0.4-1l-0.2-0.6l0,0l0.1,0l-0.1-1.2l-0.2-0.4l0.2-0.3v-0.6l-0.5-0.9l0.5-0.2l0.4,1v-1.1
			l0.1,0l0.5,0.9v-0.6l0,0l0.6,1v-0.6h1.1l-0.3-0.2v-0.4l0,0l0.6,1V298l0.2,0.6l0.3,0.9v-1.3h0l0.5,0.9l0.2,0.5v-0.8l0.3,0.6
			l0.6,2.5v-3h0l0.9,2.3v-1.5h0l0.9,2.3v-1.5h1.9L315,296.6z M306.5,297.9l-0.2,0l0.2-0.3l0,0V297.9z M307.5,296.9l0.8-0.2l0,0
			l-0.5,0.4L307.5,296.9z M308.8,297.7L308.8,297.7l0.1-0.1h-0.3l-0.7-0.4h1l0.3,0.2L308.8,297.7z M309.5,297.1L309.5,297.1
			L309.5,297.1L309.5,297.1z M310.2,301.9l-0.4,0.2l-0.3-0.2v0l0.3,0.2L310.2,301.9L310.2,301.9z M310.9,304L310.9,304l-0.6,0.3l0,0
			L310.9,304z M309.8,298.3l0.3-1l0.2-0.2l0.2,0.4L309.8,298.3z M310.8,297.3L310.8,297.3L310.8,297.3L310.8,297.3L310.8,297.3
			l-0.4-0.2l0,0L310.8,297.3L310.8,297.3z M311.2,296.9l-0.4-0.2l0,0L311.2,296.9L311.2,296.9z M312.7,295.1h0.3l-0.1,0.1
			L312.7,295.1L312.7,295.1z M311.8,295.9L311.8,295.9l0.3,0.1l-0.1,0.1L311.8,295.9z M312.1,297.5L312.1,297.5l0.3,0.2l0.3-0.2
			l0.3,0.5L312.1,297.5z M312.8,296.7l0.4-0.2l0.2,0.4h-0.1l0.2,0.1l0,0L312.8,296.7z M314.1,297.5L314.1,297.5L314.1,297.5
			L314.1,297.5L314.1,297.5z"/>
		<polygon class="st0" points="318.8,298.1 316.9,298.1 317.8,298.9 		"/>
		<polygon class="st0" points="317.8,297.3 315.9,297.3 316.9,298.1 		"/>
		<polygon class="st0" points="310.8,293.6 309.9,295.9 310.8,295.1 		"/>
		<polygon class="st0" points="311.8,292.8 310.8,295.1 311.8,294.4 		"/>
		<polygon class="st0" points="312.7,290.5 311.8,294.4 312.7,293.6 		"/>
		<polygon class="st0" points="313.7,291.3 312.7,293.6 313.7,292.8 		"/>
		<polygon class="st0" points="314.6,290.5 313.7,292.8 314.6,292.1 		"/>
		<polygon class="st0" points="306.1,303 307,300.7 306.1,301.4 		"/>
		<polygon class="st0" points="305.1,303.7 306.1,301.4 305.1,302.2 		"/>
		<polygon class="st0" points="305.1,300.7 306.1,299.9 304.2,299.9 		"/>
	</g>
</g>
<g id="society">
	<g id="XMLID_15_">
		<g id="XMLID_17_">
			<g>
				<g id="XMLID_60_">
					<g id="XMLID_64_">
						<g id="XMLID_65_">
							<path id="XMLID_66_" class="st0" d="M98,262.4c1.6,0,3-1.3,3-3c0-1.6-1.3-3-3-3c-1.6,0-3,1.3-3,3
								C95,261.1,96.3,262.4,98,262.4"/>
						</g>
					</g>
					<g id="XMLID_61_">
						<g id="XMLID_62_">
							<path id="XMLID_63_" class="st0" d="M99.2,262.6h-2.5c-2.1,0-3.8,1.7-3.8,3.8v3.1l0,0l0.2,0.1c2,0.6,3.7,0.8,5.2,0.8
								c2.8,0,4.4-0.8,4.5-0.8l0.2-0.1h0v-3.1C103,264.3,101.3,262.6,99.2,262.6"/>
						</g>
					</g>
				</g>
			</g>
		</g>
	</g>
	<g>
		<g>
			<path class="st0" d="M113.1,262.9l-0.1,0.1c0-8.3-6.8-15.1-15.1-15.1c-8.3,0-15.1,6.8-15.1,15.1c0,0-1.4,9.9,15.1,30.5l0-0.1
				l0.1,0C114.5,272.8,113.1,262.9,113.1,262.9z M86,263.5c0-6.6,5.4-12,12-12c6.6,0,12,5.4,12,12c0,6.6-5.4,12-12,12
				C91.3,275.5,86,270.1,86,263.5z"/>
		</g>
	</g>
</g>
</svg>
