<?xml version="1.0" encoding="utf-8"?>
<!-- Generator: Adobe Illustrator 23.0.0, SVG Export Plug-In . SVG Version: 6.00 Build 0)  -->
<svg version="1.1" id="Layer_1" xmlns="http://www.w3.org/2000/svg" xmlns:xlink="http://www.w3.org/1999/xlink" x="0px" y="0px"
	 viewBox="0 0 522.8 477.3" style="enable-background:new 0 0 522.8 477.3;" xml:space="preserve">
<style type="text/css">
	.st0{fill:#DCEEFF;}
	.st1{fill:#A5CBFA;}
	.st2{fill:#C8E2FF;}
	.st3{fill:#FFFFFF;}
	.st4{fill:#344593;}
	.st5{fill:#1E3779;}
	.st6{fill:#031F60;}
	.st7{enable-background:new    ;}
	.st8{fill:#774B32;}
	.st9{fill:#875839;}
	.st10{fill:#3C494C;}
	.st11{fill:#86B529;}
	.st12{fill:#7F7F7F;}
	.st13{fill:url(#SVGID_1_);}
	.st14{fill:#969696;}
	.st15{fill:#DDDCDB;}
	.st16{fill:#BDBCBC;}
	.st17{fill:#252B2B;}
	.st18{fill:#30393A;}
	.st19{fill:url(#SVGID_2_);}
	.st20{fill:#5A595B;}
	.st21{fill:#323233;}
	.st22{fill:#424143;}
	.st23{fill:#3B3A3C;}
	.st24{fill:#A7A7A7;}
	.st25{fill:#747474;}
	.st26{fill:#EFEFEF;}
	.st27{opacity:0.5;fill:#747474;enable-background:new    ;}
	.st28{fill:#E29C5D;}
	.st29{fill:#302B2B;}
	.st30{fill:#F4BD98;}
	.st31{fill:#D15454;}
	.st32{fill:#3B748F;}
	.st33{fill:#BC4646;}
	.st34{fill:url(#SVGID_3_);}
	.st35{fill:#E5AB83;}
	.st36{fill:url(#SVGID_4_);}
	.st37{fill:url(#SVGID_5_);}
	.st38{fill:#281504;}
	.st39{fill:#5B5B5B;}
	.st40{fill:#464646;}
	.st41{fill:#4E4E4E;}
	.st42{fill:#BDBDBD;}
	.st43{fill:#313131;}
	.st44{fill:#140E0E;}
	.st45{fill:#333030;}
	.st46{fill:url(#SVGID_6_);}
	.st47{fill:#8BAD50;}
	.st48{fill:#443333;}
	.st49{fill:#7A3B11;}
	.st50{fill:#8E4717;}
	.st51{fill:#B5662B;}
	.st52{fill:#6BAB1C;}
	.st53{fill:#5B2704;}
	.st54{fill:#491D00;}
	.st55{opacity:0.5;fill:#6BAB1C;enable-background:new    ;}
	.st56{fill:#8FC90E;}
	.st57{fill:#BABABA;}
	.st58{fill:#D6D6D6;}
	.st59{fill:#D8D8D8;}
	.st60{fill:#C9D1CF;}
	.st61{opacity:0.6;fill:#C9D1CF;enable-background:new    ;}
	.st62{fill:#737373;}
	.st63{fill:#8F9A9E;}
	.st64{fill:#A3B5B9;}
	.st65{fill:#636D70;}
	.st66{fill:#7D613E;}
	.st67{fill:#756045;}
	.st68{fill:#95754B;}
	.st69{fill:#A8AEAF;}
	.st70{fill:#878D8E;}
	.st71{fill:#E6EDEF;}
	.st72{fill:#D0D6D6;}
	.st73{opacity:0.6;fill:url(#SVGID_7_);enable-background:new    ;}
	.st74{fill:#69C4B7;}
	.st75{fill:#BBB4A7;}
	.st76{fill:#C4BDAF;}
	.st77{fill:#DCD4C3;}
	.st78{fill:#EFE6D4;}
	.st79{fill:#FFF5E2;}
	.st80{fill:#5AA369;}
	.st81{fill:#3DD130;}
	.st82{opacity:0.4;fill:#EFE6D4;enable-background:new    ;}
	.st83{opacity:0.5;fill:#252B2B;enable-background:new    ;}
	.st84{fill:#41494B;}
	.st85{fill:#181A1B;}
	.st86{fill:#2B3030;}
	.st87{fill:#222526;}
	.st88{fill:#5C95FF;}
	.st89{fill:#444340;}
	.st90{fill:#2D2C2B;}
	.st91{opacity:0.5;fill:url(#SVGID_8_);enable-background:new    ;}
	.st92{fill:#F4FEFF;}
	.st93{fill:#CAE3E5;}
	.st94{fill:url(#SVGID_9_);}
	.st95{fill:url(#SVGID_10_);}
	.st96{fill:url(#SVGID_11_);}
	.st97{fill:#A8BDC0;}
	.st98{fill:url(#SVGID_12_);}
	.st99{opacity:0.5;fill:url(#SVGID_13_);enable-background:new    ;}
	.st100{fill:url(#SVGID_14_);}
	.st101{fill:url(#SVGID_15_);}
	.st102{fill:url(#SVGID_16_);}
	.st103{fill:url(#SVGID_17_);}
	.st104{opacity:0.5;fill:url(#SVGID_18_);enable-background:new    ;}
	.st105{fill:url(#SVGID_19_);}
	.st106{fill:url(#SVGID_20_);}
	.st107{fill:url(#SVGID_21_);}
	.st108{fill:url(#SVGID_22_);}
	.st109{fill:url(#SVGID_23_);}
	.st110{fill:url(#SVGID_24_);}
	.st111{fill:#50504F;}
	.st112{fill:#399CFF;}
	.st113{fill:#020202;}
	.st114{opacity:0.4;clip-path:url(#SVGID_26_);}
	.st115{fill:#D3D3D3;}
	.st116{fill:#EAEAEA;}
	.st117{opacity:0.8;fill:#334547;enable-background:new    ;}
	.st118{fill:#282828;}
	.st119{fill:#0062FF;}
	.st120{opacity:0.5;fill:#020202;enable-background:new    ;}
	.st121{opacity:0.4;fill:#D37800;enable-background:new    ;}
	.st122{fill:#8DCCFF;}
	.st123{fill:#FFD140;}
	.st124{fill:#398AFF;}
	.st125{opacity:0.5;fill:#D18100;enable-background:new    ;}
	.st126{fill:#303435;}
	.st127{fill:#F5FCF8;}
	.st128{fill:#FFB32C;}
	.st129{fill:#6F9193;}
	.st130{opacity:0.3;fill:url(#XMLID_2_);enable-background:new    ;}
	.st131{opacity:0.5;fill:url(#XMLID_3_);enable-background:new    ;}
</style>
<g id="box">
	<g id="sub-box">
		<path id="XMLID_2069_" class="st0" d="M516.2,333.5L274.4,473c-3.7,2.1-8.4,3.1-13.2,3.1c-4.8,0-9.5-1-13.1-3.1L6.3,333.5
			c-3.7-2.1-5.5-4.9-5.5-7.6c0-2.8,1.8-5.5,5.5-7.6l38.4-22.1L248,178.7c7.3-4.2,19.1-4.2,26.4,0l241.7,139.6
			C523.4,322.4,523.4,329.3,516.2,333.5z"/>
		<path id="XMLID_2060_" class="st1" d="M261.2,421.1v55c-4.8,0-9.5-1-13.1-3.1L6.3,333.5c-3.7-2.1-5.5-4.9-5.5-7.6v-47.7
			c0-2,1-4,2.9-5.7l41,23.7L261.2,421.1z"/>
		<path id="XMLID_2056_" class="st2" d="M261.2,421.1v55c4.8,0,9.5-1,13.1-3.1l241.8-139.6c3.7-2.1,5.5-4.9,5.5-7.6v-47.7
			c0-2-1-4-2.9-5.7l-41,23.7L261.2,421.1z"/>
		<path id="XMLID_2035_" class="st0" d="M516.2,285.8L274.4,425.4c-3.7,2.1-8.4,3.1-13.2,3.1c-4.8,0-9.5-1-13.2-3.1L6.3,285.8
			c-3.7-2.1-5.5-4.8-5.5-7.6c0-2,1-4,2.9-5.7c0.7-0.7,1.6-1.3,2.6-1.9L248,131.1c7.3-4.2,19.1-4.2,26.4,0l241.7,139.5
			C523.4,274.8,523.4,281.7,516.2,285.8z"/>
		<g id="XMLID_2030_">
			<path class="st3" d="M261.2,128.9c4.8,0,9.3,1.1,12.7,3l241.7,139.5c3.2,1.9,5,4.3,4.9,6.8c0,2.5-1.8,4.9-4.9,6.7L273.9,424.5
				c-3.3,1.9-7.8,3-12.7,3s-9.4-1.1-12.7-3L6.8,285c-3.2-1.8-5-4.2-5-6.7c0-1.7,0.9-3.5,2.6-5c0.7-0.7,1.5-1.3,2.4-1.7l241.7-139.5
				C251.9,130,256.4,128.9,261.2,128.9 M261.2,127.9c-4.8,0-9.6,1.1-13.2,3.2L6.3,270.6c-1,0.6-1.9,1.2-2.6,1.9
				c-1.9,1.7-2.9,3.8-2.9,5.7c0,2.8,1.8,5.5,5.5,7.6L248,425.4c3.7,2.1,8.4,3.1,13.2,3.1c4.8,0,9.5-1,13.2-3.1l241.7-139.6
				c7.3-4.2,7.3-11,0-15.2L274.4,131.1C270.8,129,266,127.9,261.2,127.9L261.2,127.9z"/>
		</g>
		<path id="XMLID_1781_" class="st4" d="M252.4,164.2l-188.6,109c-4.9,2.8-4.9,7.4,0,10.2l188.7,108.9c4.9,2.8,12.7,2.8,17.6,0
			l188.7-108.9c4.9-2.8,4.9-7.4,0-10.2L270,164.2C265.2,161.4,257.3,161.4,252.4,164.2z"/>
		<path id="XMLID_1775_" class="st5" d="M458.7,273.2L270,164.2c-2.4-1.4-5.6-2.1-8.8-2.1v8.9l195.9,113.1l1.5-0.9
			C463.5,280.5,463.5,276,458.7,273.2z"/>
		<path id="XMLID_1772_" class="st6" d="M261.2,162.1c-3.2,0-6.4,0.7-8.8,2.1l-188.6,109c-4.9,2.8-4.9,7.4,0,10.2l1.5,0.9
			l195.9-113.1V162.1z"/>
	</g>
	<g id="bus">
		<g id="land">
			<g>
				<g class="st7">
					<polygon class="st8" points="93.8,271.8 261.2,368.4 261.2,382.6 93.8,286 					"/>
					<polygon class="st9" points="261.2,368.4 433.5,269 433.5,283.2 261.2,382.6 					"/>
					<polygon class="st8" points="93.8,271.8 261.2,368.4 261.2,382.6 93.8,286 					"/>
					<polygon class="st9" points="261.2,368.4 433.5,269 433.5,283.2 261.2,382.6 					"/>
					<polygon class="st10" points="93.8,271.8 266.1,172.3 433.5,269 261.2,368.4 					"/>
					<path class="st11" d="M287.3,196.5c-6.1,3.5-12.5,6.4-18.3,10.2c-17.9,11.5-35.3,24-53.5,35c-16.7,10.1-34.7,17.6-51.9,26.5
						c-12.8,6.6-24.6,14.7-36.3,22.9l-33.4-19.3l172.3-99.5l30.7,17.7C293.9,192.6,290.5,194.6,287.3,196.5z"/>
				</g>
			</g>
			<g>
				<g>
					<path class="st12" d="M93.8,271.2l72.2,37.6l2.5-1.4c0.7,1.3,1.6,2.6,2.4,4l-5.3,1.9l-71.8-41.5V271.2z"/>
					
						<linearGradient id="SVGID_1_" gradientUnits="userSpaceOnUse" x1="320.4406" y1="278.8121" x2="101.051" y2="192.7398" gradientTransform="matrix(1 0 0 -1 0 480)">
						<stop  offset="0" style="stop-color:#DDDCDB"/>
						<stop  offset="1" style="stop-color:#CCCBCA"/>
					</linearGradient>
					<polygon class="st13" points="265.7,171.9 93.8,271.2 165.6,312.7 338,213.8 					"/>
				</g>
				<g>
					<g>
						<polygon class="st14" points="167.4,313.7 339.8,214.2 339.8,214.9 167.4,314.3 						"/>
					</g>
					<g class="st7">
						<g class="st7">
							<path class="st15" d="M338.9,213.3c-0.3-0.2-0.7-0.3-0.8-0.2l-172.4,99.5c0.2-0.1,0.5,0,0.8,0.2s0.5,0.3,0.7,0.5l172.4-99.5
								C339.4,213.6,339.1,213.4,338.9,213.3z"/>
							<path class="st16" d="M339.7,214.1c0-0.1-0.1-0.2-0.2-0.2l-172.4,99.5c0.1,0.1,0.1,0.2,0.2,0.2c0,0.1,0,0.1,0,0.2l172.4-99.5
								C339.8,214.2,339.8,214.1,339.7,214.1z"/>
						</g>
					</g>
					<path class="st12" d="M166.5,312.8c0.4,0.3,0.9,0.7,0.9,0.9v0.6l-1.8-1.1v-0.6C165.6,312.4,166.1,312.5,166.5,312.8z"/>
				</g>
			</g>
			<g>
				<polygon class="st17" points="166.6,318.3 261.2,372.9 261.2,368.4 166.6,313.8 				"/>
				<polygon class="st12" points="167.4,314.3 93.8,271.8 93.8,276.3 167.4,318.8 				"/>
			</g>
			<polygon class="st18" points="261.2,368.4 433.5,269 433.5,273.4 261.2,372.9 			"/>
			
				<linearGradient id="SVGID_2_" gradientUnits="userSpaceOnUse" x1="264.461" y1="209.2379" x2="351.6493" y2="158.8342" gradientTransform="matrix(1 0 0 -1 0 480)">
				<stop  offset="0" style="stop-color:#B4B9BB"/>
				<stop  offset="1" style="stop-color:#FDFDFD"/>
			</linearGradient>
			<path class="st19" d="M393.4,245.8l-172.2,99.4l-1.3-0.7l172.2-99.4L393.4,245.8z M395.9,247.3l-172.2,99.4l1.3,0.7L397.2,248
				L395.9,247.3z"/>
			<g id="_x35_">
				<g>
					<g>
						<path class="st20" d="M160,277.4c-0.1,0.1-0.2,0.1-0.3,0l-3.4-2c-0.2-0.1-0.3-0.3-0.3-0.5v-1.6c0-0.2,0.1-0.2,0.3-0.1l3.4,2
							c0.1,0.1,0.2,0.2,0.3,0.3v-0.4l-4.5-2.6v12.1l4.5,2.6V277.4z"/>
						<path class="st21" d="M160.3,275l-5-2.9v12.6l5,2.9V275z M159.8,277.4c0,0.2-0.1,0.2-0.3,0.1l-3.4-2c-0.2-0.1-0.3-0.3-0.3-0.5
							v-1.6c0-0.2,0.1-0.2,0.3-0.1l3.4,2c0.2,0.1,0.3,0.3,0.3,0.5V277.4z"/>
					</g>
					<g>
						<path class="st20" d="M150.6,275v0.4c0.1-0.1,0.1-0.1,0.2-0.2l3.4-2c0.2-0.1,0.3,0,0.3,0.1v1.6c0,0.2-0.1,0.4-0.3,0.5l-3.4,2
							c-0.1,0-0.1,0.1-0.2,0v9.7l4.4-2.5v-12.1L150.6,275z"/>
						<path class="st21" d="M150.3,275v12.6l5-2.9v-12.6L150.3,275z M154.8,275.1c0,0.2-0.1,0.4-0.3,0.5l-3.4,2
							c-0.2,0.1-0.3,0-0.3-0.1v-1.6c0-0.2,0.1-0.4,0.3-0.5l3.4-2c0.2-0.1,0.3,0,0.3,0.1V275.1z"/>
					</g>
					<polygon class="st20" points="150.3,275 155.3,272.1 160.3,275 155.3,277.9 					"/>
					<g>
						<path class="st20" d="M155.6,277.9v0.4c0.1-0.1,0.1-0.1,0.2-0.2l3.4-2c0.2-0.1,0.3,0,0.3,0.1v1.6c0,0.2-0.1,0.4-0.3,0.5
							l-3.4,2c-0.1,0-0.1,0.1-0.2,0v9.7l4.4-2.5v-12.1L155.6,277.9z"/>
						<path class="st22" d="M155.3,277.9v12.6l5-2.9V275L155.3,277.9z M159.8,278c0,0.2-0.1,0.4-0.3,0.5l-3.4,2
							c-0.2,0.1-0.3,0-0.3-0.1v-1.6c0-0.2,0.1-0.4,0.3-0.5l3.4-2c0.2-0.1,0.3,0,0.3,0.1V278z"/>
					</g>
					<g>
						<path class="st20" d="M155.1,280.3c-0.1,0.1-0.2,0.1-0.3,0l-3.4-2c-0.2-0.1-0.3-0.3-0.3-0.5v-1.6c0-0.2,0.1-0.2,0.3-0.1l3.4,2
							c0.1,0.1,0.2,0.2,0.3,0.3V278l-4.5-2.6v12.1l4.5,2.6V280.3z"/>
						<path class="st23" d="M155.3,277.9l-5-2.9v12.6l5,2.9V277.9z M154.8,280.3c0,0.2-0.1,0.2-0.3,0.1l-3.4-2
							c-0.2-0.1-0.3-0.3-0.3-0.5v-1.6c0-0.2,0.1-0.2,0.3-0.1l3.4,2c0.2,0.1,0.3,0.3,0.3,0.5V280.3z"/>
					</g>
					<g>
						<polygon class="st24" points="151.1,275 151.5,274.1 159.1,274.1 159.5,275 155.3,277.4 						"/>
						<polygon class="st25" points="151.1,275 151.5,274.1 155.3,276.1 155.3,277.4 						"/>
						<polygon class="st26" points="151.5,274.1 155.3,271.9 159.1,274.1 155.3,276.3 						"/>
					</g>
					<path class="st27" d="M155.7,272.7l-2.8,1.6h-0.1c0,0,0,0,0-0.1L155.7,272.7C155.6,272.6,155.6,272.6,155.7,272.7L155.7,272.7z
						 M155.9,272.8L155.9,272.8l-2.9,1.6c0,0,0,0,0,0.1s0.1,0,0.1,0L155.9,272.8C156,272.8,156,272.8,155.9,272.8z M156.2,272.9
						C156.2,272.9,156.1,272.9,156.2,272.9l-2.9,1.6c0,0,0,0,0,0.1s0.1,0,0.1,0L156.2,272.9C156.2,273,156.2,273,156.2,272.9z
						 M156.4,273.1L156.4,273.1l-2.9,1.6c0,0,0,0,0,0.1s0.1,0,0.1,0L156.4,273.1C156.5,273.1,156.5,273.1,156.4,273.1z M156.7,273.2
						C156.7,273.2,156.6,273.2,156.7,273.2l-2.9,1.6c0,0,0,0,0,0.1h0.1L156.7,273.2C156.7,273.3,156.7,273.3,156.7,273.2z
						 M157,273.4C156.9,273.4,156.9,273.4,157,273.4l-2.9,1.6c0,0,0,0,0,0.1s0.1,0,0.1,0L157,273.4L157,273.4z M157.2,273.5
						L157.2,273.5l-2.9,1.6c0,0,0,0,0,0.1s0.1,0,0.1,0L157.2,273.5C157.3,273.6,157.3,273.6,157.2,273.5z M157.5,273.7
						C157.5,273.7,157.4,273.7,157.5,273.7l-2.9,1.6c0,0,0,0,0,0.1h0.1L157.5,273.7L157.5,273.7z M157.7,273.8L157.7,273.8l-2.9,1.6
						c0,0,0,0,0,0.1s0.1,0,0.1,0L157.7,273.8C157.8,273.9,157.8,273.9,157.7,273.8z"/>
				</g>
				<polygon class="st24" points="159.8,279.1 155.9,281.3 155.9,289.1 159.8,286.9 				"/>
				<polygon class="st25" points="150.9,279.1 154.8,281.3 154.8,289.1 150.9,286.9 				"/>
			</g>
			<g>
				<g>
					<g id="_x37_">
						<path class="st28" d="M177.7,296c0,0,0,0.1,0,0.2c0,0.2,0,0.5,0.2,0.6c0.3,0.3,0.6,0.3,1,0.6c0.3,0.2,0.7,0.5,1,0.6
							s0.8,0.2,1.2,0.1c0.5,0,0.9-0.3,0.9-0.7c0-0.3-0.1-0.4-0.1-0.4c-0.2-0.2-1.4-0.3-1.9-0.5s-1-0.4-1.6-0.7
							C178.2,295.8,177.6,295.5,177.7,296z"/>
						<path class="st28" d="M173.8,299.7c-0.1-0.4-0.1-0.9-0.4-1.1s-1.5-0.4-1.6,0.2c0,0.2-0.3,2.1-0.2,2.6c0,0.3,0.4,0.7,0.7,0.8
							c0.4,0.2,0.7,0.2,1.1,0.1c0.3-0.1,0.5-0.5,0.7-0.8C174.1,301.2,174,300.3,173.8,299.7z"/>
						<g>
							<g>
								<g>
									<g>
										<path class="st29" d="M177.9,296.5c-0.4-0.4-0.2-1-0.2-1.6c0-0.3-0.1-0.6-0.1-0.9l1.9-0.3c0,0.2,0.1,0.4,0.1,0.6
											c0.1,0.5,0.1,1,0.4,1.4c0.2,0.5,2.4,1,1.9,1.8c-0.1,0.1-0.2,0.1-0.2,0.2c-0.6,0.3-1.2,0.2-1.8,0c-0.5-0.2-0.8-0.6-1.3-0.8
											C178.2,296.6,178,296.6,177.9,296.5z"/>
									</g>
									<g>
										<path class="st29" d="M171.7,298.2c0-0.1-0.2-1.2-0.1-1.2l1.9-0.2c0.1,0,0.1,1.4,0.1,1.6c-0.1,0.8,0.2,1.4,0.4,2.2
											c0.1,0.6-0.7,1.2-1.1,1.2c-0.3,0-1.2-0.3-1.2-0.9C171.6,300.6,171.8,298.6,171.7,298.2z"/>
									</g>
									<g>
										<g>
											<path class="st30" d="M180.3,278.1c-0.3-0.2-0.5-0.4-0.8-0.6c-0.2-0.1-0.4-0.3-0.5-0.4c-0.1,0.6-0.3,1-0.6,1.5
												c0.6,0.3,1.3,0.6,1.9,0.9c0.3,0.2,0.5,0.3,0.8,0.6c0.1-0.1,0.2-0.1,0.2-0.2c0.1,0,0.1-0.1,0.2-0.1l0.4-1.1c0,0,0,0,0-0.1
												C181.3,278.3,180.8,278.4,180.3,278.1z"/>
											<path class="st31" d="M178,275.8c0,0.1,2.7,1.9,2.7,2.4c-0.5-0.1-0.9,0.6-0.7,1c0,0.3-2.9-1.2-3.9-2.1
												c-0.7-0.6-0.5-1.2-0.6-1.4c0,0-0.3-3.5,0.3-4.5c0.6-0.9,1.3-1,1.7-0.5C178.4,271.7,178,275.8,178,275.8z"/>
											<path class="st32" d="M178.2,282.3c-0.5,0.4-5.9,0.8-6.5,1c-0.3,1.8,0,5.2,0.3,8.8c-0.5,2.4-0.5,4.7-0.6,6.4
												c0.2,0.6,2.5,0.4,2.5,0c0-0.1,0.3-2.4,1-5.6c0.1-0.6,0.7-3.8,0.7-5.3l0.9,2.7c0.4,2.7,0.6,3.8,1,5.1
												c0.2,0.6,2.2,0.4,2.3-0.1c0-0.3-0.2-5.1-0.2-5.9C179.6,288.9,178.6,284.5,178.2,282.3z"/>
											<path class="st33" d="M171.1,272.9c0.4-0.3,1.2-0.7,1.7-1l3-1.2c0.6-0.2,0.8-0.2,1.1-0.1c0.7,0.3,0.8,2,0.9,3
												c0,0.3,0.3,7.8,0.4,8.1c0,0.3,0,0.5,0,0.5c-0.5,1.3-4.5,1.9-6.5,1c-0.1-2.4-1.2-7-1.2-7.3
												C170.3,274.9,170.2,273.6,171.1,272.9z"/>
											
												<linearGradient id="SVGID_3_" gradientUnits="userSpaceOnUse" x1="306.5282" y1="205.8643" x2="311.684" y2="206.2861" gradientTransform="matrix(1 0 0 -1 -134.2204 480)">
												<stop  offset="0" style="stop-color:#CDE4E9"/>
												<stop  offset="1" style="stop-color:#EBFBFF"/>
											</linearGradient>
											<path class="st34" d="M172.5,272.3c0.2-0.1,0.2-0.3,0.4-0.4l2.8-1.1c0.5,1.6,0.2,6.1,0.2,6.1
												C174.3,274.5,173,273.2,172.5,272.3z"/>
											<path class="st29" d="M178.2,282c-1.1,0.9-2,1.1-3.4,1.2c-1.2,0.1-2.8-0.2-3.1-0.5c-0.1,0.2,0,0.3,0,0.5
												c0.1,0.1,1.4,0.5,3.1,0.4c1.6-0.1,2.9-0.6,3.5-1.3C178.2,282.4,178.2,282.1,178.2,282z"/>
											<path class="st35" d="M172.8,269.5c0,0,2.4,0.1,2.5,0.3c0,0.2,0.1,0.5,0.1,0.7c0,0.3,0.1,0.8,0.3,1.2
												c-0.1,0-0.4,0.1-0.4,0.1c0,0.3,0,1.6,0,1.6l-0.5-1.3c0,0-1,0.6-1.3,0.5c-0.2-0.1-0.5-0.1-0.5-0.4c0-0.1,0-0.1,0-0.2
												c0-0.2,0-0.5,0-0.7C172.8,270.7,172.9,270,172.8,269.5z"/>
											<path class="st30" d="M169.8,276.2c0.1-0.1,0.3-0.1,0.4-0.2c0.5-0.3,1.1-0.6,1.6-1c0.1,0.8,0,2.5-0.5,5.2
												c0.6,0.4,1.3,0.9,1.9,1.3c0.4,0.2,0.7,0.5,1.1,0.7c0.1,0,0.2,0.1,0.3,0.1c0.2,0,0.4-0.3,0.6-0.4c0.5-0.2,0,0.4,0.2,0.6
												c0.1,0.1,0.3,0,0.4,0c0.3,0,0.6-0.1,0.6,0.3c0,0.6-0.8,1.1-1.1,1.2c-0.5,0.2-1.1-0.2-1.4-0.5c-0.8-0.7-4.1-2.1-4.3-2.6
												c-0.2-0.5-0.1-2.8,0.1-4.6C169.7,276.2,169.7,276.2,169.8,276.2z"/>
										</g>
										<path class="st31" d="M171.5,280c0,0.1,2.2,1.5,2.9,2c0.1,0.1,0.1,0.2,0.1,0.2c-0.8,0.3-0.8,1-0.6,1.3
											c-0.1,0.6-4.5-2.2-4.7-2.8c-0.5-1.3,0.4-6.4,1.2-7.2c0.9-0.9,1.4-0.3,1.7,0.2C172.5,274.8,171.6,279.7,171.5,280z"/>
									</g>
								</g>
								
									<linearGradient id="SVGID_4_" gradientUnits="userSpaceOnUse" x1="307.9908" y1="210.2295" x2="309.1786" y2="209.0417" gradientTransform="matrix(1 0 0 -1 -134.2204 480)">
									<stop  offset="0" style="stop-color:#CDE4E9"/>
									<stop  offset="0.3555" style="stop-color:#D9EDF2"/>
									<stop  offset="1" style="stop-color:#EBFBFF"/>
								</linearGradient>
								<path class="st36" d="M175.4,270.9l0.1,0.4c0,0.1-0.1,0.3-0.3,0.4c0.3,0.2,0.5,0.4,0.8,0.7c0-0.1-0.1-0.8-0.3-1.1
									C175.6,271.1,175.4,270.9,175.4,270.9z"/>
								
									<linearGradient id="SVGID_5_" gradientUnits="userSpaceOnUse" x1="306.4408" y1="208.1685" x2="308.6309" y2="207.1378" gradientTransform="matrix(1 0 0 -1 -134.2204 480)">
									<stop  offset="0" style="stop-color:#CDE4E9"/>
									<stop  offset="0.3555" style="stop-color:#D9EDF2"/>
									<stop  offset="1" style="stop-color:#EBFBFF"/>
								</linearGradient>
								<path class="st37" d="M174.7,272.1c0,0-0.2,0.6-0.3,1.3c-1.7-0.1-1.9-0.7-2-1c0.1-0.2,0.5-1.1,0.5-1.1
									c0,0.5,0.6,0.7,0.9,0.8C174,272.1,174.4,272.2,174.7,272.1z"/>
								<g>
									<path class="st30" d="M175.9,270.8c-0.1,0.3-0.4,0.8-0.8,0.8c-0.6,0-1.7-0.2-1.8-0.6c-0.3-0.8-0.5-1.6-0.1-2.5
										c0.1-0.4,0.4-0.8,0.8-1c0.3-0.2,0.5-0.3,0.8-0.4c0.8-0.3,1.5-0.3,1.5,0.6c0,0.4,0.1,0.9,0,1.3
										C176.2,270.1,176.1,270.3,175.9,270.8z"/>
									<path class="st38" d="M174.9,265.6c0.1,0,0.2,0,0.3,0c1.1-0.1,1.3,1.4,1.2,2.3c0,0,0-0.3-0.1-0.4c-0.4-0.1-0.8,0.2-1.2,0.3
										c-0.2,0-0.5,0-0.7,0.2s-0.1,0.5-0.3,0.8c-0.2,0.3,0,0.8-0.1,0.9c-0.3,0.2-0.4-0.1-0.7-0.1c-0.2,0.1-0.2,0.3-0.2,0.4
										c0,0.3,0.1,0.6,0.1,0.6c-1.2-0.1-1.3-1.4-1.5-2.3c-0.2-1,0.3-1.8,1.1-2.4C173.5,265.3,174.1,265.5,174.9,265.6z"/>
								</g>
							</g>
						</g>
					</g>
				</g>
				<g>
					<g class="st7">
						<g class="st7">
							<g class="st7">
								<path class="st39" d="M179.9,280l-0.1-0.1C179.7,280,179.8,280,179.9,280v0.1C179.9,280.1,179.9,280.1,179.9,280L179.9,280z
									"/>
							</g>
						</g>
						<g class="st7">
							<g class="st7">
								<path class="st39" d="M181.9,277.6l-0.1-0.1h-0.1l0.1,0.1C181.9,277.6,181.9,277.6,181.9,277.6L181.9,277.6z"/>
							</g>
						</g>
						<g>
							<polygon class="st40" points="180.5,278.1 180.4,278 179.8,279.9 179.9,280 							"/>
						</g>
						<g>
							<polygon class="st41" points="181.8,277.6 181.7,277.5 180.7,277.7 180.8,277.8 							"/>
						</g>
						<g class="st7">
							<g class="st7">
								<path class="st39" d="M180.8,277.8l-0.1-0.1h-0.1l0.1,0.1C180.7,277.8,180.7,277.8,180.8,277.8L180.8,277.8z"/>
								<path class="st42" d="M180.7,277.9l-0.1-0.1l-0.1,0.1l0.1,0.1C180.6,277.9,180.6,277.9,180.7,277.9L180.7,277.9z"/>
								<path class="st39" d="M180.6,278l-0.1-0.1l-0.1,0.1l0.1,0.1C180.5,278,180.5,278,180.6,278L180.6,278z"/>
							</g>
						</g>
						<g>
							<path class="st43" d="M180.8,277.8c-0.1,0-0.3,0.2-0.3,0.3l-0.6,1.9c0,0.1,0,0.2,0.2,0.2l1-0.2c0.1,0,0.3-0.2,0.3-0.3
								l0.6-1.9c0-0.1,0-0.2-0.2-0.2L180.8,277.8z"/>
						</g>
					</g>
					<path class="st30" d="M180.9,280c0,0.1,0.4,0.1,0.5,0c0.2-0.2,0.2-0.4,0.3-0.6c0.1-0.2,0.2-0.5,0.2-0.7c0-0.1,0-0.1,0-0.2
						l-0.1-0.2c0,0.1-0.1,0.3-0.2,0.4s-0.2,0-0.3,0.1c-0.1,0.1-0.2,0.4-0.3,0.6C180.9,279.6,180.9,279.8,180.9,280z"/>
				</g>
			</g>
			<g>
				<g>
					<g>
						<g>
							<g>
								<g>
									<g>
										<path class="st30" d="M262.2,236.6c-0.7-1.3-0.7-2.9-0.7-4.4c0-1.1,0.1-2.1,0.2-3.2c0.1-0.6,0.1-1.1,0.1-1.6
											c0-0.6-0.1-1.3-0.6-1.6c-0.5-0.3-1.1-0.5-1.7-0.5c-0.1,0.4-0.2,0.8-0.1,1.2c0,0.2,0.1,0.4,0.1,0.6c0,0.3,0,0.7,0,1
											c-0.2,1-0.1,1.8,0.1,2.6c0.3,0.9,0.7,2.1,0.6,3c-0.1,1-0.1,1.6,0.2,2.5c0.1,0.3,0.2,0.5,0.4,0.8c0.2,0.2,0.5,0.3,0.8,0.4
											c0.1,0,0.2,0.1,0.3,0.1c0.2,0,0.3-0.1,0.4-0.3c0.1-0.1,0.1-0.3,0-0.4L262.2,236.6z"/>
										<polygon class="st44" points="260.1,237.4 260.4,237.2 260.4,236.1 260,235.6 										"/>
										<path class="st45" d="M259.7,237.2l0.4,0.2v-1.5c0.1,0.1,0.2,0.3,0.2,0.4c0.1,0.6,0.3,1.5,0.5,1.6
											c0.7,0.4,1.7,0.3,1.9,0.1c0.2-0.2,0.4-1.1-0.5-1.5c-0.4,0.3-0.8,0.4-1.2,0.1s-0.6-0.8-0.7-1.3c-0.1-0.6-0.2-1.1-0.1-1.7
											c-0.4,0.2-0.8,0.6-0.8,1c0,0.2,0.1,0.3,0.1,0.5C259.7,235.8,259.7,237.2,259.7,237.2z"/>
									</g>
									<g>
										<path class="st30" d="M255.6,232.3c0.1-0.6,0.1-1.2,0.2-1.8c0.1-0.5,0.3-0.9,0.3-1.4c0-0.4,0-0.8-0.1-1.2
											c-0.2-0.8-0.5-1.7-0.1-2.6c0.2-0.6,1.3-0.2,1.7-0.1s0.5,0.1,0.6,0.6c0,0.3,0,0.6,0,0.9c0,0.8,0.1,1.6-0.1,2.3
											c-0.6,2.2-2,4.2-1.7,6.6l0.1,0.2c0.1,0.1,0,0.3-0.1,0.4s-0.3,0.2-0.5,0.1c-0.1,0-0.2-0.1-0.3-0.2
											c-0.2-0.2-0.5-0.4-0.6-0.7c-0.1-0.3-0.2-0.6-0.1-0.9c0-0.8,0.3-1.4,0.5-2.1C255.6,232.5,255.6,232.4,255.6,232.3z"/>
										<polygon class="st44" points="254.4,235.7 254.8,235.6 255,234.7 254.8,234.1 										"/>
										<path class="st45" d="M254.2,235.5l0.2,0.2l0.4-1.4c0.1,0.1,0,0.3,0,0.5c-0.1,0.6-0.1,1.6,0.1,1.8
											c0.5,0.6,1.4,0.8,1.8,0.5c0.2-0.1,0.6-0.8-0.2-1.4c-0.4,0.3-0.9,0.3-1.2-0.1c-0.2-0.4-0.2-1.2-0.2-1.7
											c0.1-0.6,0.2-1.1,0.5-1.6c-0.4,0.1-0.9,0.3-1,0.7c-0.1,0.2-0.1,0.3-0.1,0.5C254.5,234.2,254.2,235.5,254.2,235.5z"/>
									</g>
									<g>
										<g>
											<path class="st29" d="M256,228.6c-0.5,1.5-0.6,3.5-0.6,4.2c0.1,1,1,1,1.4,0.9c0.2-0.2,1.3-3.5,1.5-4.3
												c0.3-0.8,0.7-5,0.8-5.4c0.1,1.2,0.1,3.5,0.4,5.1c-0.2,1.4,0.5,3.7,0.7,4.6c0.1,0.5-0.1,0.7,0.4,0.8
												c0.3,0.1,0.9,0.2,1.1-0.1c0.2-0.2,0.1-0.6,0-0.9c0-0.4,0-0.8,0-1.1c0.1-1.5,0.4-2.9,0.4-4.4c0-0.5,0-1.1,0.1-1.6
												c0-0.6-0.1-6.4-0.3-6.4c-1.2,0.1-2.8,0.1-4,0.1c-0.5,0-1,0.2-1.5,0.3c-0.5,0.1-0.7-0.1-0.7,0.2c-0.1,1-0.1,2.1-0.1,3.1
												C255.5,224.6,255.9,228.3,256,228.6z"/>
											
												<linearGradient id="SVGID_6_" gradientUnits="userSpaceOnUse" x1="-94.5192" y1="266.3579" x2="-82.456" y2="266.3579" gradientTransform="matrix(-1 0 0 -1 170.8808 480)">
												<stop  offset="0" style="stop-color:#FFF47A"/>
												<stop  offset="1" style="stop-color:#FCF06B"/>
											</linearGradient>
											<path class="st46" d="M264.9,213.1l0.5-1.6l-3.1,0.7c-0.1-0.1-0.3-2.8-0.4-3.9c0-0.7-0.2-2-0.9-2.2s-1.2,0-1.9,0.3
												s-1.4,0.6-2.1,1c-1.2,0.7-2.5,1.7-2.8,3.1c-0.1,0.3-0.6,3.2-0.8,4.1c0,0.1,0.2,3.6,0.3,4s1.4,0.3,1.6-0.2
												c0-0.3-0.4-3.6-0.3-3.8l0.8-2.6c0,1.1,0,2.2,0,3.2s-0.1,2.7-0.2,3.7c0,0.3-0.1,0.6-0.1,0.9s0,0.6,0,1
												c0,0.3,1.6,0.6,4,0.4c1.6-0.2,2.5-0.8,2.4-1.2c0-0.6-0.5-4.5-0.7-6.4c0,0.1,0.1,0.2,0.2,0.2
												C261.6,214.1,264.7,213,264.9,213.1z"/>
											<path class="st47" d="M265.4,211.9c0.1,0,0.1,0.3,0,0.7c-0.1,0.4-0.3,0.6-0.4,0.6c-0.1,0-0.1-0.3,0-0.7
												C265.1,212.1,265.2,211.9,265.4,211.9z"/>
											<g>
												<path class="st30" d="M265,213.1C265.1,213.2,265,213.1,265,213.1L265,213.1z"/>
											</g>
										</g>
										<path class="st35" d="M256.6,207.7c0,0,1.9-1.1,3.1-1.4c0.2,0.1,0,0.8-0.2,1.4s-0.9,0.9-1.5,0.7
											C257.5,208.2,257,208,256.6,207.7z"/>
										<path class="st35" d="M259.2,205.1c-0.2,0-1.4,0.3-1.8,0.5c0,0.1,0.1,1.1,0.1,1.3c0,0.6-0.5,0.6-0.8,0.8
											c0,0,1.1,0.5,1.4,0.5c0.1,0,0.3-0.1,0.4-0.1c0.6-0.3,1.1-1.1,1.1-1.7C259.1,206.4,259.2,205.8,259.2,205.1z"/>
										<path class="st30" d="M256.6,203.6c0,0.2,0,0.4,0,0.6c0,0.6,0.3,1.1,0.6,1.4c0.4,0.4,0.8,1,1.5,0.8c1.2-0.3,1.3-2.1,1.3-3
											c0-0.6,0-1.2-0.3-1.7c-0.4-0.7-1.2-0.7-2-0.3C257,202,256.6,202.8,256.6,203.6z"/>
										<path class="st48" d="M260,204.6c0.2-2.5-0.6-3.1-0.6-3.1c-1.3,0.6-1.7,1.9-1.8,3.2c0,0.5,0.1,0.9,0.1,1.3
											c0.1,0.4,0.3,0.7,0.4,1.1c-0.4,0-0.9-0.6-1.2-1c-0.6-0.9-1.2-1.8-1.2-2.9c-0.1-1.4,0.1-2.9,1.4-3.4
											c0.4-0.2,0.8-0.1,1.2-0.1s0.6-0.2,1,0.1c0.4,0.3,0.7,0.7,0.9,1.2C260.7,202.8,260.3,203.8,260,204.6z"/>
									</g>
								</g>
							</g>
						</g>
					</g>
				</g>
				<g>
					<g class="st7">
						<g class="st7">
							<g class="st7">
								<path class="st39" d="M264.6,213.3l-0.1-0.1C264.5,213.3,264.5,213.3,264.6,213.3l0.1,0.1
									C264.6,213.4,264.6,213.4,264.6,213.3L264.6,213.3z"/>
							</g>
						</g>
						<g class="st7">
							<g class="st7">
								<path class="st39" d="M265.9,210.4l-0.1-0.1h-0.1L265.9,210.4C265.8,210.4,265.8,210.4,265.9,210.4L265.9,210.4z"/>
							</g>
						</g>
						<g>
							<polygon class="st40" points="264.6,211.3 264.5,211.2 264.5,213.2 264.6,213.3 							"/>
						</g>
						<g>
							<polygon class="st41" points="265.7,210.4 265.6,210.3 264.7,210.8 264.8,210.9 							"/>
						</g>
						<g class="st7">
							<g class="st7">
								<path class="st39" d="M264.8,210.9l-0.1-0.1c0,0-0.1,0-0.1,0.1H264.8C264.8,211,264.8,211,264.8,210.9L264.8,210.9z"/>
								<path class="st42" d="M264.7,211l-0.1-0.1l-0.1,0.1l0.1,0.1C264.7,211.1,264.7,211,264.7,211L264.7,211z"/>
								<path class="st39" d="M264.6,211.1l-0.1-0.1c0,0.1,0,0.1,0,0.2l0.1,0.1C264.6,211.2,264.6,211.2,264.6,211.1L264.6,211.1z"
									/>
							</g>
						</g>
						<g>
							<path class="st43" d="M264.8,210.9c-0.1,0.1-0.2,0.2-0.2,0.4v2c0,0.1,0.1,0.2,0.2,0.1l0.9-0.5c0.1-0.1,0.2-0.2,0.2-0.4v-2
								c0-0.1-0.1-0.2-0.2-0.1L264.8,210.9z"/>
						</g>
					</g>
					<path class="st30" d="M265.6,213c0,0.1,0.5,0,0.5-0.2c0.1-0.2,0.1-0.4,0.1-0.7c0-0.2,0.1-0.5,0-0.7c0-0.1-0.1-0.1-0.1-0.2
						l-0.2-0.2c0,0.1,0.1,0.3,0,0.4s-0.2,0-0.3,0.2s-0.1,0.5-0.1,0.7C265.5,212.6,265.5,212.8,265.6,213z"/>
				</g>
				<path class="st30" d="M254.9,218.4c0.1,0.4,0.9,0.6,0.9,0.8c0,0.2-0.6,0-0.6,0.2c-0.1,0.4,0.9,1.3,0.7,1.5s-0.8,0.4-1.1,0.2
					c-0.3-0.3-0.7-1.2-0.8-1.6C253.9,219.1,253.7,218.3,254.9,218.4z"/>
			</g>
			<g>
				<g>
					<path class="st49" d="M132.9,268.4c3.7,2.3,3.7,6.1,0,8.4s-9.7,2.3-13.4,0c-3.7-2.3-3.7-6.1,0-8.4
						C123.2,266,129.2,266,132.9,268.4z"/>
					<path class="st50" d="M116.9,265L116.9,265c0,5.6,4.1,10.2,9.2,10.2s9.2-4.6,9.2-10.2l0,0H116.9z"/>
					<g>
						<path class="st51" d="M132.7,261.4c3.6,2.3,3.6,5.9-0.1,8.2c-3.6,2.3-9.5,2.3-13.1,0.1c-3.6-2.3-3.6-5.9,0.1-8.2
							C123.3,259.2,129.2,259.2,132.7,261.4z"/>
						<path class="st50" d="M130.8,262.1c2.5,1.6,2.5,4.2-0.1,5.8c-2.6,1.6-6.7,1.6-9.2,0s-2.5-4.2,0.1-5.8
							C124.1,260.5,128.3,260.5,130.8,262.1z"/>
					</g>
					<path class="st52" d="M132.4,265.9c0,1.8-2.8,3.2-6.2,3.2s-6.2-1.4-6.2-3.2c0-1.8,2.8-3.2,6.2-3.2S132.4,264.1,132.4,265.9z"/>
				</g>
				<path class="st53" d="M123.7,267.6c1.8-0.7,3.4-3,3.9-4.9c0.8-2.8,1.3-5.6-0.3-8.3c-0.5-0.8-1.1-1.4-1.9-1.8
					c-0.5-0.3-1.3-0.3-1.7-0.7c-0.3-0.3-0.3-0.8-0.5-1.3c-0.3-0.8-0.8-1.6-1.4-2.2c-0.9-0.9-1.3-1-2.4-1.3c-0.7-0.2-1.3-0.5-1.9-0.6
					s-1.3,0-1.9-0.2c-1.5-0.5-1.3-2.1-1.6-3.4c0.4,0,0.9-0.1,1.3-0.2c-0.1,2.2,1.8,2.4,3.4,2.6c1.1,0.1,2.2,0.3,3.2,1
					c0.9,0.7,1.2,1.5,1.7,2.5s1.3,1.4,2.2,1.7c0.9,0.4,1.7,1.1,2.7,1.1c1.5,0.1,3.5-0.9,4.8-1.5c1.5-0.7,3.1-1.9,4.2-3.2
					c0.7-0.8,2.2-3.5,1.4-4.7c0.7-0.1,1.2-0.3,1.3,0.6c0.1,0.6,0,1.3,0,1.9c-0.1,1.3-0.6,2.5-1.5,3.5c-1.2,1.4-2.9,2.5-4.6,3.3
					c-0.7,0.3-1.4,0.7-2.1,1.1c-0.7,0.5-0.8,0.5-0.7,1.3c0.2,2.1,0,4.2-0.3,6.2c-0.3,2.1-0.5,4.3-1.4,6.2c-0.6,1.2-1.7,2.1-3,2.2
					C125.9,268.6,124.2,268.6,123.7,267.6L123.7,267.6z"/>
				<path class="st53" d="M119.9,245.9c0.4-0.3,0.4-1.4,0.3-1.8c0-0.7-0.4-1.2-0.7-1.8c0.6-0.2,1-0.1,1.3,0.5
					c0.3,0.7,0.4,1.6,0.5,2.4c0.1,0.5,0.1,0.9,0.1,1.4s0,0.7-0.4,0.5C120.5,246.9,120,246.5,119.9,245.9L119.9,245.9z"/>
				<path class="st54" d="M126.9,264.5c-0.6,0.6-1.2,1-1.9,1.3c-0.7,0.2-1.5,0.7-1.7,1.5c-0.6,1.8,2.6,1.9,3.5,1.7
					c0.8-0.2,1.7-0.5,2.3-1.3c0.3-0.4,1-1.5,0.8-2.1c-0.2-0.5-0.5-0.2-0.4-0.8c0.1-0.5,0.4-1,0.4-1.5c0-0.2-0.1-0.2-0.2-0.4
					c0-0.2,0.1-0.5,0.1-0.7s0.1-1.4-0.4-1c-0.1,0.1-0.1,0.6-0.2,0.7c-0.1,0.3-0.2,0.6-0.3,0.9c-0.2,0.3-0.3,0.6-0.5,0.9
					c-0.2,0.2-0.5,0.4-0.6,0.6c-0.2,0.3,0.1,0.5-0.3,0.6C127.1,264.9,127.1,264.4,126.9,264.5L126.9,264.5z"/>
				<path class="st53" d="M134.7,241.7c0,0.7-0.1,1.2,0.3,1.8c0.5,0.7,0.7,1.4,0.7,2.2c0,0.8,0,1.6-0.2,2.3
					c-0.1,0.3-0.2,0.6-0.4,0.9c-0.2,0.3-0.4,0.5-0.6,0.8c1.2,0,2.1-0.8,2.3-2.1c0.1-0.8,0.1-1.6,0.2-2.4c-0.5-0.2-1-1.2-1.2-1.7
					c-0.2-0.3-0.4-0.7-0.4-1.1c-0.1-0.4,0.2-0.7,0.3-1.1C135.4,241.4,134.6,241.4,134.7,241.7L134.7,241.7z"/>
				<path class="st53" d="M139.9,245.9c1-0.2,1.9-0.3,2.8-0.9c0.4-0.2,0.6-0.6,1-0.8c0.3-0.3,0.3-0.1,0.5,0.3
					c-1.3,1.2-3,2.3-4.7,2.2C139.6,246.4,140,246.1,139.9,245.9L139.9,245.9z"/>
				<path class="st52" d="M107.9,227.7c-1-0.1-1.3,1.5-1.6,2.1c-0.1,0.3-0.4,0.4-0.6,0.6c-0.4,0.5-0.6,1.2-0.7,1.8
					c-0.9,3.1-0.4,7.2,1.8,9.5c1.9,2,5.2,3.6,7.9,2.9c0.3-0.1,1-0.5,1.2-0.5s0.2,0.3,0.4,0.5c0.6,0.6,1.9,0.5,2.6,0.5
					c0.5,0,0.8-0.2,1.2-0.4c0.4-0.2,0.3-0.1,0.7-0.1c1.3,0.2,2.3-0.3,3.4-1c3.1-1.8,5.5-5.2,5.5-9.1c0-3.3-2.3-6.2-4.8-7.7
					c-1.6-1-3.4-1.6-5.3-2c-1.6-0.4-3.5-0.6-5.2-0.3c-1.7,0.3-3.6,0.8-5.1,1.8C108.9,226.6,108.4,227.5,107.9,227.7L107.9,227.7z"/>
				<path class="st55" d="M124.9,226.7c-0.2-0.1-0.5-0.3-0.7-0.4c0,0.7-0.2,1.5-0.4,2.2c-0.7,2.1-2.1,4-3.7,5.4
					c-0.8,0.7-1.6,1.3-2.5,1.7c-1,0.5-2,0.8-3,0.9c-1.1,0.2-2.1,0.2-3.2,0.1c-1-0.1-2-0.4-3-0.9c-0.9-0.5-1.8-1.3-2.5-2.1
					c-0.2-0.2-0.3-0.4-0.5-0.7c-0.2-0.2-0.3-0.4-0.4-0.7l0,0v0.1c-0.9,3.1-0.4,7.2,1.8,9.5c1.9,2,5.2,3.6,7.9,2.9
					c0.3-0.1,1-0.5,1.2-0.5s0.2,0.3,0.4,0.5c0.6,0.6,1.9,0.5,2.6,0.5c0.5,0,0.8-0.2,1.2-0.4c0.4-0.2,0.3-0.1,0.7-0.1
					c1.3,0.2,2.3-0.3,3.4-1c3.1-1.8,5.5-5.2,5.5-9.1C129.8,231,127.5,228.2,124.9,226.7z"/>
				<path class="st56" d="M131.8,225.3c-0.9-0.3-1.5,1.2-2,1.7c-0.2,0.2-0.4,0.3-0.6,0.5c-0.4,0.4-0.8,1-1,1.6
					c-1.4,2.8-1.6,7,0.2,9.7c1.6,2.4,4.5,4.6,7.3,4.4c0.3,0,1.1-0.3,1.3-0.2c0.2,0.1,0.2,0.3,0.3,0.6c0.5,0.7,1.8,0.8,2.5,1
					c0.5,0.1,0.8,0,1.3-0.2c0.4-0.1,0.3-0.1,0.7,0c1.3,0.5,2.3,0.1,3.5-0.3c3.3-1.2,6.2-4,6.9-7.9c0.6-3.3-1.2-6.5-3.5-8.5
					c-1.5-1.3-3.1-2.2-4.8-3c-1.5-0.7-3.3-1.3-5-1.3s-3.7,0.1-5.3,0.8C133,224.4,132.4,225.2,131.8,225.3L131.8,225.3z"/>
				<path class="st55" d="M148.8,227.6c-0.2-0.2-0.4-0.4-0.6-0.5c-0.1,0.7-0.4,1.4-0.7,2.1c-1,2-2.7,3.5-4.6,4.6
					c-0.9,0.5-1.8,0.9-2.8,1.2c-1,0.3-2.1,0.4-3.1,0.3c-1.1,0-2.1-0.2-3.1-0.6c-1-0.3-1.9-0.8-2.8-1.5c-0.8-0.7-1.5-1.6-2.1-2.6
					c-0.1-0.2-0.3-0.5-0.4-0.7s-0.2-0.5-0.3-0.8c0,0,0,0,0-0.1v0.1c-1.4,2.8-1.6,7,0.2,9.7c1.6,2.4,4.5,4.6,7.3,4.4
					c0.3,0,1.1-0.3,1.3-0.2c0.2,0.1,0.2,0.3,0.3,0.6c0.5,0.7,1.8,0.8,2.5,1c0.5,0.1,0.8,0,1.3-0.2c0.4-0.1,0.3-0.1,0.7,0
					c1.3,0.5,2.3,0.1,3.5-0.3c3.3-1.2,6.2-4,6.9-7.9C152.8,232.8,151,229.6,148.8,227.6z"/>
				<g>
					<path class="st56" d="M120.2,209.1c-1.1-0.4-2,1.8-2.5,2.7c-0.2,0.3-0.5,0.5-0.8,0.8c-0.6,0.6-1,1.6-1.3,2.4
						c-1.9,4.3-2.3,10.4-0.2,14.3c1.8,3.4,5.4,6.5,8.9,6.1c0.4,0,1.3-0.5,1.6-0.4c0.3,0.1,0.2,0.5,0.4,0.8c0.6,1.1,2.2,1.1,3.1,1.3
						c0.6,0.1,1,0,1.6-0.3c0.5-0.2,0.4-0.1,0.9,0c1.6,0.6,2.8,0.1,4.4-0.7c4.2-1.9,7.9-6.3,8.9-12c0.9-4.9-1.2-9.6-4-12.4
						c-1.8-1.8-3.8-3.1-5.9-4.1c-1.9-0.9-4.1-1.8-6.2-1.7c-2.1,0-4.6,0.3-6.6,1.4C121.7,207.7,120.9,208.9,120.2,209.1L120.2,209.1z
						"/>
					<path class="st55" d="M141.2,211.7c-0.3-0.3-0.5-0.5-0.8-0.8c-0.2,1.1-0.6,2.1-1,3.1c-1.4,3-3.6,5.3-5.9,7
						c-1.1,0.8-2.3,1.5-3.5,1.9c-1.3,0.4-2.6,0.6-3.9,0.6s-2.6-0.2-3.9-0.7c-1.2-0.4-2.4-1.1-3.4-2c-1-1-1.8-2.3-2.5-3.7
						c-0.2-0.4-0.3-0.7-0.4-1.1s-0.3-0.7-0.4-1.1v-0.1c0,0,0,0.1-0.1,0.1c-1.9,4.3-2.3,10.4-0.2,14.3c1.8,3.4,5.4,6.5,8.9,6.1
						c0.4,0,1.3-0.5,1.6-0.4c0.3,0.1,0.2,0.5,0.4,0.8c0.6,1.1,2.2,1.1,3.1,1.3c0.6,0.1,1,0,1.6-0.3c0.5-0.2,0.4-0.1,0.9,0
						c1.6,0.6,2.8,0.1,4.4-0.7c4.2-1.9,7.9-6.3,8.9-12C146.1,219.2,144,214.5,141.2,211.7z"/>
				</g>
			</g>
			<g>
				<g>
					<path class="st49" d="M267.7,188.8c3.7,2.3,3.7,6.1,0,8.4s-9.7,2.3-13.4,0s-3.7-6.1,0-8.4C258,186.4,264,186.4,267.7,188.8z"/>
					<path class="st50" d="M251.7,185.4L251.7,185.4c0,5.6,4.1,10.2,9.2,10.2c5.1,0,9.2-4.6,9.2-10.2l0,0H251.7z"/>
					<g>
						<path class="st51" d="M267.5,181.8c3.6,2.3,3.6,5.9-0.1,8.2c-3.6,2.3-9.5,2.3-13.1,0.1c-3.6-2.3-3.6-5.9,0.1-8.2
							C258.1,179.6,264,179.6,267.5,181.8z"/>
						<path class="st50" d="M265.6,182.5c2.5,1.6,2.5,4.2-0.1,5.8c-2.6,1.6-6.7,1.6-9.2,0s-2.5-4.2,0.1-5.8
							C258.9,180.9,263.1,180.9,265.6,182.5z"/>
					</g>
					<path class="st52" d="M267.2,186.3c0,1.8-2.8,3.2-6.2,3.2s-6.2-1.4-6.2-3.2c0-1.8,2.8-3.2,6.2-3.2
						C264.4,183.1,267.2,184.5,267.2,186.3z"/>
				</g>
				<path class="st53" d="M258.5,188.1c1.8-0.7,3.4-3,3.9-4.9c0.8-2.8,1.3-5.6-0.3-8.3c-0.5-0.8-1.1-1.4-1.9-1.8
					c-0.5-0.3-1.3-0.3-1.7-0.7c-0.3-0.3-0.3-0.8-0.5-1.3c-0.3-0.8-0.8-1.6-1.4-2.2c-0.9-0.9-1.3-1-2.4-1.3c-0.7-0.2-1.3-0.5-1.9-0.6
					c-0.6-0.1-1.3,0-1.9-0.2c-1.5-0.5-1.3-2.1-1.6-3.4c0.4,0,0.9-0.1,1.3-0.2c-0.1,2.2,1.8,2.4,3.4,2.6c1.1,0.1,2.2,0.3,3.2,1
					c0.9,0.7,1.2,1.5,1.7,2.5s1.3,1.4,2.2,1.7c0.9,0.4,1.7,1.1,2.7,1.1c1.5,0.1,3.5-0.9,4.8-1.5c1.5-0.7,3.1-1.9,4.2-3.2
					c0.7-0.8,2.2-3.5,1.4-4.7c0.7-0.1,1.2-0.3,1.3,0.6c0.1,0.6,0,1.3,0,1.9c-0.1,1.3-0.6,2.5-1.5,3.5c-1.2,1.4-2.9,2.5-4.6,3.3
					c-0.7,0.3-1.4,0.7-2.1,1.1c-0.7,0.5-0.8,0.5-0.7,1.3c0.2,2.1,0,4.2-0.3,6.2c-0.3,2.1-0.5,4.3-1.5,6.2c-0.6,1.2-1.7,2.1-3,2.2
					C260.7,189,259,189,258.5,188.1L258.5,188.1z"/>
				<path class="st53" d="M254.7,166.3c0.4-0.3,0.4-1.4,0.3-1.8c0-0.7-0.4-1.2-0.7-1.8c0.6-0.2,1-0.1,1.3,0.5
					c0.3,0.7,0.4,1.6,0.5,2.4c0.1,0.5,0.1,0.9,0.1,1.4s0,0.7-0.4,0.5C255.3,167.3,254.8,166.9,254.7,166.3L254.7,166.3z"/>
				<path class="st54" d="M261.7,184.9c-0.6,0.6-1.2,1-1.9,1.3c-0.7,0.2-1.5,0.7-1.7,1.5c-0.6,1.8,2.6,1.9,3.5,1.7
					c0.8-0.2,1.7-0.5,2.3-1.3c0.3-0.4,1-1.5,0.8-2.1c-0.2-0.5-0.5-0.2-0.4-0.8c0.1-0.5,0.4-1,0.4-1.5c0-0.2-0.1-0.2-0.2-0.4
					c0-0.2,0.1-0.5,0.1-0.7s0.1-1.4-0.4-1c-0.1,0.1-0.1,0.6-0.2,0.7c-0.1,0.3-0.2,0.6-0.3,0.9c-0.2,0.3-0.3,0.6-0.5,0.9
					c-0.2,0.2-0.5,0.4-0.6,0.6c-0.2,0.3,0.1,0.5-0.3,0.6C261.9,185.3,261.9,184.8,261.7,184.9L261.7,184.9z"/>
				<path class="st53" d="M269.5,162.1c0,0.7-0.1,1.2,0.3,1.8c0.5,0.7,0.7,1.4,0.7,2.2c0,0.8,0,1.6-0.2,2.3
					c-0.1,0.3-0.2,0.6-0.4,0.9s-0.4,0.5-0.6,0.8c1.2,0,2.1-0.8,2.3-2.1c0.1-0.8,0.1-1.6,0.2-2.4c-0.5-0.2-1-1.2-1.2-1.7
					c-0.2-0.3-0.4-0.7-0.4-1.1c-0.1-0.4,0.2-0.7,0.3-1.1C270.2,161.8,269.4,161.8,269.5,162.1L269.5,162.1z"/>
				<path class="st53" d="M274.7,166.3c1-0.2,1.9-0.3,2.8-0.9c0.4-0.2,0.6-0.6,1-0.8c0.3-0.3,0.3-0.1,0.5,0.3
					c-1.3,1.2-3,2.3-4.7,2.2C274.4,166.8,274.8,166.5,274.7,166.3L274.7,166.3z"/>
				<path class="st52" d="M242.7,148.1c-1-0.1-1.3,1.5-1.6,2.1c-0.1,0.3-0.4,0.4-0.6,0.6c-0.4,0.5-0.6,1.2-0.7,1.8
					c-0.9,3.1-0.4,7.2,1.8,9.5c1.9,2,5.2,3.6,7.9,2.9c0.3-0.1,1-0.5,1.2-0.5s0.2,0.3,0.4,0.5c0.6,0.6,1.9,0.5,2.6,0.5
					c0.5,0,0.8-0.2,1.2-0.4c0.4-0.2,0.3-0.1,0.7-0.1c1.3,0.2,2.3-0.3,3.4-1c3.1-1.8,5.5-5.2,5.5-9.1c0-3.3-2.3-6.2-4.8-7.7
					c-1.6-1-3.4-1.6-5.3-2c-1.6-0.4-3.5-0.6-5.2-0.3c-1.7,0.3-3.6,0.8-5.1,1.8C243.7,147,243.2,147.9,242.7,148.1L242.7,148.1z"/>
				<path class="st55" d="M259.7,147.1c-0.2-0.1-0.5-0.3-0.7-0.4c0,0.7-0.2,1.5-0.4,2.2c-0.7,2.1-2.1,4-3.7,5.4
					c-0.8,0.7-1.6,1.3-2.5,1.7c-1,0.5-2,0.8-3,0.9c-1.1,0.2-2.1,0.2-3.2,0.1c-1-0.1-2-0.4-3-0.9c-0.9-0.5-1.8-1.3-2.5-2.1
					c-0.2-0.2-0.3-0.4-0.5-0.7c-0.2-0.2-0.3-0.4-0.4-0.7l0,0v0.1c-0.9,3.1-0.4,7.2,1.8,9.5c1.9,2,5.2,3.6,7.9,2.9
					c0.3-0.1,1-0.5,1.2-0.5s0.2,0.3,0.4,0.5c0.6,0.6,1.9,0.5,2.6,0.5c0.5,0,0.8-0.2,1.2-0.4c0.4-0.2,0.3-0.1,0.7-0.1
					c1.3,0.2,2.3-0.3,3.4-1c3.1-1.8,5.5-5.2,5.5-9.1C264.6,151.4,262.3,148.6,259.7,147.1z"/>
				<path class="st56" d="M266.6,145.7c-0.9-0.3-1.5,1.2-2,1.7c-0.2,0.2-0.4,0.3-0.6,0.5c-0.4,0.4-0.8,1-1,1.6
					c-1.4,2.8-1.6,7,0.2,9.7c1.6,2.4,4.5,4.6,7.3,4.4c0.3,0,1.1-0.3,1.3-0.2c0.2,0.1,0.2,0.3,0.3,0.6c0.5,0.7,1.8,0.8,2.5,1
					c0.5,0.1,0.8,0,1.3-0.2c0.4-0.1,0.3-0.1,0.7,0c1.3,0.5,2.3,0.1,3.5-0.3c3.3-1.2,6.2-4,6.9-7.9c0.6-3.3-1.2-6.5-3.5-8.5
					c-1.5-1.3-3.1-2.2-4.8-3c-1.5-0.7-3.3-1.3-5-1.3s-3.7,0.1-5.3,0.8C267.8,144.8,267.2,145.6,266.6,145.7L266.6,145.7z"/>
				<path class="st55" d="M283.6,148c-0.2-0.2-0.4-0.4-0.6-0.5c-0.1,0.7-0.4,1.4-0.7,2.1c-1,2-2.7,3.5-4.6,4.6
					c-0.9,0.5-1.8,0.9-2.8,1.2c-1,0.3-2.1,0.4-3.1,0.3c-1.1,0-2.1-0.2-3.1-0.6c-1-0.3-1.9-0.8-2.8-1.5c-0.8-0.7-1.5-1.6-2.1-2.6
					c-0.1-0.2-0.3-0.5-0.4-0.7c-0.1-0.2-0.2-0.5-0.3-0.8c0,0,0,0,0-0.1v0.1c-1.4,2.8-1.6,7,0.2,9.7c1.6,2.4,4.5,4.6,7.3,4.4
					c0.3,0,1.1-0.3,1.3-0.2c0.2,0.1,0.2,0.3,0.3,0.6c0.5,0.7,1.8,0.8,2.5,1c0.5,0.1,0.8,0,1.3-0.2c0.4-0.1,0.3-0.1,0.7,0
					c1.3,0.5,2.3,0.1,3.5-0.3c3.3-1.2,6.2-4,6.9-7.9C287.6,153.3,285.8,150,283.6,148z"/>
				<g>
					<path class="st56" d="M255,129.5c-1.1-0.4-2,1.8-2.5,2.7c-0.2,0.3-0.5,0.5-0.8,0.8c-0.6,0.6-1,1.6-1.3,2.4
						c-1.9,4.3-2.3,10.4-0.2,14.3c1.8,3.4,5.4,6.5,8.9,6.1c0.4,0,1.3-0.5,1.6-0.4s0.2,0.5,0.4,0.8c0.6,1.1,2.2,1.1,3.1,1.3
						c0.6,0.1,1,0,1.6-0.3c0.5-0.2,0.4-0.1,0.9,0c1.6,0.6,2.8,0.1,4.4-0.7c4.2-1.9,7.9-6.3,8.9-12c0.9-4.9-1.2-9.6-4-12.4
						c-1.8-1.8-3.8-3.1-5.9-4.1c-1.9-0.9-4.1-1.8-6.2-1.7c-2.1,0-4.6,0.3-6.6,1.4C256.5,128.1,255.7,129.3,255,129.5L255,129.5z"/>
					<path class="st55" d="M276,132.1c-0.3-0.3-0.5-0.5-0.8-0.8c-0.2,1.1-0.6,2.1-1,3.1c-1.4,3-3.6,5.3-5.9,7
						c-1.1,0.8-2.3,1.5-3.5,1.9c-1.3,0.4-2.6,0.6-3.9,0.6c-1.3,0-2.6-0.2-3.9-0.7c-1.2-0.4-2.4-1.1-3.4-2c-1-1-1.8-2.3-2.5-3.7
						c-0.2-0.4-0.3-0.7-0.4-1.1c-0.1-0.4-0.3-0.7-0.4-1.1v-0.1c0,0,0,0.1-0.1,0.1c-1.9,4.3-2.3,10.4-0.2,14.3
						c1.8,3.4,5.4,6.5,8.9,6.1c0.4,0,1.3-0.5,1.6-0.4s0.2,0.5,0.4,0.8c0.6,1.1,2.2,1.1,3.1,1.3c0.6,0.1,1,0,1.6-0.3
						c0.5-0.2,0.4-0.1,0.9,0c1.6,0.6,2.8,0.1,4.4-0.7c4.2-1.9,7.9-6.3,8.9-12C280.9,139.6,278.8,134.9,276,132.1z"/>
				</g>
			</g>
			<g>
				<g>
					<path class="st49" d="M201.3,227.7c3.7,2.3,3.7,6.1,0,8.4s-9.7,2.3-13.4,0c-3.7-2.3-3.7-6.1,0-8.4
						C191.6,225.4,197.6,225.4,201.3,227.7z"/>
					<path class="st50" d="M185.4,224.4L185.4,224.4c0,5.6,4.1,10.2,9.2,10.2s9.2-4.6,9.2-10.2l0,0H185.4z"/>
					<g>
						<path class="st51" d="M201.2,220.8c3.6,2.3,3.6,5.9-0.1,8.2c-3.6,2.3-9.5,2.3-13.1,0.1c-3.6-2.3-3.6-5.9,0.1-8.2
							C191.8,218.5,197.6,218.5,201.2,220.8z"/>
						<path class="st50" d="M199.3,221.5c2.5,1.6,2.5,4.2-0.1,5.8c-2.6,1.6-6.7,1.6-9.2,0s-2.5-4.2,0.1-5.8
							C192.6,219.9,196.7,219.9,199.3,221.5z"/>
					</g>
					<path class="st52" d="M200.8,225.2c0,1.8-2.8,3.2-6.2,3.2c-3.4,0-6.2-1.4-6.2-3.2c0-1.8,2.8-3.2,6.2-3.2
						C198.1,222,200.8,223.5,200.8,225.2z"/>
				</g>
				<path class="st53" d="M192.2,227c1.8-0.7,3.4-3,3.9-4.9c0.8-2.8,1.3-5.6-0.3-8.3c-0.5-0.8-1.1-1.4-1.9-1.8
					c-0.5-0.3-1.3-0.3-1.7-0.7c-0.3-0.3-0.3-0.8-0.5-1.3c-0.3-0.8-0.8-1.6-1.4-2.2c-0.9-0.9-1.3-1-2.4-1.3c-0.7-0.2-1.3-0.5-1.9-0.6
					s-1.3,0-1.9-0.2c-1.5-0.5-1.3-2.1-1.6-3.4c0.4,0,0.9-0.1,1.3-0.2c-0.1,2.2,1.8,2.4,3.4,2.6c1.1,0.1,2.2,0.3,3.2,1
					c0.9,0.7,1.2,1.5,1.7,2.5s1.3,1.4,2.2,1.7c0.9,0.4,1.7,1.1,2.7,1.1c1.5,0.1,3.5-0.9,4.8-1.5c1.5-0.7,3.1-1.9,4.2-3.2
					c0.7-0.8,2.2-3.5,1.4-4.7c0.7-0.1,1.2-0.3,1.3,0.6c0.1,0.6,0,1.3,0,1.9c-0.1,1.3-0.6,2.5-1.5,3.5c-1.2,1.4-2.9,2.5-4.6,3.3
					c-0.7,0.3-1.4,0.7-2.1,1.1c-0.7,0.5-0.8,0.5-0.7,1.3c0.2,2.1,0,4.2-0.3,6.2c-0.3,2.1-0.5,4.3-1.4,6.2c-0.6,1.2-1.7,2.1-3,2.2
					C194.4,228,192.7,227.9,192.2,227L192.2,227z"/>
				<path class="st53" d="M188.4,205.2c0.4-0.3,0.4-1.4,0.3-1.8c0-0.7-0.4-1.2-0.7-1.8c0.6-0.2,1-0.1,1.3,0.5
					c0.3,0.7,0.4,1.6,0.5,2.4c0.1,0.5,0.1,0.9,0.1,1.4s0,0.7-0.4,0.5C189,206.2,188.5,205.8,188.4,205.2L188.4,205.2z"/>
				<path class="st54" d="M195.4,223.8c-0.6,0.6-1.2,1-1.9,1.3c-0.7,0.2-1.5,0.7-1.7,1.5c-0.6,1.8,2.6,1.9,3.5,1.7
					c0.8-0.2,1.7-0.5,2.3-1.3c0.3-0.4,1-1.5,0.8-2.1c-0.2-0.5-0.5-0.2-0.4-0.8c0.1-0.5,0.4-1,0.4-1.5c0-0.2-0.1-0.2-0.2-0.4
					c0-0.2,0.1-0.5,0.1-0.7s0.1-1.4-0.4-1c-0.1,0.1-0.1,0.6-0.2,0.7c-0.1,0.3-0.2,0.6-0.3,0.9c-0.2,0.3-0.3,0.6-0.5,0.9
					c-0.2,0.2-0.5,0.4-0.6,0.6c-0.2,0.3,0.1,0.5-0.3,0.6C195.6,224.2,195.6,223.8,195.4,223.8L195.4,223.8z"/>
				<path class="st53" d="M203.1,201c0,0.7-0.1,1.2,0.3,1.8c0.5,0.7,0.7,1.4,0.7,2.2c0,0.8,0,1.6-0.2,2.3c-0.1,0.3-0.2,0.6-0.4,0.9
					c-0.2,0.3-0.4,0.5-0.6,0.8c1.2,0,2.1-0.8,2.3-2.1c0.1-0.8,0.1-1.6,0.2-2.4c-0.5-0.2-1-1.2-1.2-1.7c-0.2-0.3-0.4-0.7-0.4-1.1
					c-0.1-0.4,0.2-0.7,0.3-1.1C203.9,200.8,203.1,200.7,203.1,201L203.1,201z"/>
				<path class="st53" d="M208.4,205.2c1-0.2,1.9-0.3,2.8-0.9c0.4-0.2,0.6-0.6,1-0.8c0.3-0.3,0.3-0.1,0.5,0.3
					c-1.3,1.2-3,2.3-4.7,2.2C208.1,205.7,208.5,205.4,208.4,205.2L208.4,205.2z"/>
				<path class="st52" d="M176.3,187.1c-1-0.1-1.3,1.5-1.6,2.1c-0.1,0.3-0.4,0.4-0.6,0.6c-0.4,0.5-0.6,1.2-0.7,1.8
					c-0.9,3.1-0.4,7.2,1.8,9.5c1.9,2,5.2,3.6,7.9,2.9c0.3-0.1,1-0.5,1.2-0.5s0.2,0.3,0.4,0.5c0.6,0.6,1.9,0.5,2.6,0.5
					c0.5,0,0.8-0.2,1.2-0.4c0.4-0.2,0.3-0.1,0.7-0.1c1.3,0.2,2.3-0.3,3.4-1c3.1-1.8,5.5-5.2,5.5-9.1c0-3.3-2.3-6.2-4.8-7.7
					c-1.6-1-3.4-1.6-5.3-2c-1.6-0.4-3.5-0.6-5.2-0.3c-1.7,0.3-3.6,0.8-5.1,1.8C177.3,185.9,176.8,186.9,176.3,187.1L176.3,187.1z"/>
				<path class="st55" d="M193.4,186c-0.2-0.1-0.5-0.3-0.7-0.4c0,0.7-0.2,1.5-0.4,2.2c-0.7,2.1-2.1,4-3.7,5.4
					c-0.8,0.7-1.6,1.3-2.5,1.7c-1,0.5-2,0.8-3,0.9c-1.1,0.2-2.1,0.2-3.2,0.1c-1-0.1-2-0.4-3-0.9c-0.9-0.5-1.8-1.3-2.5-2.1
					c-0.2-0.2-0.3-0.4-0.5-0.7c-0.2-0.2-0.3-0.4-0.4-0.7l0,0v0.1c-0.9,3.1-0.4,7.2,1.8,9.5c1.9,2,5.2,3.6,7.9,2.9
					c0.3-0.1,1-0.5,1.2-0.5s0.2,0.3,0.4,0.5c0.6,0.6,1.9,0.5,2.6,0.5c0.5,0,0.8-0.2,1.2-0.4c0.4-0.2,0.3-0.1,0.7-0.1
					c1.3,0.2,2.3-0.3,3.4-1c3.1-1.8,5.5-5.2,5.5-9.1C198.2,190.4,195.9,187.6,193.4,186z"/>
				<path class="st56" d="M200.3,184.7c-0.9-0.3-1.5,1.2-2,1.7c-0.2,0.2-0.4,0.3-0.6,0.5c-0.4,0.4-0.8,1-1,1.6
					c-1.4,2.8-1.6,7,0.2,9.7c1.6,2.4,4.5,4.6,7.3,4.4c0.3,0,1.1-0.3,1.3-0.2c0.2,0.1,0.2,0.3,0.3,0.6c0.5,0.7,1.8,0.8,2.5,1
					c0.5,0.1,0.8,0,1.3-0.2c0.4-0.1,0.3-0.1,0.7,0c1.3,0.5,2.3,0.1,3.5-0.3c3.3-1.2,6.2-4,6.9-7.9c0.6-3.3-1.2-6.5-3.5-8.5
					c-1.5-1.3-3.1-2.2-4.8-3c-1.5-0.7-3.3-1.3-5-1.3s-3.7,0.1-5.3,0.8C201.5,183.7,200.8,184.6,200.3,184.7L200.3,184.7z"/>
				<path class="st55" d="M217.2,187c-0.2-0.2-0.4-0.4-0.6-0.5c-0.1,0.7-0.4,1.4-0.7,2.1c-1,2-2.7,3.5-4.6,4.6
					c-0.9,0.5-1.8,0.9-2.8,1.2c-1,0.3-2.1,0.4-3.1,0.3c-1.1,0-2.1-0.2-3.1-0.6c-1-0.3-1.9-0.8-2.8-1.5c-0.8-0.7-1.5-1.6-2.1-2.6
					c-0.1-0.2-0.3-0.5-0.4-0.7s-0.2-0.5-0.3-0.8c0,0,0,0,0-0.1v0.1c-1.4,2.8-1.6,7,0.2,9.7c1.6,2.4,4.5,4.6,7.3,4.4
					c0.3,0,1.1-0.3,1.3-0.2c0.2,0.1,0.2,0.3,0.3,0.6c0.5,0.7,1.8,0.8,2.5,1c0.5,0.1,0.8,0,1.3-0.2c0.4-0.1,0.3-0.1,0.7,0
					c1.3,0.5,2.3,0.1,3.5-0.3c3.3-1.2,6.2-4,6.9-7.9C221.3,192.2,219.5,189,217.2,187z"/>
				<g>
					<path class="st56" d="M188.7,168.4c-1.1-0.4-2,1.8-2.5,2.7c-0.2,0.3-0.5,0.5-0.8,0.8c-0.6,0.6-1,1.6-1.3,2.4
						c-1.9,4.3-2.3,10.4-0.2,14.3c1.8,3.4,5.4,6.5,8.9,6.1c0.4,0,1.3-0.5,1.6-0.4c0.3,0.1,0.2,0.5,0.4,0.8c0.6,1.1,2.2,1.1,3.1,1.3
						c0.6,0.1,1,0,1.6-0.3c0.5-0.2,0.4-0.1,0.9,0c1.6,0.6,2.8,0.1,4.4-0.7c4.2-1.9,7.9-6.3,8.9-12c0.9-4.9-1.2-9.6-4-12.4
						c-1.8-1.8-3.8-3.1-5.9-4.1c-1.9-0.9-4.1-1.8-6.2-1.7c-2.1,0-4.6,0.3-6.6,1.4C190.2,167,189.3,168.3,188.7,168.4L188.7,168.4z"
						/>
					<path class="st55" d="M209.7,171c-0.3-0.3-0.5-0.5-0.8-0.8c-0.2,1.1-0.6,2.1-1,3.1c-1.4,3-3.6,5.3-5.9,7
						c-1.1,0.8-2.3,1.5-3.5,1.9c-1.3,0.4-2.6,0.6-3.9,0.6s-2.6-0.2-3.9-0.7c-1.2-0.4-2.4-1.1-3.4-2c-1-1-1.8-2.3-2.5-3.7
						c-0.2-0.4-0.3-0.7-0.4-1.1s-0.3-0.7-0.4-1.1v-0.1c0,0,0,0.1-0.1,0.1c-1.9,4.3-2.3,10.4-0.2,14.3c1.8,3.4,5.4,6.5,8.9,6.1
						c0.4,0,1.3-0.5,1.6-0.4c0.3,0.1,0.2,0.5,0.4,0.8c0.6,1.1,2.2,1.1,3.1,1.3c0.6,0.1,1,0,1.6-0.3c0.5-0.2,0.4-0.1,0.9,0
						c1.6,0.6,2.8,0.1,4.4-0.7c4.2-1.9,7.9-6.3,8.9-12C214.6,178.6,212.5,173.9,209.7,171z"/>
				</g>
			</g>
			<g>
				<g>
					<g class="st7">
						<g>
							<polygon class="st24" points="221.3,247.9 222.3,247.3 222.2,251.9 221.3,252.5 							"/>
						</g>
						<g>
							<polygon class="st24" points="238.5,257.8 239.5,257.2 239.5,261.8 238.5,262.3 							"/>
						</g>
						<g>
							<polygon class="st24" points="221.4,210.3 222.4,209.7 222.3,214.9 221.4,215.4 							"/>
						</g>
						<g>
							<polygon class="st57" points="221.4,215.4 222.3,214.9 238.3,224.1 237.4,224.6 							"/>
						</g>
						<g>
							<polygon class="st24" points="241.3,227.9 242.2,227.3 242.2,257.8 241.3,258.4 							"/>
						</g>
						<g>
							<polygon class="st57" points="238.5,225.3 239.5,224.8 241.4,225.9 240.5,226.4 							"/>
						</g>
						<g>
							<polygon class="st58" points="240.5,226.4 241.4,225.9 242.2,227.3 241.3,227.9 							"/>
						</g>
						<g>
							<polygon class="st24" points="238.6,220.6 239.5,220.1 239.5,224.8 238.5,225.3 							"/>
						</g>
						<path class="st26" d="M239.9,219.1c-0.1-0.1-0.2-0.3-0.4-0.4c-2.8-3.1-5.9-5.6-9-7.4c-5.1-3-10.3-3.9-13.9-2l-0.9,0.5
							c3.6-1.9,8.8-0.9,13.9,2c3.1,1.8,6.2,4.3,9,7.4c0.1,0.1,0.2,0.3,0.4,0.4c1.7,1.9,3.2,4,4.5,6.2l0.9-0.5
							C243.1,223.1,241.5,221,239.9,219.1z"/>
						<g class="st7">
							<g class="st7">
								<path class="st26" d="M243.4,225.8l0.9-0.5l0,0L243.4,225.8C243.5,225.9,243.4,225.8,243.4,225.8L243.4,225.8z"/>
								<path class="st59" d="M243.5,225.9l0.9-0.5c0.1,0.2,0,0.3-0.2,0.4l-0.9,0.5C243.4,226.2,243.5,226,243.5,225.9L243.5,225.9z
									"/>
							</g>
						</g>
						<g>
							<path class="st25" d="M243.4,225.8c0.2,0.3-0.6,0.6-0.7,0.5c-1.2-2.1-2.6-4-4.1-5.7v4.7l1.9,1.1l0.8,1.4v30.5l-0.8,0.5
								l-1.9-1.1v4.6l-1.2-0.7V257l-16-9.2v4.6l-1.2-0.7l0.1-41.5c-1.4,0-2.7,0.3-3.8,0.9c-0.4-0.2-1-1.3-0.8-1.4
								c3.6-1.9,8.8-0.9,13.9,2c3.1,1.8,6.2,4.3,9,7.4C240.4,221.2,242,223.4,243.4,225.8z M237.4,224.6v-5.3
								c-2.4-2.6-5.1-4.7-7.8-6.3c-2.8-1.6-5.6-2.6-8.1-2.8v5.2L237.4,224.6L237.4,224.6z"/>
							<polygon class="st60" points="239.5,227.4 221.5,217.1 221.5,246.4 237.2,255.5 237.2,255.5 239.9,257 239.9,228.2 							
								"/>
							<polygon class="st61" points="237.6,255.2 237.6,255.2 221.8,246.1 221.9,217.2 221.5,217.1 221.5,246.4 237.2,255.5 
								237.2,255.5 239.9,257 239.9,256.6 							"/>
						</g>
					</g>
				</g>
				<g class="st7">
					<g>
						<polygon class="st57" points="206.2,255.6 205.2,255 220.3,246.4 221.2,246.9 						"/>
					</g>
					<g>
						<polygon class="st62" points="205,261.8 204.1,261.3 204,256.7 205,257.2 						"/>
					</g>
					<g>
						<polygon class="st57" points="180.4,270.5 179.4,269.9 204,255.8 205,256.3 						"/>
					</g>
					<g>
						<polygon class="st62" points="179.2,276.7 178.3,276.2 178.3,271.6 179.2,272.1 						"/>
					</g>
					<g>
						<polygon class="st25" points="205,256.3 204,255.8 204,225.3 204.9,225.8 						"/>
					</g>
					<g>
						<polygon class="st57" points="164.2,279.8 163.2,279.3 178.3,270.6 179.2,271.2 						"/>
					</g>
					<g>
						<polygon class="st62" points="164.2,280.8 163.2,280.3 163.2,279.3 164.2,279.8 						"/>
					</g>
					<g>
						<polygon class="st62" points="179.2,271.2 178.3,270.6 178.2,240.1 179.1,240.7 						"/>
					</g>
					<g>
						<polygon class="st62" points="164.1,249.4 163.1,248.8 163.1,247.9 164.1,248.4 						"/>
					</g>
					<path class="st24" d="M221.2,247.9v-1l-15,8.7l-0.1-30.5l15-8.7v-1l-15,8.7l-1.2,0.7L180.3,239l-1.2,0.7l-15,8.7v1l15-8.7
						l0.1,30.5l-15,8.7v1l15-8.7v4.6l1.2-0.7v-4.6l24.6-14.2v4.6l1.2-0.7v-4.6L221.2,247.9z M180.4,270.5l-0.1-30.5l24.6-14.2
						l0.1,30.5L180.4,270.5z"/>
					<polygon class="st57" points="220.2,214.9 163,247.9 164,248.5 221.1,215.5 					"/>
				</g>
				<g>
					<g id="_x36_">
						<g>
							<g class="st7">
								<g>
									<polygon class="st63" points="179.3,271.2 179.3,271.2 179.3,272.2 186.4,276.3 187.3,275.8 									"/>
								</g>
								<g>
									<polygon class="st64" points="186.4,277 187.3,276.4 187.3,275.8 186.4,276.3 									"/>
								</g>
								<g>
									<polygon class="st65" points="179.3,272.2 179.3,272.9 186.4,277 186.4,276.3 									"/>
								</g>
							</g>
						</g>
						<g>
							<g class="st7">
								<g>
									<polygon class="st63" points="206.8,255.4 206.8,256.4 213.7,260.4 214.6,259.9 									"/>
								</g>
								<g>
									<polygon class="st64" points="213.7,261.1 214.6,260.5 214.6,259.9 213.7,260.4 									"/>
								</g>
								<g>
									<polygon class="st65" points="206.8,256.4 206.8,257.1 213.7,261.1 213.7,260.4 									"/>
								</g>
							</g>
						</g>
						<g>
							<polygon class="st66" points="180,273.9 210.2,256.4 210.2,255.7 180,273.2 							"/>
							<polygon class="st67" points="180,273.9 180,273.2 177.8,272 177.8,272.6 							"/>
							<polygon class="st66" points="182.6,275.4 212.8,257.9 212.8,257.2 182.6,274.8 							"/>
							<polygon class="st67" points="182.6,275.4 182.6,274.8 180.4,273.5 180.4,274.2 							"/>
							<polygon class="st66" points="185.3,277 215.5,259.4 215.5,258.8 185.3,276.3 							"/>
							<path class="st68" d="M177.8,272l30.2-17.5l2.2,1.3L180,273.2L177.8,272z M182.6,274.8l30.2-17.5l-2.2-1.3l-30.2,17.5
								L182.6,274.8z M185.3,276.3l30.2-17.5l-2.2-1.3L183.1,275L185.3,276.3z"/>
							<polygon class="st67" points="185.3,277 185.3,276.3 183.1,275 183.1,275.7 							"/>
						</g>
					</g>
					<g>
						<g id="_x31_2_1_">
							<g>
								<path class="st45" d="M209.4,272.7c-0.5-0.4-0.3-1.2-0.2-1.8c0-0.3-0.1-0.7-0.2-1l2.1-0.4c0,0.2,0.1,0.4,0.1,0.7
									c0.1,0.5,0.1,1.1,0.4,1.6s2.7,1.1,2.1,2c-0.1,0.1-0.2,0.2-0.3,0.2c-0.6,0.3-1.4,0.3-2,0c-0.5-0.3-0.9-0.7-1.4-0.9
									C209.8,272.8,209.6,272.8,209.4,272.7z"/>
								<path class="st45" d="M205.6,274.9c-0.5-0.4-0.2-1.2-0.1-1.8c0-0.3,0-0.7-0.1-1l2.1-0.2c0,0.2,0,0.4,0,0.7
									c0,0.6,0,1.1,0.3,1.6c0.2,0.5,2.6,1.3,2,2.1c-0.1,0.1-0.2,0.1-0.3,0.2c-0.7,0.2-1.4,0.2-2-0.2c-0.5-0.3-0.8-0.8-1.4-1
									C206,275.1,205.8,275,205.6,274.9z"/>
								<g>
									<g>
										<g>
											<g>
												<g>
													<path class="st45" d="M207.3,258.5c0.2-1.2-0.7-5.4-0.7-5.4c0-0.1-0.9-2.9-1.7-5.1c-0.3-0.8-1.5-1.5-1.7-0.2
														c-0.3,1.8,0.9,5.2,1.6,6.5c0,0,0.7,3,1,4.1C205.9,258.5,207,258.5,207.3,258.5z"/>
												</g>
											</g>
										</g>
										<g>
											<g>
												<g>
													<path class="st32" d="M201.4,260.7c1.3-0.3,2.5-0.8,3-1.8c0.1-0.2,0.2-0.6,0.4-0.8c0,0.1,0.1,1.3,0.2,1.4
														c1.2,1.1,3.3,1.7,6,4c0.4,0.3,0.6,0.8,0.6,1.2v6.6c0,0.8-2.1,1.2-2.5,0.2l-0.5-5.7c0-0.1,0-0.1-0.1-0.1
														c-0.5-0.4-3.9-2.7-5.4-3.5c1.7,1.1,4,2.9,4.8,3.6c0.2,0.2,0.3,0.4,0.3,0.7c0.1,1.5-0.5,7-0.5,7c0,0.7-2.1,1-2.4,0.2
														l-0.2-4.9c0-0.4-0.2-0.7-0.5-0.8c-1.6-0.8-6.4-3.4-6.5-4.6c-0.1-1.1-0.1-2-0.1-2.2C199,261.3,200.3,261,201.4,260.7z"
														/>
													<path class="st45" d="M203.6,247.1c-1.2,0.2-4.5,2-5.5,3c-1.1,1.1-0.4,3.9-0.3,6.1c0.1,1.9-0.1,4,0.1,5.3
														c0,0.2,0.1,0.3,0.3,0.4c0.7,0.4,2.4,0.6,4.2-0.4c0.1-0.1,1.8-1.1,1.9-1.1c0.4-0.3,0.7-0.5,0.9-1.1
														C205,258.3,204.8,246.8,203.6,247.1z"/>
													<path class="st35" d="M200,248.7c0-0.6,0-1.5-0.1-2l0.4,0.1c0.1,0,0.1,0,0.2,0s0.1,0,0.2,0.1c0,0,0.1,0,0.2,0
														c0.3,0,0.6-0.1,0.9,0c0.2,0,0.5-0.1,0.5,0.1c0,0.1,0.1,0.8,0.1,0.9c0.1,0.6-0.1,1.1-0.6,1.3
														C201.4,249.3,200.5,249.3,200,248.7z"/>
													<g>
														<path class="st30" d="M202.9,247.5c-0.1,0.4-0.5,0.9-0.9,0.9c-0.7,0-1.9-0.2-2.1-0.7c-0.3-0.9-0.6-1.8-0.2-2.9
															c0.2-0.4,0.4-0.9,0.8-1.2c0.3-0.2,0.6-0.4,0.9-0.5c0.9-0.4,1.7-0.4,1.8,0.6c0,0.5,0.1,1,0.1,1.5
															C203.2,246.6,203.1,246.9,202.9,247.5z"/>
														<path class="st38" d="M201.5,242c0.4-0.1,0.8,0,1.2,0.1c0.5,0.1,0.8,0.6,0.9,1.1c0,0.3,0,0.7-0.2,1.2
															c0,0,0-0.8-0.2-0.8c-0.3,0-1.9,0.5-2.4,1.5c-0.2,0.3,0.1,1-0.1,1.1c-0.3,0.2-0.5-0.1-0.7,0s-0.2,0.4-0.2,0.5
															c0,0.3,0.2,0.7,0.2,0.7c-0.3,0-0.5-0.5-0.6-0.8c-0.1-0.4-0.2-0.8-0.3-1.1c-0.2-1.1,0.1-2.8,1.5-3.1
															c0.4-0.1,0.6,0,0.9-0.2C201.3,242.1,201.4,242,201.5,242z"/>
													</g>
												</g>
											</g>
										</g>
										<path class="st45" d="M199.6,256.9c-0.1-0.3,0.3-5.4-0.7-6.5c-0.6-0.7-1.5-0.1-1.7,0.6c-0.6,2.5,0.1,7.3,0.4,7.5
											c0.3,0.3,3.6,2.2,4.9,2.8c0,0,0.5-0.7,0.6-1.3C203.1,260,199.7,257.4,199.6,256.9z"/>
										<g>
											<g>
												<polygon class="st69" points="200.4,263 200.4,263.4 204,265.5 204,265.2 												"/>
												<polygon class="st70" points="204,265.2 204,265.5 210.3,261.9 210.3,261.6 												"/>
												<polygon class="st71" points="200.4,263 204,265.2 210.3,261.6 206.6,259.4 												"/>
												<g>
													<path class="st69" d="M201.9,263.1l-0.3-0.2h-0.1l-0.4,0.2v0.1l0.3,0.2h0.1L201.9,263.1
														C202,263.1,202,263.1,201.9,263.1z"/>
													<path class="st69" d="M202.5,262.8l-0.4,0.2H202l-0.3-0.2v-0.1l0.4-0.2h0.1L202.5,262.8L202.5,262.8z"/>
													<g>
														<path class="st69" d="M206.4,263l-0.4,0.2h-0.1l-0.3-0.2v-0.1l0.4-0.2h0.1L206.4,263L206.4,263z"/>
														<path class="st69" d="M206.9,262.7l-0.4,0.2h-0.1l-0.3-0.2v-0.1l0.4-0.2h0.1L206.9,262.7
															C207,262.6,207,262.7,206.9,262.7z"/>
														<path class="st69" d="M207.5,262.4l-0.4,0.2H207l-0.3-0.2v-0.1l0.4-0.2h0.1L207.5,262.4
															C207.6,262.3,207.6,262.3,207.5,262.4z"/>
														<path class="st69" d="M208.1,262l-0.4,0.2h-0.1l-0.3-0.2v-0.1l0.4-0.2h0.1L208.1,262L208.1,262z"/>
														<path class="st69" d="M208.7,261.7l-0.4,0.2h-0.1l-0.3-0.2v-0.1l0.4-0.2h0.1L208.7,261.7
															C208.7,261.6,208.7,261.7,208.7,261.7z"/>
													</g>
													<path class="st69" d="M206,260.8l-0.4,0.2h-0.1l-0.3-0.2v-0.1l0.4-0.2h0.1L206,260.8L206,260.8z"/>
													<path class="st69" d="M206.5,260.5l-0.4,0.2H206l-0.3-0.2v-0.1l0.4-0.2h0.1L206.5,260.5
														C206.6,260.4,206.6,260.5,206.5,260.5z"/>
													<path class="st69" d="M207.3,260l-0.5,0.3h-0.1l-0.3-0.2V260l0.5-0.3h0.1L207.3,260L207.3,260z"/>
													<path class="st69" d="M202.7,263.3l-0.5,0.3h-0.1l-0.3-0.2v-0.1l0.5-0.3h0.1L202.7,263.3L202.7,263.3z"/>
													<path class="st69" d="M203.2,263l-0.4,0.2h-0.1l-0.3-0.2v-0.1l0.4-0.2h0.1L203.2,263C203.3,262.9,203.3,263,203.2,263z
														"/>
													<path class="st69" d="M203.8,262.7l-0.4,0.2h-0.1l-0.3-0.2v-0.1l0.4-0.2h0.1L203.8,262.7
														C203.8,262.6,203.8,262.6,203.8,262.7z"/>
													<path class="st69" d="M204.4,262.3l-0.4,0.2h-0.1l-0.3-0.2v-0.1l0.4-0.2h0.1L204.4,262.3L204.4,262.3z"/>
													<path class="st69" d="M205,262l-0.4,0.2h-0.1l-0.3-0.2v-0.1l0.4-0.2h0.1L205,262C205,261.9,205,262,205,262z"/>
													<path class="st69" d="M205.5,261.7l-0.4,0.2H205l-0.3-0.2v-0.1l0.4-0.2h0.1L205.5,261.7
														C205.6,261.6,205.6,261.6,205.5,261.7z"/>
													<path class="st69" d="M206.1,261.3l-0.4,0.2h-0.1l-0.3-0.2v-0.1l0.4-0.2h0.1L206.1,261.3L206.1,261.3z"/>
													<path class="st69" d="M206.7,261l-0.4,0.2h-0.1l-0.3-0.2v-0.1l0.4-0.2h0.1L206.7,261L206.7,261z"/>
													<path class="st69" d="M207.3,260.7l-0.4,0.2h-0.1l-0.3-0.2v-0.1l0.4-0.2h0.1L207.3,260.7
														C207.3,260.6,207.3,260.7,207.3,260.7z"/>
													<path class="st69" d="M207.8,260.3l-0.4,0.2h-0.1l-0.3-0.2v-0.1l0.4-0.2h0.1L207.8,260.3
														C207.9,260.3,207.9,260.3,207.8,260.3z"/>
													<path class="st69" d="M203,263.7l-0.4,0.2h-0.1l-0.3-0.2v-0.1l0.4-0.2h0.1L203,263.7L203,263.7z"/>
													<path class="st69" d="M203.6,263.4l-0.4,0.2h-0.1l-0.3-0.2v-0.1l0.4-0.2h0.1L203.6,263.4L203.6,263.4z"/>
													<path class="st69" d="M204.1,263.1l-0.4,0.2h-0.1l-0.3-0.2V263l0.4-0.2h0.1L204.1,263.1
														C204.2,263,204.2,263.1,204.1,263.1z"/>
													<path class="st69" d="M204.7,262.7l-0.4,0.2h-0.1l-0.3-0.2v-0.1l0.4-0.2h0.1L204.7,262.7L204.7,262.7z"/>
													<path class="st69" d="M204,264.3l-0.4,0.2h-0.1l-0.3-0.2v-0.1l0.4-0.2h0.1L204,264.3
														C204.1,264.3,204.1,264.3,204,264.3z"/>
													<path class="st69" d="M204.6,264l-0.4,0.2h-0.1l-0.3-0.2v-0.1l0.4-0.2h0.1L204.6,264L204.6,264z"/>
													<path class="st69" d="M205.2,263.7l-0.4,0.2h-0.1l-0.3-0.2v-0.1l0.4-0.2h0.1L205.2,263.7
														C205.2,263.6,205.2,263.7,205.2,263.7z"/>
													<path class="st69" d="M205.7,263.3l-0.4,0.2h-0.1l-0.3-0.2v-0.1l0.4-0.2h0.1L205.7,263.3
														C205.8,263.3,205.8,263.3,205.7,263.3z"/>
													<path class="st69" d="M209.4,261.2l-0.5,0.3h-0.1l-0.3-0.2v-0.1l0.5-0.3h0.1L209.4,261.2L209.4,261.2z"/>
													<path class="st69" d="M205.3,262.4l-0.4,0.2h-0.1l-0.3-0.2v-0.1l0.4-0.2h0.1L205.3,262.4L205.3,262.4z"/>
													<path class="st69" d="M205.9,262.1l-0.4,0.2h-0.1l-0.3-0.2V262l0.4-0.2h0.1L205.9,262.1
														C205.9,262,205.9,262.1,205.9,262.1z"/>
													<path class="st69" d="M206.4,261.7l-0.4,0.2h-0.1l-0.3-0.2v-0.1l0.4-0.2h0.1L206.4,261.7
														C206.5,261.7,206.5,261.7,206.4,261.7z"/>
													<path class="st69" d="M207,261.4l-0.4,0.2h-0.1l-0.3-0.2v-0.1l0.4-0.2h0.1L207,261.4L207,261.4z"/>
													<path class="st69" d="M207.6,261.1l-0.4,0.2h-0.1l-0.3-0.2V261l0.4-0.2h0.1L207.6,261.1
														C207.6,261,207.6,261.1,207.6,261.1z"/>
													<path class="st69" d="M208.3,260.6l-0.5,0.3h-0.1l-0.3-0.2v-0.1l0.5-0.3h0.1L208.3,260.6
														C208.4,260.6,208.4,260.6,208.3,260.6z"/>
													<path class="st69" d="M203.7,263.9l-0.5,0.3h-0.1l-0.3-0.2v-0.1l0.5-0.3h0.1L203.7,263.9L203.7,263.9z"/>
													<path class="st69" d="M204.3,263.6l-0.4,0.2h-0.1l-0.3-0.2v-0.1l0.4-0.2h0.1L204.3,263.6L204.3,263.6z"/>
													<path class="st69" d="M204.8,263.3l-0.4,0.2h-0.1l-0.3-0.2v-0.1l0.4-0.2h0.1L204.8,263.3
														C204.9,263.2,204.9,263.3,204.8,263.3z"/>
													<path class="st69" d="M205.4,262.9l-0.4,0.2h-0.1l-0.3-0.2v-0.1l0.4-0.2h0.1L205.4,262.9
														C205.5,262.9,205.5,262.9,205.4,262.9z"/>
													<path class="st69" d="M206,262.6l-0.4,0.2h-0.1l-0.3-0.2v-0.1l0.4-0.2h0.1L206,262.6L206,262.6z"/>
													<g>
														<path class="st69" d="M205.4,261.1l-2.7,1.5h-0.1l-0.3-0.2v-0.1l2.7-1.5h0.1L205.4,261.1L205.4,261.1z"/>
													</g>
													<path class="st69" d="M206.6,262.3l-0.4,0.2h-0.1l-0.3-0.2v-0.1l0.4-0.2h0.1L206.6,262.3
														C206.6,262.2,206.6,262.3,206.6,262.3z"/>
													<path class="st69" d="M207.2,261.9l-0.4,0.2h-0.1l-0.3-0.2v-0.1l0.4-0.2h0.1L207.2,261.9L207.2,261.9z"/>
													<path class="st69" d="M207.7,261.6l-0.4,0.2h-0.1l-0.3-0.2v-0.1l0.4-0.2h0.1L207.7,261.6
														C207.8,261.6,207.8,261.6,207.7,261.6z"/>
													<path class="st69" d="M208.3,261.3l-0.4,0.2h-0.1l-0.3-0.2v-0.1l0.4-0.2h0.1L208.3,261.3
														C208.3,261.2,208.3,261.3,208.3,261.3z"/>
													<path class="st69" d="M208.9,260.9l-0.4,0.2h-0.1l-0.3-0.2v-0.1l0.4-0.2h0.1L208.9,260.9L208.9,260.9z"/>
												</g>
												<path class="st30" d="M207.3,258.5c-0.2-0.4-1.4-0.2-1.5,0l-0.1,0.5c-0.1,0.2-0.4,0.5-0.5,0.8c0,0.1,0,0.2,0.2,0.2
													s0.2-0.3,0.3-0.3c0,0,0,0.4,0,0.7c0,0.3,0,0.4,0.1,0.6s0.3,0.3,0.4,0.3c0.2,0,0.3-0.1,0.5-0.2c0.1-0.1,0.4-0.5,0.5-0.6
													C207.3,260.1,207.4,258.7,207.3,258.5z"/>
												<polygon class="st69" points="205.9,260.6 205.6,260.5 204.1,265.5 204.4,265.7 												"/>
												<polygon class="st71" points="212.1,257 211.8,256.9 205.6,260.5 205.9,260.6 												"/>
												<polygon class="st72" points="205.9,260.6 204.4,265.7 210.6,262.1 212.1,257 												"/>
											</g>
											<g>
												<path class="st71" d="M208.4,260.9c-0.5,0.2-0.9,0.7-1,1.1s0.3,0.6,0.7,0.4c0.5-0.2,0.9-0.7,1-1.1
													S208.9,260.7,208.4,260.9z M208.2,262.2c-0.3,0.1-0.5,0-0.5-0.3s0.3-0.6,0.7-0.8c0.3-0.1,0.5,0,0.5,0.3
													C208.9,261.7,208.6,262.1,208.2,262.2z"/>
												<path class="st69" d="M207.8,261.7c0,0.1,0,0.1-0.1,0.2c0,0.3,0.2,0.4,0.5,0.3c0.1,0,0.2-0.1,0.3-0.2
													c-0.1,0.1-0.2,0.2-0.4,0.2c-0.3,0.1-0.5,0-0.5-0.3C207.7,261.9,207.7,261.8,207.8,261.7z M208.4,260.9
													c-0.4,0.2-0.8,0.6-0.9,1C207.6,261.5,208,261.1,208.4,260.9c0.4-0.1,0.7,0.1,0.7,0.5c0,0.3-0.3,0.6-0.6,0.9
													c0.3-0.2,0.6-0.6,0.6-0.9C209.2,260.9,208.9,260.7,208.4,260.9z"/>
											</g>
										</g>
									</g>
									<path class="st30" d="M203.5,260.2c0.1,0,0.2,0,0.4-0.1c0.1,0,0.2,0,0.3,0c0.1,0,0.3,0.1,0.3,0.2s0,0.1-0.1,0.2
										c-0.1,0-0.3,0-0.4,0c-0.1,0.1,0,0.3,0.1,0.4c0.2,0.2,0.5,0.3,0.8,0.4c0.1,0,0.2,0.1,0.3,0.1c0.2,0.1,0.2,0.2,0.1,0.4
										c-0.1,0.1-0.1,0.3-0.2,0.4c-0.2,0.2-0.8,0.3-1,0.2c-0.2-0.1-0.7-0.3-0.8-0.5c-0.2-0.2-0.3-0.4-0.5-0.5
										c-0.1-0.1-0.3-0.1-0.3-0.2c-0.3-0.3,0.2-1.1,0.4-1.2c0.2-0.1,0.4-0.1,0.5,0C203.3,260.2,203.4,260.2,203.5,260.2z"/>
								</g>
							</g>
						</g>
					</g>
				</g>
				<g>
					<g class="st7">
						
							<linearGradient id="SVGID_7_" gradientUnits="userSpaceOnUse" x1="193.8631" y1="257.4284" x2="207.6336" y2="233.5773" gradientTransform="matrix(1 0 0 -1 0 480)">
							<stop  offset="0" style="stop-color:#96D7E0"/>
							<stop  offset="6.922886e-02" style="stop-color:#99DBE5"/>
							<stop  offset="0.3207" style="stop-color:#A2E7F2"/>
							<stop  offset="0.5566" style="stop-color:#A5EBF6"/>
							<stop  offset="1" style="stop-color:#CDF8FF"/>
						</linearGradient>
						<path class="st73" d="M238.5,220c-2.8-3.1-6-5.8-9.3-7.7c-5.3-3.1-10.3-3.8-13.7-2L158.6,243c3.4-1.8,8.4-1,13.7,2
							c3.3,1.9,6.5,4.6,9.3,7.7c1.6,1.9,3.1,3.9,4.4,6l-0.1,0.1l56.9-32.7c0.1,0,0.1-0.1,0.1-0.1C241.6,223.9,240.1,221.9,238.5,220
							z"/>
						<path class="st74" d="M172.3,244.9c-5.3-3.1-10.3-3.8-13.7-2c0,0.2,0.3,0.7,0.4,0.8c3.3-1.7,8.2-1,13.3,1.9
							c5.1,2.9,9.9,7.8,13.2,13.3c0.2,0,0.4-0.1,0.5-0.2C182.6,253,177.6,248,172.3,244.9z"/>
					</g>
				</g>
				<g class="st7">
					<g>
						<polygon class="st24" points="163.3,281.4 164.3,280.8 164.3,285.4 163.3,286 						"/>
					</g>
					<g>
						<polygon class="st57" points="163.3,280.4 164.3,279.9 169.9,283.1 169,283.7 						"/>
					</g>
					<g>
						<polygon class="st24" points="163.3,249.9 164.3,249.4 164.3,279.9 163.3,280.4 						"/>
					</g>
					<g>
						<polygon class="st24" points="163.3,243.8 164.3,243.3 164.3,248.4 163.3,249 						"/>
					</g>
					<g>
						<polygon class="st57" points="163.3,249 164.3,248.4 169.9,251.7 169,252.2 						"/>
					</g>
					<g>
						<polygon class="st24" points="170.2,245.9 171.1,245.4 171.1,289.4 170.2,289.9 						"/>
					</g>
					<path class="st26" d="M181.8,252.6c-2.9-3.3-6.1-5.9-9.4-7.8c-5.1-3-10.3-3.9-13.9-2l-0.9,0.5c3.6-1.9,8.8-0.9,13.9,2
						c3.2,1.9,6.5,4.6,9.4,7.8c1.7,1.9,3.2,4,4.5,6.2l0.9-0.5C185,256.6,183.4,254.5,181.8,252.6z"/>
					<g class="st7">
						<g class="st7">
							<path class="st26" d="M185.4,259.4l0.9-0.5l0,0L185.4,259.4L185.4,259.4L185.4,259.4z"/>
							<path class="st59" d="M185.4,259.4l0.9-0.5c0.1,0.2,0,0.3-0.2,0.4l-0.9,0.5C185.3,259.7,185.4,259.5,185.4,259.4L185.4,259.4
								z"/>
						</g>
					</g>
					<g>
						<g>
							<g>
								<g>
									<g class="st7">
										<g>
											<polygon class="st75" points="170.2,245.6 170.2,253.6 170.1,253.3 170.1,245.3 											"/>
										</g>
										<g>
											<polygon class="st76" points="172.2,246.8 172.2,254.8 170.2,253.6 170.2,245.6 											"/>
										</g>
										<g>
											<polygon class="st77" points="172.9,246.9 172.9,254.9 172.2,254.8 172.2,246.8 											"/>
										</g>
										<g>
											<polygon class="st78" points="173.8,246.4 173.8,254.4 172.9,254.9 172.9,246.9 											"/>
										</g>
										<g>
											<polygon class="st79" points="173.8,246.4 172.9,246.9 172.2,246.8 170.2,245.6 170.1,245.3 171,244.7 											"/>
										</g>
									</g>
								</g>
							</g>
							<g>
								<polygon class="st80" points="173.4,254.4 173.1,254.5 173.1,250.6 173.4,250.4 								"/>
								<path class="st81" d="M173.3,252.9v0.4l-0.2,0.1V253L173.3,252.9z M173.1,252.6v0.4l0.2-0.1v-0.4L173.1,252.6z M173.3,253.8
									v-0.4l-0.2,0.1v0.4L173.3,253.8z M173.3,250.9v-0.5l-0.2,0.1v0.5L173.3,250.9z M173.1,254v0.4l0.2-0.1v-0.4L173.1,254z
									 M173.1,252.1v0.4l0.2-0.1V252L173.1,252.1z M173.1,251.1v0.4l0.2-0.1V251L173.1,251.1z M173.1,251.6v0.4l0.2-0.1v-0.4
									L173.1,251.6z"/>
							</g>
							<g>
								<polygon class="st75" points="171.9,253.9 170.5,253.1 170.5,246.5 171.9,247.3 								"/>
								<polygon class="st82" points="170.6,253 170.6,246.5 170.5,246.5 170.5,253.1 171.9,253.9 171.9,253.7 								"/>
							</g>
						</g>
						<path class="st25" d="M185.4,259.4c0.2,0.3-0.6,0.6-0.7,0.5c-3.5-5.8-8.3-10.5-13.1-13.3c-0.4-0.2-0.9-0.5-1.3-0.7v44
							l-1.2-0.7v-4.6l-5.7-3.3v4.6l-1.2-0.7v-41.5c-1.4,0-2.7,0.3-3.8,0.9c-0.4-0.2-1-1.3-0.8-1.4c3.6-1.9,8.8-0.9,13.9,2
							C176.6,248.3,181.7,253.3,185.4,259.4z M169,283.7v-30.5l-5.7-3.3v30.5L169,283.7L169,283.7z M169,252.2v-6.9
							c-2-0.9-3.9-1.4-5.7-1.5v5.2L169,252.2L169,252.2z"/>
					</g>
				</g>
			</g>
		</g>
		<g id="bus-transkoeradja">
			<path class="st83" d="M334.3,216.9l-110.6,63.6c-1.6,0.9-1.6,2.4,0,3.3l42.1,24.3c1.6,0.9,4.1,0.9,5.7,0L382,244.5L334.3,216.9z"
				/>
			<g>
				<g>
					<g>
						<g class="st7">
							<g class="st7">
								<g class="st7">
									<path class="st84" d="M234.5,262.2l0.5-0.3c0.2-0.1,0.3-0.3,0.3-0.6l-0.5,0.3C234.8,261.9,234.7,262.1,234.5,262.2
										L234.5,262.2z"/>
								</g>
							</g>
							<g class="st7">
								<g class="st7">
									<path class="st84" d="M232.6,253.7l0.5-0.3c-0.2-0.1-0.5-0.2-0.6-0.1l-0.5,0.3C232.1,253.6,232.3,253.6,232.6,253.7
										L232.6,253.7z"/>
								</g>
							</g>
							<g>
								<polygon class="st85" points="234.8,261.7 235.2,261.4 235.2,255.8 234.7,256 								"/>
							</g>
							<g>
								<polygon class="st86" points="233.8,254.5 234.3,254.2 233,253.5 232.6,253.7 								"/>
							</g>
							<g>
								<g class="st7">
									<path class="st84" d="M234.7,256l0.5-0.3c0-0.6-0.4-1.3-0.9-1.6l-0.5,0.3C234.3,254.8,234.7,255.5,234.7,256L234.7,256z"/>
								</g>
							</g>
							<g>
								<path class="st87" d="M232.6,253.7c-0.5-0.3-0.9-0.1-0.9,0.5v5.6c0,0.6,0.4,1.3,0.9,1.6l1.3,0.7c0.5,0.3,0.9,0.1,0.9-0.5
									V256c0-0.6-0.4-1.3-0.9-1.6L232.6,253.7z"/>
							</g>
						</g>
						<path class="st87" d="M237.5,262.5c0.1,0,0.2-0.1,0.3-0.1c0.1-0.1,0-0.3-0.1-0.4l-3.3-1.9c-0.1-0.1-0.4,0.4-0.3,0.5l3.3,1.9
							C237.4,262.5,237.4,262.5,237.5,262.5z"/>
						<path class="st87" d="M237.9,261.3c0.1,0,0.1,0,0.2-0.1s0.2-0.3,0.1-0.4l-2.9-4.1c-0.1-0.1-0.3-0.2-0.4-0.1s-0.2,0.3-0.1,0.4
							l2.9,4.1C237.7,261.3,237.8,261.3,237.9,261.3z"/>
					</g>
					<g>
						<g class="st7">
							<g>
								<path class="st88" d="M337.9,228.1l0.2,3.2l27.9,16.2l-0.2-3.2c-0.1-1.8-0.8-3.1-1.8-3.6l-27.9-16.2
									C337.1,225,337.8,226.3,337.9,228.1z"/>
								<g>
									<g class="st7">
										<path class="st89" d="M349.3,247.1c0.6-1.4,1.5-2.7,2.5-3.9c0.8-1,1.8-1.8,2.8-2.3c1.8-1,3.4-1.1,4.5-0.4l3.5,2
											c-1.2-0.7-2.8-0.6-4.5,0.4c-1,0.6-1.9,1.4-2.8,2.3c-1,1.1-1.8,2.5-2.5,3.9c-0.7,1.6-1.1,3.2-1.1,4.8c0,2,0.7,3.4,1.8,4.1
											l-3.5-2c-1.1-0.7-1.8-2.1-1.8-4.1C348.2,250.3,348.6,248.6,349.3,247.1z"/>
										<path class="st90" d="M358,242.9c3.5-2,6.4-0.4,6.4,3.6s-2.8,8.9-6.3,10.9s-6.4,0.4-6.4-3.6
											C351.6,249.8,354.5,244.9,358,242.9z"/>
									</g>
									
										<linearGradient id="SVGID_8_" gradientUnits="userSpaceOnUse" x1="77.9575" y1="229.75" x2="87.0609" y2="229.75" gradientTransform="matrix(-1 0 0 -1 440.5074 480)">
										<stop  offset="0" style="stop-color:#323232"/>
										<stop  offset="0.629" style="stop-color:#201F1D"/>
										<stop  offset="1" style="stop-color:#12100C"/>
									</linearGradient>
									<path class="st91" d="M358,245c2.5-1.5,4.6-0.3,4.6,2.6s-2,6.4-4.5,7.9s-4.6,0.3-4.6-2.6C353.4,249.9,355.5,246.4,358,245z
										"/>
									<g>
										<g class="st7">
											<g class="st7">
												<g class="st7">
													<path class="st92" d="M358.3,248.2v0.2c0,0.9-0.6,2.1-1.4,2.6l0,0l-0.2,0.1l0,0C357.6,250.6,358.4,249.3,358.3,248.2
														L358.3,248.2z"/>
												</g>
											</g>
											<path class="st93" d="M356.9,247.1l0.2,0.4c0.7-0.3,1.2,0.1,1.3,0.9v-0.2C358.3,247.3,357.7,246.8,356.9,247.1
												L356.9,247.1z"/>
											<g class="st7">
												<g class="st7">
													
														<linearGradient id="SVGID_9_" gradientUnits="userSpaceOnUse" x1="65.0447" y1="213.8717" x2="64.8114" y2="210.2555" gradientTransform="matrix(-0.9939 0.1103 -0.1103 -0.9939 443.8803 454.4268)">
														<stop  offset="0" style="stop-color:#CAE3E5"/>
														<stop  offset="1" style="stop-color:#9AAEB0"/>
													</linearGradient>
													<path class="st94" d="M356.7,251.2l0.2-0.1c-0.8,0.5-1.5,0.1-1.5-0.8c0-0.4,0.1-0.9,0.3-1.3l-0.4-0.2
														c-0.2,0.5-0.4,1-0.3,1.5C355,251.3,355.8,251.7,356.7,251.2L356.7,251.2z"/>
													<path class="st92" d="M356.6,247.3c0.1-0.1,0.2-0.1,0.3-0.1l0.2,0.4c-0.1,0-0.2,0.1-0.3,0.1c-0.5,0.3-0.9,0.8-1.1,1.3
														l-0.4-0.2C355.6,248.2,356.1,247.6,356.6,247.3z"/>
												</g>
											</g>
											<g>
												
													<linearGradient id="SVGID_10_" gradientUnits="userSpaceOnUse" x1="62.2791" y1="213.4719" x2="65.4413" y2="213.4719" gradientTransform="matrix(-0.9939 0.1103 -0.1103 -0.9939 443.8803 454.4268)">
													<stop  offset="0" style="stop-color:#ACC1C4"/>
													<stop  offset="1" style="stop-color:#9AAEB0"/>
												</linearGradient>
												<path class="st95" d="M356.8,247.6c-0.8,0.5-1.5,1.7-1.4,2.6c0,0.9,0.7,1.3,1.5,0.8s1.5-1.7,1.4-2.6
													C358.3,247.5,357.7,247.1,356.8,247.6z"/>
											</g>
											<g>
												<g class="st7">
													
														<linearGradient id="SVGID_11_" gradientUnits="userSpaceOnUse" x1="64.7996" y1="207.6116" x2="58.85" y2="221.0565" gradientTransform="matrix(-0.9939 0.1103 -0.1103 -0.9939 443.8803 454.4268)">
														<stop  offset="0" style="stop-color:#F4FEFF"/>
														<stop  offset="0.5538" style="stop-color:#CAE3E5"/>
														<stop  offset="1" style="stop-color:#9AAEB0"/>
													</linearGradient>
													<path class="st96" d="M359.7,244.8h-1c0,0-0.2,0-0.1,0.1c0.8,0.2,1.4,1,1.4,2.3c0,2.2-1.4,4.8-3.3,5.9
														c-1.1,0.7-2.2,0.6-2.8,0c-0.1-0.1,0.1,0.3,0.1,0.3l0.4,0.7c0.7,1.2,2.1,1.5,3.7,0.5c2.2-1.3,4-4.5,3.9-7
														C362,245.8,361,244.7,359.7,244.8L359.7,244.8z"/>
												</g>
											</g>
											<g>
												<path class="st97" d="M362.3,247.4c0.1,2.7-1.8,6.1-4.2,7.5s-4.3,0.4-4.4-2.3s1.8-6.1,4.2-7.5S362.2,244.7,362.3,247.4z
													 M357.9,245.4c-2.2,1.3-4,4.5-3.9,7c0.1,2.6,1.9,3.5,4.1,2.2s4-4.5,3.9-7C362,245,360.1,244,357.9,245.4L357.9,245.4z"
													/>
											</g>
										</g>
										<g>
											
												<linearGradient id="SVGID_12_" gradientUnits="userSpaceOnUse" x1="60.084" y1="208.0461" x2="65.1879" y2="215.1332" gradientTransform="matrix(-0.9939 0.1103 -0.1103 -0.9939 443.8803 454.4268)">
												<stop  offset="0" style="stop-color:#ACC1C4"/>
												<stop  offset="1" style="stop-color:#748385"/>
											</linearGradient>
											<path class="st98" d="M354.1,253.3c0.6,0.5,1.6,0.5,2.6-0.2c1.9-1.1,3.3-3.8,3.3-5.9c0-1.2-0.5-2-1.2-2.2
												c-0.3,0.1-0.6,0.2-0.9,0.4c-2.2,1.3-4,4.5-3.9,7C354,252.7,354,253,354.1,253.3z M355,250.2c0-1.1,0.7-2.4,1.6-3
												c0.9-0.6,1.7-0.1,1.7,0.9c0,1.1-0.7,2.4-1.6,3C355.8,251.7,355,251.3,355,250.2z"/>
										</g>
									</g>
								</g>
								<path class="st88" d="M348.1,249.8l-27.9-16.2c1,0.6,1.7,1.8,1.8,3.6l0.2,3.2l27.9,16.2l-0.2-3.2
									C349.9,251.6,349.2,250.4,348.1,249.8z"/>
								<g>
									<g class="st7">
										<path class="st89" d="M333.5,256.2c0.6-1.4,1.5-2.7,2.5-3.9c0.8-1,1.8-1.8,2.8-2.3c1.8-1,3.4-1.1,4.5-0.4l3.5,2
											c-1.2-0.7-2.8-0.6-4.5,0.4c-1,0.6-1.9,1.4-2.8,2.3c-1,1.1-1.8,2.5-2.5,3.9c-0.7,1.6-1.1,3.2-1.1,4.8c0,2,0.7,3.4,1.8,4.1
											l-3.5-2c-1.1-0.7-1.8-2.1-1.8-4.1C332.4,259.5,332.8,257.8,333.5,256.2z"/>
										<path class="st90" d="M342.2,252.1c3.5-2,6.4-0.4,6.4,3.6s-2.8,8.9-6.3,10.9s-6.4,0.4-6.4-3.6S338.7,254.1,342.2,252.1z"
											/>
									</g>
									
										<linearGradient id="SVGID_13_" gradientUnits="userSpaceOnUse" x1="93.7299" y1="220.65" x2="102.8299" y2="220.65" gradientTransform="matrix(-1 0 0 -1 440.5074 480)">
										<stop  offset="0" style="stop-color:#323232"/>
										<stop  offset="0.629" style="stop-color:#201F1D"/>
										<stop  offset="1" style="stop-color:#12100C"/>
									</linearGradient>
									<path class="st99" d="M342.2,254.1c2.5-1.5,4.6-0.3,4.6,2.6s-2,6.4-4.5,7.9s-4.6,0.3-4.6-2.6S339.7,255.6,342.2,254.1z"/>
									<g>
										<g class="st7">
											<g class="st7">
												<g class="st7">
													<path class="st92" d="M342.6,257.4v0.2c0,0.9-0.6,2.1-1.4,2.6l0,0l-0.2,0.1l0,0C341.9,259.8,342.6,258.4,342.6,257.4
														L342.6,257.4z"/>
												</g>
											</g>
											<path class="st93" d="M341.1,256.3l0.2,0.4c0.7-0.3,1.2,0.1,1.3,0.9v-0.2C342.6,256.4,341.9,256,341.1,256.3L341.1,256.3
												z"/>
											<g class="st7">
												<g class="st7">
													
														<linearGradient id="SVGID_14_" gradientUnits="userSpaceOnUse" x1="81.7507" y1="206.5119" x2="81.5173" y2="202.8956" gradientTransform="matrix(-0.9939 0.1103 -0.1103 -0.9939 443.8803 454.4268)">
														<stop  offset="0" style="stop-color:#CAE3E5"/>
														<stop  offset="1" style="stop-color:#9AAEB0"/>
													</linearGradient>
													<path class="st100" d="M340.9,260.3l0.2-0.1c-0.8,0.5-1.5,0.1-1.5-0.8c0-0.4,0.1-0.9,0.3-1.3l-0.4-0.2
														c-0.2,0.5-0.4,1-0.3,1.5C339.2,260.5,340,260.9,340.9,260.3L340.9,260.3z"/>
													<path class="st92" d="M340.8,256.4c0.1-0.1,0.2-0.1,0.3-0.1l0.2,0.4c-0.1,0-0.2,0.1-0.3,0.1c-0.5,0.3-0.9,0.8-1.1,1.3
														l-0.4-0.2C339.8,257.3,340.3,256.8,340.8,256.4z"/>
												</g>
											</g>
											<g>
												
													<linearGradient id="SVGID_15_" gradientUnits="userSpaceOnUse" x1="78.9649" y1="206.0621" x2="82.1271" y2="206.0621" gradientTransform="matrix(-0.9939 0.1103 -0.1103 -0.9939 443.8803 454.4268)">
													<stop  offset="0" style="stop-color:#ACC1C4"/>
													<stop  offset="1" style="stop-color:#9AAEB0"/>
												</linearGradient>
												<path class="st101" d="M341.1,256.8c-0.8,0.5-1.5,1.7-1.4,2.6c0,0.9,0.7,1.3,1.5,0.8s1.5-1.7,1.4-2.6
													C342.6,256.7,341.9,256.3,341.1,256.8z"/>
											</g>
											<g>
												<g class="st7">
													
														<linearGradient id="SVGID_16_" gradientUnits="userSpaceOnUse" x1="81.5244" y1="200.2702" x2="75.5748" y2="213.7152" gradientTransform="matrix(-0.9939 0.1103 -0.1103 -0.9939 443.8803 454.4268)">
														<stop  offset="0" style="stop-color:#F4FEFF"/>
														<stop  offset="0.5538" style="stop-color:#CAE3E5"/>
														<stop  offset="1" style="stop-color:#9AAEB0"/>
													</linearGradient>
													<path class="st102" d="M343.9,253.9h-1c0,0-0.2,0-0.1,0.1c0.8,0.2,1.4,1,1.4,2.3c0,2.2-1.4,4.8-3.3,5.9
														c-1.1,0.7-2.2,0.6-2.8,0c-0.1-0.1,0.1,0.3,0.1,0.3l0.4,0.7c0.7,1.2,2.1,1.5,3.7,0.5c2.2-1.3,4-4.5,3.9-7
														C346.2,254.9,345.3,253.9,343.9,253.9L343.9,253.9z"/>
												</g>
											</g>
											<g>
												<path class="st97" d="M346.5,256.6c0.1,2.7-1.8,6.1-4.2,7.5s-4.3,0.4-4.4-2.3s1.8-6.1,4.2-7.5
													C344.5,252.8,346.4,253.9,346.5,256.6z M342.1,254.5c-2.2,1.3-4,4.5-3.9,7c0.1,2.6,1.9,3.5,4.1,2.2c2.2-1.3,4-4.5,3.9-7
													C346.2,254.2,344.4,253.2,342.1,254.5L342.1,254.5z"/>
											</g>
										</g>
										<g>
											
												<linearGradient id="SVGID_17_" gradientUnits="userSpaceOnUse" x1="76.757" y1="200.6968" x2="81.8609" y2="207.7839" gradientTransform="matrix(-0.9939 0.1103 -0.1103 -0.9939 443.8803 454.4268)">
												<stop  offset="0" style="stop-color:#ACC1C4"/>
												<stop  offset="1" style="stop-color:#748385"/>
											</linearGradient>
											<path class="st103" d="M338.3,262.4c0.6,0.5,1.6,0.5,2.6-0.2c1.9-1.1,3.3-3.8,3.3-5.9c0-1.2-0.5-2-1.2-2.2
												c-0.3,0.1-0.6,0.2-0.9,0.4c-2.2,1.3-4,4.5-3.9,7C338.2,261.9,338.3,262.2,338.3,262.4z M339.2,259.4c0-1.1,0.7-2.4,1.6-3
												c0.9-0.6,1.7-0.1,1.7,0.9c0,1.1-0.7,2.4-1.6,3C340,260.9,339.2,260.5,339.2,259.4z"/>
										</g>
									</g>
								</g>
								<path class="st88" d="M295.1,280.4l-27.9-16.2c1,0.6,1.7,1.8,1.8,3.6l0.2,3.2l27.9,16.2l-0.2-3.2
									C296.8,282.3,296.1,281,295.1,280.4z"/>
								<g>
									<g class="st7">
										<path class="st89" d="M280.5,286.8c0.6-1.4,1.5-2.7,2.5-3.9c0.8-1,1.8-1.8,2.8-2.3c1.8-1,3.4-1.1,4.5-0.4l3.5,2
											c-1.2-0.7-2.8-0.6-4.5,0.4c-1,0.6-1.9,1.4-2.8,2.3c-1,1.1-1.8,2.5-2.5,3.9c-0.7,1.6-1.1,3.2-1.1,4.8c0,2,0.7,3.4,1.9,4.1
											l-3.5-2c-1.1-0.7-1.8-2.1-1.9-4.1C279.4,290,279.8,288.4,280.5,286.8z"/>
										<path class="st90" d="M289.2,282.6c3.5-2,6.4-0.4,6.4,3.6s-2.8,8.9-6.3,11c-3.5,2-6.4,0.4-6.4-3.6
											C282.9,289.5,285.7,284.6,289.2,282.6z"/>
									</g>
									
										<linearGradient id="SVGID_18_" gradientUnits="userSpaceOnUse" x1="146.7404" y1="190.05" x2="155.8404" y2="190.05" gradientTransform="matrix(-1 0 0 -1 440.5074 480)">
										<stop  offset="0" style="stop-color:#323232"/>
										<stop  offset="0.629" style="stop-color:#201F1D"/>
										<stop  offset="1" style="stop-color:#12100C"/>
									</linearGradient>
									<path class="st104" d="M289.2,284.7c2.5-1.5,4.6-0.3,4.6,2.6s-2,6.4-4.5,7.9s-4.6,0.3-4.6-2.6
										C284.7,289.6,286.7,286.1,289.2,284.7z"/>
									<g>
										<g class="st7">
											<g>
												
													<linearGradient id="SVGID_19_" gradientUnits="userSpaceOnUse" x1="153.4958" y1="193.9538" x2="149.2314" y2="186.5675" gradientTransform="matrix(-1 0 0 -1 440.5074 480)">
													<stop  offset="0" style="stop-color:#CFE7EB"/>
													<stop  offset="0.5094" style="stop-color:#A4B9BB"/>
													<stop  offset="1" style="stop-color:#7F9191"/>
												</linearGradient>
												<path class="st105" d="M289,284.9c-2.3,1.4-4.1,4.7-4,7.4c0.1,2.7,2,3.7,4.3,2.3c2.3-1.4,4.1-4.7,4-7.4
													S291.3,283.5,289,284.9z"/>
											</g>
											<g class="st7">
												<g class="st7">
													<path class="st93" d="M293.3,287.3v0.2c0,2.5-1.6,5.6-3.8,7l-0.2,0.1C291.6,293.2,293.4,289.9,293.3,287.3L293.3,287.3
														z"/>
												</g>
											</g>
											<g>
												
													<linearGradient id="SVGID_20_" gradientUnits="userSpaceOnUse" x1="153.1842" y1="193.6604" x2="149.1262" y2="186.6318" gradientTransform="matrix(-1 0 0 -1 440.5074 480)">
													<stop  offset="0" style="stop-color:#ACC1C4"/>
													<stop  offset="1" style="stop-color:#748385"/>
												</linearGradient>
												<path class="st106" d="M293.3,287.4c0.1,2.5-1.6,5.7-3.8,7c-2.2,1.4-4,0.4-4.1-2.1s1.6-5.7,3.8-7
													C291.4,283.9,293.2,284.9,293.3,287.4z M289.2,285.7c-2,1.2-3.5,4.1-3.4,6.3c0.1,2.3,1.7,3.2,3.7,1.9
													c2-1.2,3.5-4.1,3.4-6.3C292.8,285.4,291.2,284.5,289.2,285.7L289.2,285.7z"/>
											</g>
											<g class="st7">
												<g class="st7">
													<path class="st93" d="M292.9,287.7v0.5c0,2-1.3,4.5-3.1,5.6l-0.4,0.2C291.4,292.8,293,290,292.9,287.7L292.9,287.7z"/>
												</g>
											</g>
											<g>
												
													<linearGradient id="SVGID_21_" gradientUnits="userSpaceOnUse" x1="152.3933" y1="192.7343" x2="149.1405" y2="187.1005" gradientTransform="matrix(-1 0 0 -1 440.5074 480)">
													<stop  offset="0" style="stop-color:#ACC1C4"/>
													<stop  offset="1" style="stop-color:#899B9C"/>
												</linearGradient>
												<path class="st107" d="M292.9,288.1c0.1,2-1.3,4.6-3.1,5.6c-1.8,1.1-3.2,0.3-3.3-1.7s1.3-4.6,3.1-5.6
													C291.4,285.3,292.9,286.1,292.9,288.1z M289.7,288.1c-1,0.6-1.7,2-1.7,3.1s0.8,1.5,1.8,0.9s1.7-2,1.7-3.1
													C291.4,287.9,290.6,287.5,289.7,288.1L289.7,288.1z"/>
											</g>
											<g class="st7">
												<g class="st7">
													<path class="st93" d="M291.5,288.9L291.5,288.9c0,0.1,0,0.2,0,0.2c0,1.1-0.7,2.4-1.6,3c-0.1,0-0.1,0.1-0.2,0.1h-0.1
														c0.1,0,0.1-0.1,0.2-0.1c1-0.6,1.7-2,1.7-3.1C291.5,289,291.5,288.9,291.5,288.9L291.5,288.9z"/>
												</g>
											</g>
											<path class="st93" d="M290,287.9l0.1,0.1c0.8-0.3,1.4,0,1.5,0.9v-0.1C291.4,288,290.7,287.6,290,287.9L290,287.9z"/>
											<path class="st93" d="M289.7,292.2L289.7,292.2c-0.8,0.4-1.5,0-1.5-1c0-0.5,0.1-1,0.4-1.5h-0.1c-0.2,0.5-0.4,1.1-0.4,1.5
												C288.1,292.2,288.8,292.6,289.7,292.2L289.7,292.2z"/>
											<g>
												
													<linearGradient id="SVGID_22_" gradientUnits="userSpaceOnUse" x1="151.5388" y1="191.3766" x2="149.8293" y2="188.4156" gradientTransform="matrix(-1 0 0 -1 440.5074 480)">
													<stop  offset="0" style="stop-color:#ACC1C4"/>
													<stop  offset="1" style="stop-color:#9AAEB0"/>
												</linearGradient>
												<path class="st108" d="M289.8,288.2c-0.9,0.6-1.6,1.9-1.6,3s0.8,1.5,1.7,0.9s1.6-1.9,1.6-3S290.7,287.6,289.8,288.2z"/>
											</g>
											<path class="st93" d="M289.9,285.4l0.3,0.7c1.5-0.6,2.7,0.2,2.7,2c0,0,0,0,0,0.1v-0.5c0,0,0,0,0-0.1
												C292.9,285.6,291.5,284.7,289.9,285.4L289.9,285.4z"/>
											<path class="st93" d="M289.7,284.5l0.2,0.4c1.9-0.8,3.3,0.2,3.4,2.5v0.1v-0.2v-0.1C293.2,284.8,291.7,283.7,289.7,284.5
												L289.7,284.5z"/>
											
												<linearGradient id="SVGID_23_" gradientUnits="userSpaceOnUse" x1="154.9045" y1="190.5168" x2="151.9787" y2="185.4492" gradientTransform="matrix(-1 0 0 -1 440.5074 480)">
												<stop  offset="0" style="stop-color:#CAE3E5"/>
												<stop  offset="1" style="stop-color:#9AAEB0"/>
											</linearGradient>
											<path class="st109" d="M289.5,294l0.4-0.2c-1.8,1.1-3.2,0.3-3.3-1.7c0-0.9,0.2-1.8,0.6-2.7l-0.7-0.3
												c-0.5,1-0.7,2.1-0.7,3.1C285.9,294.3,287.5,295.2,289.5,294L289.5,294z"/>
											<g class="st7">
												<g class="st7">
													
														<linearGradient id="SVGID_24_" gradientUnits="userSpaceOnUse" x1="155.8792" y1="190.6081" x2="152.4664" y2="184.6969" gradientTransform="matrix(-1 0 0 -1 440.5074 480)">
														<stop  offset="0" style="stop-color:#CAE3E5"/>
														<stop  offset="1" style="stop-color:#9AAEB0"/>
													</linearGradient>
													<path class="st110" d="M289.3,294.6l0.2-0.1c-2.2,1.4-4,0.4-4.1-2.1c0-1.1,0.3-2.3,0.8-3.4l-0.4-0.2
														c-0.5,1.2-0.9,2.5-0.8,3.6C285.1,295,287,296,289.3,294.6L289.3,294.6z"/>
													<g>
														<path class="st92" d="M289.7,288.1c0.1-0.1,0.2-0.1,0.3-0.1l0.1,0.1C289.9,288.1,289.8,288.1,289.7,288.1
															c-0.4,0.4-0.9,1-1.2,1.6h-0.1C288.7,289,289.2,288.4,289.7,288.1z"/>
														<path class="st92" d="M289.2,285.7c0.2-0.1,0.4-0.2,0.6-0.3l0.3,0.7c-0.2,0.1-0.4,0.2-0.6,0.3c-1,0.6-1.9,1.7-2.4,2.9
															l-0.7-0.3C287.1,287.6,288.1,286.4,289.2,285.7z"/>
														<path class="st92" d="M289,284.9c0.3-0.2,0.5-0.3,0.7-0.4l0.2,0.4c-0.2,0.1-0.5,0.2-0.7,0.4c-1.2,0.8-2.3,2.1-3,3.6
															l-0.4-0.2C286.5,287.1,287.7,285.7,289,284.9z"/>
													</g>
												</g>
											</g>
										</g>
										<path class="st111" d="M292.1,287.5c0.1-0.1,0.2-0.1,0.3-0.1c0,0.1,0,0.2-0.1,0.3c-0.1,0.1-0.2,0.1-0.3,0.1
											C292,287.8,292,287.6,292.1,287.5z M290.6,292.1c0,0.1,0.2,0.1,0.3-0.1c0.1-0.1,0.1-0.2,0.1-0.3c0-0.1-0.2-0.1-0.3,0.1
											C290.6,291.9,290.6,292,290.6,292.1z M287.6,290.5c0-0.1,0-0.2-0.1-0.2s-0.2,0.1-0.3,0.3c0,0.1,0,0.2,0.1,0.2
											C287.4,290.7,287.5,290.6,287.6,290.5z M292,289.7c0,0.1,0,0.2,0.1,0.2s0.2-0.1,0.3-0.3s0-0.2-0.1-0.2
											C292.2,289.5,292.1,289.6,292,289.7z M288.6,288.4c0,0.1,0.2,0.1,0.3-0.1c0.1-0.1,0.1-0.2,0.1-0.3c0-0.1-0.2-0.1-0.3,0.1
											C288.6,288.2,288.6,288.4,288.6,288.4z M287.2,292.7c0,0.1,0.2,0.1,0.3-0.1c0.1-0.1,0.1-0.2,0.1-0.3s-0.2-0.1-0.3,0.1
											C287.2,292.5,287.2,292.6,287.2,292.7z M288.6,293.1c0,0.1,0,0.2,0.1,0.2s0.2-0.1,0.3-0.3s0-0.2-0.1-0.2
											C288.8,292.9,288.7,293,288.6,293.1z M290.6,287.1c0,0.1,0,0.2,0.1,0.2s0.2-0.1,0.3-0.3c0-0.1,0-0.2-0.1-0.2
											C290.8,286.9,290.6,287,290.6,287.1z"/>
									</g>
								</g>
							</g>
							<g>
								<path class="st112" d="M266.1,303.7l-31.5-18.2c-0.1-1.6-0.1-4.5,0.3-8.3c0.1-0.8,0.2-1.6,0.3-2.4l31.5,18.2
									c-0.1,0.8-0.2,1.6-0.3,2.4C266,299.2,266,302.1,266.1,303.7L266.1,303.7z"/>
							</g>
							<path class="st88" d="M345.7,180.2c-0.4-0.3-0.9-0.3-1.5,0.1l-101.1,58.4l31.5,18.2l101.1-58.4c0.5-0.3,1-0.3,1.5-0.1
								L345.7,180.2z"/>
							<path class="st113" d="M241.9,240.8c-1.5,3.3-3,9.8-4.2,16.8c-1,5.8-1.9,12-2.5,17.2l31.5,18.2c0.6-5.2,1.5-11.4,2.5-17.2
								c1.3-7,2.7-13.5,4.2-16.8L241.9,240.8z M250.1,254.1l-4.3,10.5l-8.1,6.5c1.7-13.6,3.6-21.1,4.3-23.8l8.2,4.7L250.1,254.1
								L250.1,254.1z"/>
							<g>
								<g>
									<defs>
										<path id="SVGID_25_" d="M241.1,246.8c-0.8,2.9-1.6,6.6-2.3,11c-0.9,5.2-1.8,11-2.4,16.4l29.4,17
											c0.6-5.2,1.4-10.6,2.3-15.6c0.6-3.6,1.5-8.1,2.5-11.8L241.1,246.8z"/>
									</defs>
									<clipPath id="SVGID_26_">
										<use xlink:href="#SVGID_25_"  style="overflow:visible;"/>
									</clipPath>
									<g class="st114">
										<g>
											<path class="st115" d="M258.4,281.4c0.4,1.7,2.2,3.5,4,4.1c1.9,0.6,3.1-0.3,2.7-1.9c-0.4-1.7-2.2-3.5-4-4.1
												C259.3,278.9,258,279.7,258.4,281.4z M258.8,281.7c-0.3-1.4,0.8-2.2,2.4-1.6c1.6,0.5,3.2,2.1,3.5,3.5s-0.8,2.2-2.4,1.6
												C260.7,284.7,259.1,283.1,258.8,281.7z"/>
											<polygon class="st115" points="260.8,279.6 261.7,282.5 264.1,281.8 264.2,282.2 261.5,283 260.4,279.7 											"/>
										</g>
										<path class="st115" d="M235.9,274.6l4.4-2.9c0,0,18.4,7.7,27.1,15.4l-2.9,7.4l-28.7-17.8L235.9,274.6z"/>
										<path class="st116" d="M256.1,279.6c0.6,2.7,6.3,6.3,10.2,6.7c0,0-1.3-2.2-4.2-4.2C258.9,279.9,256.1,279.6,256.1,279.6z"
											/>
									</g>
								</g>
							</g>
							<path class="st117" d="M241.1,246.8c-0.8,2.9-1.6,6.6-2.3,11c-0.9,5.2-1.8,11-2.4,16.4l29.4,17c0.6-5.2,1.4-10.6,2.3-15.6
								c0.6-3.6,1.5-8.1,2.5-11.8L241.1,246.8z"/>
							<path class="st118" d="M376.5,199.5c1.9,1.9,2.8,8.8,3.3,16.2l-95.5,55.1c-0.7,0.4-1.4,1.2-1.7,2.1l-4.5,11.3l-11.4,8.8
								c0.6-5.2,1.5-11.4,2.5-17.2c1.3-7,2.7-13.5,4.2-16.8L376.5,199.5z"/>
							<path class="st119" d="M375.7,198.6c5.8-3.4,5.6,29.2,5.5,37c-0.5,0.8-1.3,3-1.8,3.8l-13.5,8.1l-0.2-3.2
								c-0.2-3.7-2.8-5.1-5.9-3.3l-1.5,0.9c-3,1.8-5.7,6.2-5.8,10.1l-0.2,3.4l-2.2,1.3l-0.2-3.2c-0.2-3.7-2.8-5.1-5.9-3.3l-1.5,0.9
								c-3,1.8-5.7,6.2-5.9,10.1l-0.2,3.4L297,287.4l-0.2-3.2c-0.2-3.7-2.8-5.1-5.9-3.3l-1.5,0.9c-3,1.8-5.7,6.2-5.8,10.1l-0.2,3.4
								l-16.1,9.3c-0.4-0.2-0.8-0.5-1.2-0.7c-0.1-1.6-0.1-4.5,0.3-8.3c0.1-0.8,0.2-1.6,0.3-2.4l11.4-8.8l4.5-11.3
								c0.4-0.9,1-1.7,1.7-2.1l95.5-55.1c-0.5-7.4-1.4-14.3-3.3-16.2L273.4,259c-0.2-0.1,0.8-1.8,1.2-2.1L375.7,198.6z"/>
							<g>
								<g class="st7">
									<path class="st119" d="M273.4,259l-31.5-18.2c-0.2-0.1,0.8-1.8,1.2-2.1l31.5,18.2C274.2,257.2,273.2,258.9,273.4,259
										L273.4,259z"/>
								</g>
							</g>
							<path class="st117" d="M273.4,264.2c0,0-2.4,7.5-4.6,24.9l8.1-6.5l4.3-10.5v-12.6L273.4,264.2z"/>
						</g>
						<polygon class="st120" points="281.3,276.2 281.6,275.3 281.6,259.4 281.3,259.6 						"/>
						<path class="st121" d="M381.1,220c0-0.2,0-0.4,0-0.6l-99.4,57.4v-1.5l-0.4,1v18.2l-12.3,6.9v-10.1l-0.4,0.3v10.5l13-7.4v-17.3
							L381.1,220z"/>
						<path class="st117" d="M305.2,257.4l-22,12.7c-0.2,0.1-0.3,0-0.3-0.1v-11c0-0.2,0.2-0.4,0.3-0.5l22-12.7
							c0.2-0.1,0.3,0,0.3,0.1v10.9C305.5,257.1,305.4,257.3,305.2,257.4z M329.4,243.1v-10.9c0-0.2-0.2-0.2-0.3-0.1l-22,12.7
							c-0.2,0.1-0.3,0.3-0.3,0.5v10.9c0,0.2,0.2,0.2,0.3,0.1l22-12.7C329.3,243.5,329.4,243.3,329.4,243.1z M353.3,229.3v-10.9
							c0-0.2-0.2-0.2-0.3-0.1L331,231c-0.2,0.1-0.3,0.3-0.3,0.5v10.9c0,0.2,0.2,0.2,0.3,0.1l22-12.7
							C353.1,229.7,353.3,229.5,353.3,229.3z M377.3,204.2l-22.5,13c-0.2,0.1-0.3,0.3-0.3,0.5v10.9c0,0.2,0.2,0.2,0.3,0.1l23.9-13.7
							C378.9,215,377.5,204.1,377.3,204.2z"/>
						<path class="st120" d="M329.4,232.2v10.9c0,0.2-0.2,0.4-0.3,0.5l-22,12.7c-0.2,0.1-0.3,0-0.3-0.1l0,0l22-12.7
							c0.2-0.1,0.3-0.3,0.3-0.5v-11h0.1C329.3,231.9,329.4,232,329.4,232.2z M377.3,204.2l-0.3,0.2c0.4,1.7,1.4,10.5,1.3,10.6
							l-23.9,13.6l0,0c0,0.2,0.2,0.2,0.3,0.1l23.9-13.7C378.9,215,377.5,204.1,377.3,204.2z M305.2,245.8L305.2,245.8l-0.1,11
							c0,0.2-0.2,0.4-0.3,0.5l-22,12.7l0,0c0,0.2,0.2,0.2,0.3,0.1l22-12.7c0.2-0.1,0.3-0.3,0.3-0.5V246
							C305.5,245.8,305.4,245.7,305.2,245.8z M353,218.2L353,218.2l-0.1,11c0,0.2-0.2,0.4-0.3,0.5l-22,12.7l0,0
							c0,0.2,0.2,0.2,0.3,0.1l22-12.7c0.2-0.1,0.3-0.3,0.3-0.5v-10.9C353.3,218.2,353.1,218.1,353,218.2z"/>
						<g class="st7">
							<g>
								<polygon class="st122" points="324,222.3 303.4,210.3 305.9,205.3 326.4,217.3 								"/>
							</g>
							<polygon class="st123" points="341.2,184.9 305.9,205.3 326.4,217.3 361.8,196.9 							"/>
							<polygon class="st112" points="341.2,184.9 305.9,205.3 326.4,217.3 361.8,196.9 							"/>
							<g>
								<polygon class="st124" points="361.8,196.9 363.2,199.6 324,222.3 326.4,217.3 								"/>
							</g>
						</g>
					</g>
					<g>
						<path class="st87" d="M269.5,277.7C269.5,277.7,269.6,277.7,269.5,277.7l3.8-1c0.2,0,0.3-0.2,0.2-0.4c0-0.2-0.2-0.3-0.4-0.2
							l-3.7,1c-0.2,0-0.3,0.2-0.2,0.4C269.3,277.6,269.4,277.7,269.5,277.7z"/>
						<path class="st87" d="M272.6,280.7c0.1,0,0.2-0.1,0.3-0.1c0.1-0.1,0-0.3-0.1-0.4l-3.3-1.9c-0.1-0.1-0.3,0-0.4,0.1
							c-0.1,0.1,0,0.3,0.1,0.4l3.3,1.9C272.5,280.7,272.6,280.7,272.6,280.7z"/>
						<g class="st7">
							<g class="st7">
								<g class="st7">
									<path class="st84" d="M274.7,283.3l0.5-0.3c0.2-0.1,0.3-0.3,0.3-0.6l-0.5,0.3C274.9,283,274.8,283.2,274.7,283.3
										L274.7,283.3z"/>
								</g>
							</g>
							<g class="st7">
								<g class="st7">
									<path class="st84" d="M272.7,274.8l0.5-0.3c-0.2-0.1-0.5-0.2-0.6-0.1l-0.5,0.3C272.2,274.6,272.5,274.6,272.7,274.8
										L272.7,274.8z"/>
								</g>
							</g>
							<g>
								<polygon class="st85" points="274.9,282.7 275.4,282.4 275.4,276.8 274.9,277.1 								"/>
							</g>
							<g>
								<polygon class="st86" points="274,275.5 274.5,275.2 273.2,274.5 272.7,274.8 								"/>
							</g>
							<g>
								<g class="st7">
									<path class="st84" d="M274.9,277.1l0.5-0.3c0-0.6-0.4-1.3-0.9-1.6l-0.5,0.3C274.5,275.8,274.9,276.5,274.9,277.1
										L274.9,277.1z"/>
								</g>
							</g>
							<g>
								<path class="st87" d="M272.7,274.8c-0.5-0.3-0.9-0.1-0.9,0.5v5.6c0,0.6,0.4,1.3,0.9,1.6l1.3,0.7c0.5,0.3,0.9,0.1,0.9-0.5
									v-5.6c0-0.6-0.4-1.3-0.9-1.6L272.7,274.8z"/>
							</g>
						</g>
					</g>
					<path class="st125" d="M377.6,232.8l-9.5,5.5V238l9.5-5.5V232.8z M377.6,231.7l-9.5,5.5v0.3l9.5-5.5V231.7z M377.6,230.8
						l-9.5,5.5v0.3l9.5-5.5V230.8z M377.6,234.2l-9.5,5.5v0.3l9.5-5.5V234.2z M377.6,230l-9.5,5.5v0.3l9.5-5.5V230z M377.6,233.4
						l-9.5,5.5v0.3l9.5-5.5V233.4z M377.6,238.5L368,244v0.3l9.5-5.5L377.6,238.5L377.6,238.5z M377.6,237.7l-9.5,5.5v0.3l9.5-5.5
						V237.7z M377.6,236.8l-9.5,5.5v0.3l9.5-5.5V236.8z M377.6,235.1l-9.5,5.5v0.3l9.5-5.5V235.1z M377.6,235.9l-9.5,5.5v0.3
						l9.5-5.5V235.9z"/>
				</g>
				<g>
					<polygon class="st126" points="243.6,288.7 256.3,296 256.3,292.5 243.6,285.2 					"/>
					<polygon class="st119" points="244.1,288.2 244.1,285.5 243.6,285.2 243.6,288.7 256.3,296 256.3,295.2 					"/>
				</g>
				<path class="st126" d="M259.3,293.4l5.3,3.1c0.3,0.2,0.5,0.5,0.5,0.8v4.1c0,0.3-0.3,0.5-0.6,0.3l-5.3-3.1
					c-0.3-0.2-0.5-0.5-0.5-0.8v-4.1C258.8,293.4,259.1,293.3,259.3,293.4z"/>
				<path class="st126" d="M236,279.9l5.3,3.1c0.3,0.2,0.5,0.5,0.5,0.8v4.1c0,0.3-0.3,0.5-0.6,0.3l-5.3-3.1
					c-0.3-0.2-0.5-0.5-0.5-0.8v-4.1C235.5,279.9,235.8,279.7,236,279.9z"/>
				<g>
					<path class="st127" d="M241,285.4c0,0-0.1,0-0.2-0.1l-4-2.3c-0.3-0.2-0.5-0.5-0.5-0.8v-1.4c0-0.1,0.1-0.1,0.1-0.1
						c0.1,0,0.1,0,0.2,0.1l4,2.3c0.3,0.2,0.5,0.5,0.5,0.8v1.4C241.1,285.3,241.1,285.4,241,285.4z"/>
					<path class="st127" d="M237.8,284.5l3,1.7c0.3,0.2,0.5,0.5,0.5,0.8v0.3c0,0.3-0.2,0.4-0.5,0.2l-3-1.7l0,0V284.5L237.8,284.5z"
						/>
					<path class="st128" d="M236.5,283.8l0.6,0.4c0.1,0,0.1,0.1,0.1,0.1v1.1c0,0.1,0,0.1-0.1,0l-0.6-0.4c-0.3-0.2-0.5-0.5-0.5-0.8
						V284C236,283.7,236.3,283.6,236.5,283.8z"/>
				</g>
				<g>
					<path class="st127" d="M264.2,298.9c-0.1,0-0.1,0-0.2-0.1l-4-2.3c-0.3-0.2-0.5-0.5-0.5-0.8v-1.4c0-0.1,0.1-0.1,0.1-0.1
						c0.1,0,0.1,0,0.2,0.1l4,2.3c0.3,0.2,0.5,0.5,0.5,0.8v1.4C264.3,298.9,264.3,298.9,264.2,298.9z"/>
					<path class="st127" d="M262.8,299l-3-1.7c-0.3-0.2-0.5-0.1-0.5,0.2v0.3c0,0.3,0.2,0.6,0.5,0.8l3,1.7l0,0V299L262.8,299z"/>
					<path class="st128" d="M264.1,299.8l-0.6-0.4c-0.1,0-0.1,0-0.1,0v1.1c0,0.1,0,0.1,0.1,0.1l0.6,0.4c0.3,0.2,0.5,0.1,0.5-0.2
						v-0.3C264.6,300.3,264.3,299.9,264.1,299.8z"/>
				</g>
				<path class="st129" d="M301.9,232.6l-8.2,4.8c-1,0.6-2.7,0.6-3.7,0l-14.1-8.1c-1-0.6-1-1.5,0-2.1l8.2-4.8c1-0.6,2.7-0.6,3.7,0
					l14.1,8.1C302.9,231,302.9,232,301.9,232.6z"/>
				<path class="st119" d="M275.8,228l8.2-4.8c1-0.6,2.7-0.6,3.7,0l14.1,8.1c0.3,0.2,0.5,0.4,0.6,0.6c0.3-0.5,0.1-1.1-0.6-1.5
					l-14.1-8.1c-1-0.6-2.7-0.6-3.7,0l-8.2,4.8c-0.7,0.4-0.9,1-0.6,1.5C275.3,228.4,275.5,228.1,275.8,228z"/>
			</g>
		</g>
	</g>
	<g id="glass">
		
			<linearGradient id="XMLID_2_" gradientUnits="userSpaceOnUse" x1="462.4571" y1="197.0625" x2="301.983" y2="479.7248" gradientTransform="matrix(1 0 0 -1 0 480)">
			<stop  offset="0" style="stop-color:#57F7E0"/>
			<stop  offset="7.776767e-02" style="stop-color:#57F7E0;stop-opacity:0.9222"/>
			<stop  offset="1" style="stop-color:#57F7E0;stop-opacity:0"/>
		</linearGradient>
		<path id="XMLID_2115_" class="st130" d="M274.4-74.7c-3.8,2.4-8.3,3.3-13.2,3.1c-0.1,0-0.1,0-0.2,0c0.1,0,0.1,0,0.2,0v465.9
			c2.9,0,5.9-0.7,8.8-2.1l187.1-108c3.5-1.9,5.2-3.6,5.2-6v-461.4L274.4-74.7z"/>
		
			<linearGradient id="XMLID_3_" gradientUnits="userSpaceOnUse" x1="60.1911" y1="195.7749" x2="188.8959" y2="424.6737" gradientTransform="matrix(1 0 0 -1 0 480)">
			<stop  offset="0" style="stop-color:#57F7E0"/>
			<stop  offset="7.776767e-02" style="stop-color:#57F7E0;stop-opacity:0.9222"/>
			<stop  offset="1" style="stop-color:#57F7E0;stop-opacity:0"/>
		</linearGradient>
		<path id="XMLID_2082_" class="st131" d="M261-71.6c-1.1,0-2.2,0-3.3-0.1c-0.1,0-0.1,0-0.2,0c-1.1-0.1-2.1-0.3-3.2-0.5
			c-0.7-0.2-1.3-0.4-2-0.6c-0.4-0.1-0.8-0.2-1.2-0.4c-1-0.4-2.1-0.9-3-1.4l-188-108.5v461.4c0.1,2.2,1.4,3.8,3.6,5.1l188.7,108.9
			c2.8,1.4,5.7,2,8.5,2.1c0.1,0,0.2,0,0.2,0v-466C261.1-71.6,261.1-71.6,261-71.6z"/>
	</g>
</g>
</svg>
