<?xml version="1.0" encoding="utf-8"?>
<!-- Generator: Adobe Illustrator 23.0.0, SVG Export Plug-In . SVG Version: 6.00 Build 0)  -->
<svg version="1.1" id="Layer_1" xmlns="http://www.w3.org/2000/svg" xmlns:xlink="http://www.w3.org/1999/xlink" x="0px" y="0px"
	 viewBox="0 0 522.8 477.3" style="enable-background:new 0 0 522.8 477.3;" xml:space="preserve">
<style type="text/css">
	.st0{fill:#DCEEFF;}
	.st1{fill:#A5CBFA;}
	.st2{fill:#C8E2FF;}
	.st3{fill:#FFFFFF;}
	.st4{fill:#344593;}
	.st5{fill:#1E3779;}
	.st6{fill:#031F60;}
	.st7{fill:#7FA5FA;}
	.st8{fill:#3476E5;}
	.st9{fill:#D5E2FF;}
	.st10{fill:#518AEE;}
	.st11{fill:#FDFDFD;}
	.st12{fill:#AEC6FF;}
	.st13{fill:#6E99EC;}
	.st14{fill:#0028AB;}
	.st15{fill:#7C98E7;}
	.st16{opacity:0.5;fill:#97AFEB;enable-background:new    ;}
	.st17{fill:#00186A;}
	.st18{fill:#001E88;}
	.st19{fill:none;stroke:#FFFFFF;stroke-width:0.75;stroke-linecap:round;stroke-linejoin:round;stroke-miterlimit:10;}
	.st20{fill:#004BD1;}
	.st21{fill:#F1F1F1;}
	.st22{fill:#D6D9E1;}
	.st23{opacity:0.5;fill:#D5E2FF;enable-background:new    ;}
	.st24{fill:#D1D4DB;}
	.st25{fill:#97AFEB;}
	.st26{opacity:0.3;fill:url(#XMLID_2_);enable-background:new    ;}
	.st27{opacity:0.5;fill:url(#XMLID_3_);enable-background:new    ;}
</style>
<g id="box">
	<g id="sub-box">
		<path id="XMLID_2069_" class="st0" d="M516.2,333.5L274.4,473c-3.7,2.1-8.4,3.1-13.2,3.1c-4.8,0-9.5-1-13.1-3.1L6.3,333.5
			c-3.7-2.1-5.5-4.9-5.5-7.6c0-2.8,1.8-5.5,5.5-7.6l38.4-22.1L248,178.7c7.3-4.2,19.1-4.2,26.4,0l241.7,139.6
			C523.4,322.4,523.4,329.3,516.2,333.5z"/>
		<path id="XMLID_2060_" class="st1" d="M261.2,421.1v55c-4.8,0-9.5-1-13.1-3.1L6.3,333.5c-3.7-2.1-5.5-4.9-5.5-7.6v-47.7
			c0-2,1-4,2.9-5.7l41,23.7L261.2,421.1z"/>
		<path id="XMLID_2056_" class="st2" d="M261.2,421.1v55c4.8,0,9.5-1,13.1-3.1l241.8-139.6c3.7-2.1,5.5-4.9,5.5-7.6v-47.7
			c0-2-1-4-2.9-5.7l-41,23.7L261.2,421.1z"/>
		<path id="XMLID_2035_" class="st0" d="M516.2,285.8L274.4,425.4c-3.7,2.1-8.4,3.1-13.2,3.1c-4.8,0-9.5-1-13.2-3.1L6.3,285.8
			c-3.7-2.1-5.5-4.8-5.5-7.6c0-2,1-4,2.9-5.7c0.7-0.7,1.6-1.3,2.6-1.9L248,131.1c7.3-4.2,19.1-4.2,26.4,0l241.7,139.5
			C523.4,274.8,523.4,281.7,516.2,285.8z"/>
		<g id="XMLID_2030_">
			<path class="st3" d="M261.2,128.9c4.8,0,9.3,1.1,12.7,3l241.7,139.5c3.2,1.9,5,4.3,4.9,6.8c0,2.5-1.8,4.9-4.9,6.7L273.9,424.5
				c-3.3,1.9-7.8,3-12.7,3s-9.4-1.1-12.7-3L6.8,285c-3.2-1.8-5-4.2-5-6.7c0-1.7,0.9-3.5,2.6-5c0.7-0.7,1.5-1.3,2.4-1.7l241.7-139.5
				C251.9,130,256.4,128.9,261.2,128.9 M261.2,127.9c-4.8,0-9.6,1.1-13.2,3.2L6.3,270.6c-1,0.6-1.9,1.2-2.6,1.9
				c-1.9,1.7-2.9,3.8-2.9,5.7c0,2.8,1.8,5.5,5.5,7.6L248,425.4c3.7,2.1,8.4,3.1,13.2,3.1c4.8,0,9.5-1,13.2-3.1l241.7-139.6
				c7.3-4.2,7.3-11,0-15.2L274.4,131.1C270.8,129,266,127.9,261.2,127.9L261.2,127.9z"/>
		</g>
		<path id="XMLID_1781_" class="st4" d="M252.4,164.2l-188.6,109c-4.9,2.8-4.9,7.4,0,10.2l188.7,108.9c4.9,2.8,12.7,2.8,17.6,0
			l188.7-108.9c4.9-2.8,4.9-7.4,0-10.2L270,164.2C265.2,161.4,257.3,161.4,252.4,164.2z"/>
		<path id="XMLID_1775_" class="st5" d="M458.7,273.2L270,164.2c-2.4-1.4-5.6-2.1-8.8-2.1v8.9l195.9,113.1l1.5-0.9
			C463.5,280.5,463.5,276,458.7,273.2z"/>
		<path id="XMLID_1772_" class="st6" d="M261.2,162.1c-3.2,0-6.4,0.7-8.8,2.1l-188.6,109c-4.9,2.8-4.9,7.4,0,10.2l1.5,0.9
			l195.9-113.1V162.1z"/>
	</g>
	<g id="smart-economy">
		<g id="XMLID_567_">
			<g id="XMLID_573_">
				<polygon id="XMLID_592_" class="st7" points="412.5,270.7 412.5,277.7 400.6,276.8 				"/>
				<g id="XMLID_581_">
					<polygon id="XMLID_590_" class="st7" points="136.8,288.8 136.8,295.4 187.4,324.4 193.2,321.1 					"/>
					<polygon id="XMLID_588_" class="st7" points="315,327.2 306.1,322.2 232.5,366.4 172.8,332.7 172.8,339.3 232.5,373.4 
						306.1,328.8 315,333.8 412.5,277.7 406.5,274.2 					"/>
					<polygon id="XMLID_1097_" class="st8" points="389.1,257.4 393.9,254.6 394,247.5 383,253.9 					"/>
					<polygon id="XMLID_1532_" class="st7" points="135.1,260 135.1,266.6 155.1,278.1 160.8,274.8 					"/>
					<polygon id="XMLID_998_" class="st9" points="389.1,257.4 383,253.9 394,247.5 313.4,202.2 302.5,208.7 261.5,184.6 
						134.8,259.8 135.1,260 160.8,274.8 155.1,278.1 136.8,288.8 193.2,321.1 187.4,324.4 172.8,332.7 232.5,366.4 306.1,322.2 
						315,327.2 406.5,274.2 412.5,270.7 					"/>
				</g>
				<polygon id="XMLID_579_" class="st8" points="306.1,322.2 306.1,328.8 315,333.8 315,327.2 				"/>
				<polygon id="XMLID_574_" class="st10" points="232.5,366.4 232.5,373.4 306.1,328.8 306.1,322.2 				"/>
			</g>
			<polygon id="XMLID_1541_" class="st11" points="387.3,256.3 343.6,282.5 301.8,258.2 336.7,238 336.8,229.1 308.7,245.4 
				255.4,214.4 255.4,223.2 301.2,249.8 294.2,253.8 285.1,248.5 285.1,257.3 286.7,258.2 276.6,264 284.2,268.4 294.2,262.6 
				336.2,286.9 217.4,357.9 225.3,362.1 394.8,260.7 			"/>
		</g>
		<g id="XMLID_61_">
			<g id="XMLID_223_">
				<g id="XMLID_1613_">
					<polygon id="XMLID_1886_" class="st12" points="215.5,217.2 235.4,205 258.7,218.8 238.7,230.8 					"/>
					<polygon id="XMLID_1883_" class="st13" points="215.5,226.2 238.7,239.4 238.7,230.8 215.5,217.2 					"/>
					<polygon id="XMLID_1880_" class="st14" points="238.7,230.8 258.7,218.8 258.7,227.7 238.7,239.4 					"/>
					<polygon id="XMLID_1877_" class="st10" points="218.3,217.3 238.7,228.9 238.6,132.6 218.1,120.7 					"/>
					<polygon id="XMLID_1874_" class="st14" points="238.6,132.6 255.8,122.7 255.8,218.9 238.7,228.9 					"/>
					<polygon id="XMLID_1871_" class="st15" points="218.1,120.7 235.2,111.1 255.8,122.7 238.6,132.6 219.2,121.3 					"/>
					<g id="XMLID_1864_">
						<polygon id="XMLID_1868_" class="st12" points="226.8,138.2 220,134.3 220,124.5 226.8,128.4 						"/>
						<polygon id="XMLID_1865_" class="st14" points="221.1,133.7 220,134.3 220,124.5 221.1,125.1 						"/>
					</g>
					<g id="XMLID_1857_">
						<polygon id="XMLID_1861_" class="st12" points="226.8,150.2 220,146.4 220,136.5 226.8,140.4 						"/>
						<polygon id="XMLID_1858_" class="st14" points="221.1,145.8 220,146.4 220,136.5 221.1,137.1 						"/>
					</g>
					<g id="XMLID_1850_">
						<polygon id="XMLID_1854_" class="st12" points="226.8,162.3 220,158.4 220,148.6 226.8,152.5 						"/>
						<polygon id="XMLID_1851_" class="st14" points="221.1,157.8 220,158.4 220,148.6 221.1,149.2 						"/>
					</g>
					<g id="XMLID_1843_">
						<polygon id="XMLID_1847_" class="st12" points="226.8,174.3 220,170.4 220,160.6 226.8,164.5 						"/>
						<polygon id="XMLID_1844_" class="st14" points="221.1,169.9 220,170.4 220,160.6 221.1,161.2 						"/>
					</g>
					<g id="XMLID_1836_">
						<polygon id="XMLID_1840_" class="st12" points="231.4,140.7 228.5,139.1 228.5,129.2 231.4,130.9 						"/>
						<polygon id="XMLID_1837_" class="st14" points="229.5,138.5 228.5,139.1 228.5,129.2 229.5,129.8 						"/>
					</g>
					<g id="XMLID_1829_">
						<polygon id="XMLID_1833_" class="st12" points="231.4,152.8 228.5,151.1 228.5,141.3 231.4,143 						"/>
						<polygon id="XMLID_1830_" class="st14" points="229.5,150.5 228.5,151.1 228.5,141.3 229.5,141.9 						"/>
					</g>
					<g id="XMLID_1822_">
						<polygon id="XMLID_1826_" class="st12" points="230.5,164.4 227.7,162.8 227.7,152.9 230.5,154.6 						"/>
						<polygon id="XMLID_1823_" class="st14" points="228.7,162.2 227.7,162.8 227.7,152.9 228.7,153.5 						"/>
					</g>
					<g id="XMLID_1815_">
						<polygon id="XMLID_1819_" class="st12" points="230.5,176.5 227.7,174.8 227.7,165 230.5,166.6 						"/>
						<polygon id="XMLID_1816_" class="st14" points="228.7,174.2 227.7,174.8 227.7,165 228.7,165.6 						"/>
					</g>
					<g id="XMLID_1808_">
						<polygon id="XMLID_1812_" class="st12" points="226.8,186.6 220,182.7 220,172.9 226.8,176.8 						"/>
						<polygon id="XMLID_1809_" class="st14" points="221.1,182.1 220,182.7 220,172.9 221.1,173.5 						"/>
					</g>
					<g id="XMLID_1801_">
						<polygon id="XMLID_1805_" class="st12" points="230.5,188.7 227.7,187.1 227.7,177.2 230.5,178.9 						"/>
						<polygon id="XMLID_1802_" class="st14" points="228.7,186.5 227.7,187.1 227.7,177.2 228.7,177.8 						"/>
					</g>
					<g id="XMLID_1794_">
						<polygon id="XMLID_1798_" class="st12" points="226.8,198.5 220,194.6 220,184.8 226.8,188.6 						"/>
						<polygon id="XMLID_1795_" class="st14" points="221.1,194 220,194.6 220,184.8 221.1,185.3 						"/>
					</g>
					<g id="XMLID_1787_">
						<polygon id="XMLID_1791_" class="st12" points="230.5,200.6 227.7,198.9 227.7,189.1 230.5,190.8 						"/>
						<polygon id="XMLID_1788_" class="st14" points="228.7,198.4 227.7,198.9 227.7,189.1 228.7,189.7 						"/>
					</g>
					<g id="XMLID_1780_">
						<polygon id="XMLID_1784_" class="st12" points="226.8,210.3 220,206.5 220,196.6 226.8,200.5 						"/>
						<polygon id="XMLID_463_" class="st14" points="221.1,205.9 220,206.5 220,196.6 221.1,197.2 						"/>
					</g>
					<g id="XMLID_1746_">
						<polygon id="XMLID_1777_" class="st12" points="230.5,212.5 227.7,210.8 227.7,201 230.5,202.7 						"/>
						<polygon id="XMLID_1753_" class="st14" points="228.7,210.2 227.7,210.8 227.7,201 228.7,201.6 						"/>
					</g>
					<g id="XMLID_1710_">
						<polygon id="XMLID_1714_" class="st16" points="241.4,143.8 244.3,142.2 244.3,132.4 241.4,134 						"/>
						<polygon id="XMLID_1711_" class="st17" points="244.3,142.2 245.3,142.2 245.3,132.4 244.3,132.4 						"/>
					</g>
					<g id="XMLID_1688_">
						<polygon id="XMLID_1692_" class="st16" points="241.4,158 244.3,156.5 244.3,146.6 241.4,148.2 						"/>
						<polygon id="XMLID_1689_" class="st17" points="244.3,156.5 245.3,156.5 245.3,146.7 244.3,146.7 						"/>
					</g>
					<g id="XMLID_1681_">
						<polygon id="XMLID_1685_" class="st16" points="241.4,172.9 244.3,171.4 244.3,161.5 241.4,163.1 						"/>
						<polygon id="XMLID_1682_" class="st17" points="244.3,171.4 245.3,171.4 245.3,161.5 244.3,161.5 						"/>
					</g>
					<g id="XMLID_1673_">
						<polygon id="XMLID_1677_" class="st16" points="241.4,187.8 244.3,186.3 244.3,176.4 241.4,178 						"/>
						<polygon id="XMLID_1674_" class="st17" points="244.3,186.3 245.3,186.3 245.3,176.4 244.3,176.4 						"/>
					</g>
					<g id="XMLID_1666_">
						<polygon id="XMLID_1670_" class="st16" points="249.3,139.4 252.1,137.8 252.1,128 249.3,129.6 						"/>
						<polygon id="XMLID_1667_" class="st17" points="252.1,137.8 253.1,137.8 253.1,128 252.1,128 						"/>
					</g>
					<g id="XMLID_1659_">
						<polygon id="XMLID_1663_" class="st16" points="249.3,153.7 252.1,152.1 252.1,142.3 249.3,143.8 						"/>
						<polygon id="XMLID_1660_" class="st17" points="252.1,152.1 253.1,152.1 253.1,142.3 252.1,142.3 						"/>
					</g>
					<g id="XMLID_1652_">
						<polygon id="XMLID_1656_" class="st16" points="249.3,168.6 252.1,167 252.1,157.2 249.3,158.7 						"/>
						<polygon id="XMLID_1653_" class="st17" points="252.1,167 253.1,167 253.1,157.2 252.1,157.2 						"/>
					</g>
					<g id="XMLID_1645_">
						<polygon id="XMLID_1649_" class="st16" points="249.3,183.4 252.1,181.9 252.1,172 249.3,173.6 						"/>
						<polygon id="XMLID_1646_" class="st17" points="252.1,181.9 253.1,181.9 253.1,172.1 252.1,172.1 						"/>
					</g>
					<g id="XMLID_1638_">
						<polygon id="XMLID_1642_" class="st16" points="241.4,202.4 244.3,200.8 244.3,191 241.4,192.6 						"/>
						<polygon id="XMLID_1639_" class="st17" points="244.3,200.8 245.3,200.8 245.3,191 244.3,191 						"/>
					</g>
					<g id="XMLID_1631_">
						<polygon id="XMLID_1635_" class="st16" points="249.3,198 252.1,196.4 252.1,186.6 249.3,188.2 						"/>
						<polygon id="XMLID_1632_" class="st17" points="252.1,196.4 253.1,196.4 253.1,186.6 252.1,186.6 						"/>
					</g>
					<g id="XMLID_1624_">
						<polygon id="XMLID_1628_" class="st16" points="241.4,216.4 244.3,214.8 244.3,205 241.4,206.5 						"/>
						<polygon id="XMLID_1625_" class="st17" points="244.3,214.8 245.3,214.8 245.3,205 244.3,205 						"/>
					</g>
					<g id="XMLID_1617_">
						<polygon id="XMLID_1621_" class="st16" points="249.3,212 252.1,210.4 252.1,200.6 249.3,202.1 						"/>
						<polygon id="XMLID_1618_" class="st17" points="252.1,210.4 253.1,210.4 253.1,200.6 252.1,200.6 						"/>
					</g>
					<polygon id="XMLID_1678_" class="st12" points="215.5,112.3 236.3,100.5 258.7,112.3 238.7,124.2 					"/>
					<polygon id="XMLID_818_" class="st13" points="215.5,119.7 238.7,132.9 238.7,124.2 215.5,112.3 					"/>
					<polygon id="XMLID_608_" class="st10" points="238.7,124.2 258.7,112.3 258.7,121.1 238.7,132.9 					"/>
				</g>
				<polygon id="XMLID_987_" class="st10" points="237.4,103.4 223.2,111.3 225.2,112.4 237.2,105.7 250.3,113.2 252.6,112 
					252.6,111.4 				"/>
			</g>
			<g id="XMLID_54_">
				<path id="XMLID_157_" class="st18" d="M244.4,76.3h-13.9c-1.8,0-3.2,1.4-3.2,3.2v13.9c0,1.8,1.4,3.2,3.2,3.2h5.7l0.8,1.2v12.5
					c0,0.2,0.2,0.4,0.4,0.4c0.2,0,0.4-0.2,0.4-0.4V97.8l0.9-1.2h5.7c1.8,0,3.2-1.4,3.2-3.2V79.5C247.7,77.7,246.2,76.3,244.4,76.3z"
					/>
				<g id="XMLID_55_">
					<polyline id="XMLID_105_" class="st19" points="230.2,88.5 234.2,85.7 237.9,89.1 243.2,82.8 					"/>
					<path id="XMLID_66_" class="st3" d="M235.6,85.7c0,0.7-0.6,1.3-1.3,1.3c-0.7,0-1.3-0.6-1.3-1.3c0-0.7,0.6-1.3,1.3-1.3
						C235,84.3,235.6,84.9,235.6,85.7z"/>
					<path id="XMLID_65_" class="st3" d="M239.2,88.7c0,0.7-0.6,1.3-1.3,1.3c-0.7,0-1.3-0.6-1.3-1.3c0-0.7,0.6-1.3,1.3-1.3
						C238.6,87.4,239.2,88,239.2,88.7z"/>
					<path id="XMLID_62_" class="st3" d="M244.8,82.3c0,0.7-0.6,1.3-1.3,1.3s-1.3-0.6-1.3-1.3c0-0.7,0.6-1.3,1.3-1.3
						C244.2,81,244.8,81.6,244.8,82.3z"/>
				</g>
			</g>
		</g>
		<g id="XMLID_51_">
			<polygon id="XMLID_1568_" class="st12" points="143.3,260.2 204.5,225.9 213.9,230.8 152.9,265.5 144.4,260.8 			"/>
			<g id="XMLID_1569_">
				<rect id="XMLID_1573_" x="200.6" y="229.7" class="st20" width="0.7" height="4"/>
				<path id="XMLID_1570_" class="st10" d="M204.2,227.1c0,1.8-1.4,3.2-3.2,3.2c-1.8,0-3.2-1.4-3.2-3.2c0-1.8,1.4-3.2,3.2-3.2
					C202.7,223.9,204.2,225.3,204.2,227.1z"/>
			</g>
			<g id="XMLID_1009_">
				<rect id="XMLID_1019_" x="156.8" y="254.5" class="st20" width="0.7" height="4"/>
				<circle id="XMLID_1011_" class="st10" cx="157.2" cy="251.9" r="3.2"/>
			</g>
			<g id="XMLID_1038_">
				<rect id="XMLID_1593_" x="150.4" y="258.6" class="st20" width="0.7" height="4"/>
				<path id="XMLID_1590_" class="st10" d="M153.9,256.1c0,1.8-1.4,3.2-3.2,3.2c-1.8,0-3.2-1.4-3.2-3.2c0-1.8,1.4-3.2,3.2-3.2
					C152.5,252.8,153.9,254.3,153.9,256.1z"/>
			</g>
		</g>
		<g id="XMLID_79_">
			<g id="XMLID_604_">
				<g id="XMLID_780_">
					<polygon id="XMLID_958_" class="st10" points="254.3,252.4 276.6,265.1 276.4,187.7 254.1,174.7 					"/>
					<polygon id="XMLID_954_" class="st14" points="276.4,187.7 295.3,176.8 295.3,254.3 276.6,265.1 					"/>
					<polygon id="XMLID_951_" class="st12" points="254.1,174.7 272.8,164.3 295.3,176.8 276.4,187.7 255.3,175.4 					"/>
					<g id="XMLID_941_">
						<polygon id="XMLID_945_" class="st12" points="260.3,191.9 256.2,189.6 256.2,178.8 260.3,181.2 						"/>
						<polygon id="XMLID_942_" class="st14" points="257.3,188.9 256.2,189.6 256.2,178.8 257.3,179.5 						"/>
					</g>
					<g id="XMLID_919_">
						<polygon id="XMLID_923_" class="st12" points="260.3,207.8 256.2,205.5 256.2,194.7 260.3,197.1 						"/>
						<polygon id="XMLID_920_" class="st14" points="257.3,204.8 256.2,205.5 256.2,194.7 257.3,195.4 						"/>
					</g>
					<g id="XMLID_912_">
						<polygon id="XMLID_916_" class="st12" points="260.3,223.7 256.2,221.4 256.2,210.7 260.3,213 						"/>
						<polygon id="XMLID_913_" class="st14" points="257.3,220.7 256.2,221.4 256.2,210.7 257.3,211.3 						"/>
					</g>
					<g id="XMLID_902_">
						<polygon id="XMLID_908_" class="st12" points="260.3,239.7 256.2,237.3 256.2,226.6 260.3,228.9 						"/>
						<polygon id="XMLID_903_" class="st14" points="257.3,236.7 256.2,237.3 256.2,226.6 257.3,227.2 						"/>
					</g>
					<g id="XMLID_857_">
						<polygon id="XMLID_861_" class="st16" points="279.6,199.9 282.7,198.2 282.7,187.5 279.6,189.2 						"/>
						<polygon id="XMLID_858_" class="st17" points="282.7,198.2 283.8,198.2 283.8,187.5 282.7,187.5 						"/>
					</g>
					<g id="XMLID_850_">
						<polygon id="XMLID_854_" class="st16" points="279.6,216.2 282.7,214.4 282.7,203.7 279.6,205.4 						"/>
						<polygon id="XMLID_851_" class="st17" points="282.7,214.4 283.8,214.4 283.8,203.7 282.7,203.7 						"/>
					</g>
					<g id="XMLID_843_">
						<polygon id="XMLID_847_" class="st16" points="279.6,232.4 282.7,230.7 282.7,220 279.6,221.7 						"/>
						<polygon id="XMLID_844_" class="st17" points="282.7,230.7 283.8,230.7 283.8,220 282.7,220 						"/>
					</g>
					<g id="XMLID_836_">
						<polygon id="XMLID_840_" class="st16" points="279.6,248.7 282.7,247 282.7,236.2 279.6,238 						"/>
						<polygon id="XMLID_837_" class="st17" points="282.7,247 283.8,246.9 283.8,236.2 282.7,236.2 						"/>
					</g>
					<g id="XMLID_921_">
						<polygon id="XMLID_943_" class="st16" points="288.1,195.1 291.2,193.4 291.2,182.7 288.1,184.4 						"/>
						<polygon id="XMLID_922_" class="st17" points="291.2,193.4 292.3,193.4 292.3,182.7 291.2,182.7 						"/>
					</g>
					<g id="XMLID_905_">
						<polygon id="XMLID_915_" class="st16" points="288.1,211.4 291.2,209.6 291.2,198.9 288.1,200.6 						"/>
						<polygon id="XMLID_910_" class="st17" points="291.2,209.6 292.3,209.6 292.3,198.9 291.2,198.9 						"/>
					</g>
					<g id="XMLID_884_">
						<polygon id="XMLID_900_" class="st16" points="288.1,227.6 291.2,225.9 291.2,215.2 288.1,216.9 						"/>
						<polygon id="XMLID_896_" class="st17" points="291.2,225.9 292.3,225.9 292.3,215.2 291.2,215.2 						"/>
					</g>
					<g id="XMLID_809_">
						<polygon id="XMLID_875_" class="st16" points="288.1,243.9 291.2,242.2 291.2,231.4 288.1,233.2 						"/>
						<polygon id="XMLID_815_" class="st17" points="291.2,242.2 292.3,242.2 292.3,231.4 291.2,231.4 						"/>
					</g>
				</g>
				<g id="XMLID_600_">
					<polygon id="XMLID_784_" class="st10" points="276.3,173.4 265.7,167.1 265.7,178.2 276.3,184.4 					"/>
					<polygon id="XMLID_783_" class="st12" points="265.7,167.1 276.7,160.8 287.4,167 276.3,173.4 					"/>
					<polygon id="XMLID_602_" class="st14" points="276.3,173.4 287.4,167 287.4,178.2 276.3,184.4 					"/>
				</g>
				<g id="XMLID_754_">
					<polygon id="XMLID_881_" class="st10" points="276.4,165.8 270.7,162.4 270.7,168.4 276.4,171.7 					"/>
					<polygon id="XMLID_874_" class="st12" points="270.7,162.4 276.6,158.9 282.4,162.3 276.4,165.8 					"/>
					<polygon id="XMLID_791_" class="st14" points="276.4,165.8 282.4,162.3 282.4,168.4 276.4,171.7 					"/>
				</g>
				<g id="XMLID_830_">
					<path id="XMLID_961_" class="st10" d="M278.1,162.8c0,0.5-0.8,0.7-1.7,0.3s-1.7-1.1-1.7-1.6s0.8-0.7,1.7-0.3
						C277.3,161.6,278.1,162.3,278.1,162.8z"/>
					<polygon id="XMLID_959_" class="st10" points="278.1,162.9 274.6,161.6 274.6,156.8 278.1,158 					"/>
					<path id="XMLID_833_" class="st14" d="M278.1,158.1c0,0.5-0.8,0.7-1.7,0.3c-1-0.3-1.7-1.1-1.7-1.6s0.8-0.7,1.7-0.3
						C277.3,156.8,278.1,157.6,278.1,158.1z"/>
				</g>
				<g id="XMLID_829_">
					<path id="XMLID_824_" class="st10" d="M277.2,157.7c0,0.2-0.3,0.3-0.8,0.2c-0.4-0.2-0.8-0.5-0.8-0.7s0.3-0.3,0.8-0.2
						C276.9,157.1,277.2,157.4,277.2,157.7z"/>
					<polygon id="XMLID_819_" class="st10" points="277.2,157.7 275.7,157.1 275.7,141.3 277.2,141.9 					"/>
					<path id="XMLID_826_" class="st14" d="M277.2,141.9c0,0.2-0.3,0.3-0.8,0.2c-0.4-0.2-0.8-0.5-0.8-0.7s0.3-0.3,0.8-0.2
						C276.9,141.3,277.2,141.6,277.2,141.9z"/>
				</g>
			</g>
			<g id="XMLID_48_">
				<path id="XMLID_94_" class="st18" d="M283.1,106.5h-13.9c-1.8,0-3.2,1.4-3.2,3.2v13.9c0,1.8,1.4,3.2,3.2,3.2h5.7l0.8,1.2v7.7
					c0,0.2,0.2,0.4,0.4,0.4s0.4-0.2,0.4-0.4v-7.6l0.9-1.2h5.7c1.8,0,3.2-1.4,3.2-3.2v-13.9C286.4,107.9,284.9,106.5,283.1,106.5z"/>
				<g id="XMLID_49_">
					<g>
						<path id="XMLID_596_" class="st3" d="M276.2,120.3c-0.5,0-0.9,0.4-0.9,0.9s0.4,0.9,0.9,0.9s0.9-0.4,0.9-0.9
							S276.7,120.3,276.2,120.3z"/>
						<g id="XMLID_589_">
							<path id="XMLID_595_" class="st3" d="M276.2,118c-0.9,0-1.7,0.4-2.3,0.9c-0.2,0.2-0.2,0.6,0,0.8l0,0c0.2,0.2,0.6,0.3,0.8,0
								c0.4-0.4,0.9-0.6,1.4-0.6c0.6,0,1.1,0.2,1.4,0.6c0.2,0.2,0.6,0.2,0.8,0l0,0c0.2-0.2,0.2-0.6,0-0.8
								C277.9,118.4,277.1,118,276.2,118z"/>
							<path id="XMLID_594_" class="st3" d="M276.2,112.1c-2.5,0-4.7,1-6.3,2.5c-0.2,0.2-0.2,0.6,0,0.8l0.1,0.1
								c0.2,0.2,0.6,0.3,0.8,0c1.4-1.4,3.3-2.2,5.5-2.2c2.1,0,4,0.8,5.5,2.2c0.2,0.2,0.6,0.2,0.8,0l0.1-0.1c0.2-0.2,0.2-0.6,0-0.8
								C280.9,113,278.6,112.1,276.2,112.1z"/>
							<path id="XMLID_593_" class="st3" d="M276.2,115.3c-1.6,0-3,0.6-4.1,1.6c-0.3,0.2-0.3,0.7,0,0.9l0,0c0.2,0.3,0.6,0.3,0.9,0
								c0.8-0.8,2-1.3,3.2-1.3s2.4,0.5,3.2,1.3c0.3,0.2,0.7,0.2,0.9,0l0,0c0.2-0.3,0.2-0.7,0-0.9
								C279.2,115.9,277.8,115.3,276.2,115.3z"/>
						</g>
					</g>
				</g>
			</g>
		</g>
		<g id="XMLID_778_">
			<g id="XMLID_771_">
				<polygon id="XMLID_898_" class="st21" points="230.5,271.3 245.5,284 245.4,172.9 230.4,164.6 				"/>
				<polygon id="XMLID_895_" class="st22" points="245.4,172.9 261.1,163.4 261.1,275.4 245.5,284 				"/>
				<polygon id="XMLID_892_" class="st3" points="230.4,164.6 246.7,155.2 261.1,163.4 245.4,172.9 				"/>
			</g>
			<g id="XMLID_623_">
				<g>
					<g id="XMLID_731_">
						<g id="XMLID_733_">
							<polygon class="st12" points="233.2,281.5 232.2,281.5 232.2,170.1 233.2,170.7 							"/>
						</g>
					</g>
					<g id="XMLID_727_">
						<g id="XMLID_730_">
							<polygon class="st12" points="234.9,282.5 233.9,282.4 233.9,171 234.9,171.6 							"/>
						</g>
					</g>
					<g id="XMLID_724_">
						<g id="XMLID_726_">
							<polygon class="st12" points="236.6,283.4 235.6,283.4 235.6,172 236.6,172.6 							"/>
						</g>
					</g>
					<g id="XMLID_720_">
						<g id="XMLID_723_">
							<polygon class="st12" points="238.3,284.4 237.2,284.4 237.2,173 238.3,173.6 							"/>
						</g>
					</g>
					<g id="XMLID_717_">
						<g id="XMLID_719_">
							<polygon class="st12" points="240,285.4 238.9,285.4 238.9,174 240,174.6 							"/>
						</g>
					</g>
					<g id="XMLID_713_">
						<g id="XMLID_716_">
							<polygon class="st12" points="241.7,286.3 240.6,286.3 240.6,174.9 241.7,175.5 							"/>
						</g>
					</g>
					<g id="XMLID_709_">
						<g id="XMLID_712_">
							<polygon class="st12" points="243.3,287.3 242.3,287.3 242.3,175.9 243.3,176.5 							"/>
						</g>
					</g>
				</g>
			</g>
			<g id="XMLID_792_">
				<g>
					<g id="XMLID_752_">
						<polygon id="XMLID_753_" class="st12" points="257.9,281.4 258.9,281.4 258.9,170 257.9,170.6 						"/>
					</g>
					<g id="XMLID_750_">
						<polygon id="XMLID_751_" class="st12" points="256.2,282.4 257.2,282.4 257.2,171 256.2,171.6 						"/>
					</g>
					<g id="XMLID_748_">
						<polygon id="XMLID_749_" class="st12" points="254.5,283.4 255.5,283.3 255.5,171.9 254.5,172.5 						"/>
					</g>
					<g id="XMLID_745_">
						<polygon id="XMLID_747_" class="st12" points="252.8,284.3 253.9,284.3 253.9,172.9 252.8,173.5 						"/>
					</g>
					<g id="XMLID_741_">
						<polygon id="XMLID_744_" class="st12" points="251.1,285.3 252.2,285.3 252.2,173.9 251.1,174.5 						"/>
					</g>
					<g id="XMLID_738_">
						<polygon id="XMLID_740_" class="st12" points="249.4,286.3 250.5,286.2 250.5,174.8 249.4,175.4 						"/>
					</g>
					<g id="XMLID_734_">
						<polygon id="XMLID_737_" class="st12" points="247.8,287.2 248.8,287.2 248.8,175.8 247.8,176.4 						"/>
					</g>
				</g>
			</g>
		</g>
		<g id="XMLID_64_">
			<g id="XMLID_60_">
				<g id="XMLID_45_">
					<polygon id="XMLID_266_" class="st12" points="145.7,288.9 206.9,254.6 243.6,275.2 182.7,309.9 146.8,289.6 					"/>
					<g id="XMLID_1005_">
						<rect id="XMLID_1012_" x="154.6" y="284.9" class="st20" width="0.7" height="4"/>
						<circle id="XMLID_1008_" class="st10" cx="154.9" cy="282.4" r="3.2"/>
					</g>
				</g>
				<g id="XMLID_994_">
					<polygon id="XMLID_1446_" class="st12" points="158.7,283.7 178.6,271.5 201.9,285.3 181.8,297.2 					"/>
					<polygon id="XMLID_1301_" class="st13" points="158.7,292.7 181.8,305.9 181.8,297.2 158.7,283.7 					"/>
					<polygon id="XMLID_1183_" class="st14" points="181.8,297.2 201.9,285.3 201.9,294.2 181.8,305.9 					"/>
					<polygon id="XMLID_1226_" class="st10" points="161.4,283.7 181.9,295.3 181.7,199.1 161.3,187.2 					"/>
					<polygon id="XMLID_1223_" class="st14" points="181.7,199.1 199,189.1 199,285.4 181.9,295.3 					"/>
					<polygon id="XMLID_1220_" class="st12" points="161.3,187.2 178.4,177.6 199,189.1 181.7,199.1 162.3,187.8 					"/>
					<g id="XMLID_1213_">
						<polygon id="XMLID_1217_" class="st12" points="170,204.7 163.2,200.8 163.2,191 170,194.8 						"/>
						<polygon id="XMLID_1214_" class="st14" points="164.2,200.2 163.2,200.8 163.2,191 164.2,191.5 						"/>
					</g>
					<g id="XMLID_1206_">
						<polygon id="XMLID_1210_" class="st12" points="170,216.7 163.2,212.8 163.2,203 170,206.9 						"/>
						<polygon id="XMLID_1207_" class="st14" points="164.2,212.2 163.2,212.8 163.2,203 164.2,203.6 						"/>
					</g>
					<g id="XMLID_1198_">
						<polygon id="XMLID_1203_" class="st12" points="170,228.8 163.2,224.9 163.2,215 170,218.9 						"/>
						<polygon id="XMLID_1199_" class="st14" points="164.2,224.3 163.2,224.9 163.2,215 164.2,215.6 						"/>
					</g>
					<g id="XMLID_1191_">
						<polygon id="XMLID_1195_" class="st12" points="170,240.8 163.2,236.9 163.2,227.1 170,231 						"/>
						<polygon id="XMLID_1192_" class="st14" points="164.2,236.3 163.2,236.9 163.2,227.1 164.2,227.7 						"/>
					</g>
					<g id="XMLID_1186_">
						<polygon id="XMLID_1194_" class="st12" points="174.6,207.2 171.7,205.5 171.7,195.7 174.6,197.4 						"/>
						<polygon id="XMLID_1187_" class="st14" points="172.7,205 171.7,205.5 171.7,195.7 172.7,196.3 						"/>
					</g>
					<g id="XMLID_1172_">
						<polygon id="XMLID_1179_" class="st12" points="174.6,219.2 171.7,217.6 171.7,207.8 174.6,209.4 						"/>
						<polygon id="XMLID_1174_" class="st14" points="172.7,217 171.7,217.6 171.7,207.8 172.7,208.3 						"/>
					</g>
					<g id="XMLID_1128_">
						<polygon id="XMLID_1167_" class="st12" points="173.7,230.9 170.8,229.2 170.8,219.4 173.7,221.1 						"/>
						<polygon id="XMLID_1132_" class="st14" points="171.9,228.6 170.8,229.2 170.8,219.4 171.9,220 						"/>
					</g>
					<g id="XMLID_991_">
						<polygon id="XMLID_1096_" class="st12" points="173.7,242.9 170.8,241.3 170.8,231.4 173.7,233.1 						"/>
						<polygon id="XMLID_997_" class="st14" points="171.9,240.7 170.8,241.3 170.8,231.4 171.9,232 						"/>
					</g>
					<g id="XMLID_1108_">
						<polygon id="XMLID_1168_" class="st12" points="170,253.1 163.2,249.2 163.2,239.3 170,243.2 						"/>
						<polygon id="XMLID_1114_" class="st14" points="164.2,248.6 163.2,249.2 163.2,239.3 164.2,239.9 						"/>
					</g>
					<g id="XMLID_995_">
						<polygon id="XMLID_1099_" class="st12" points="173.7,255.2 170.8,253.5 170.8,243.7 173.7,245.4 						"/>
						<polygon id="XMLID_1001_" class="st14" points="171.9,252.9 170.8,253.5 170.8,243.7 171.9,244.3 						"/>
					</g>
					<g id="XMLID_1456_">
						<polygon id="XMLID_1464_" class="st12" points="170,264.9 163.2,261.1 163.2,251.2 170,255.1 						"/>
						<polygon id="XMLID_1461_" class="st14" points="164.2,260.5 163.2,261.1 163.2,251.2 164.2,251.8 						"/>
					</g>
					<g id="XMLID_1298_">
						<polygon id="XMLID_1447_" class="st12" points="173.7,267.1 170.8,265.4 170.8,255.6 173.7,257.3 						"/>
						<polygon id="XMLID_1300_" class="st14" points="171.9,264.8 170.8,265.4 170.8,255.6 171.9,256.2 						"/>
					</g>
					<g id="XMLID_1474_">
						<polygon id="XMLID_1478_" class="st12" points="170,276.8 163.2,272.9 163.2,263.1 170,267 						"/>
						<polygon id="XMLID_1475_" class="st14" points="164.2,272.3 163.2,272.9 163.2,263.1 164.2,263.7 						"/>
					</g>
					<g id="XMLID_1467_">
						<polygon id="XMLID_1471_" class="st12" points="173.7,279 170.8,277.3 170.8,267.5 173.7,269.1 						"/>
						<polygon id="XMLID_1468_" class="st14" points="171.9,276.7 170.8,277.3 170.8,267.5 171.9,268.1 						"/>
					</g>
					<g id="XMLID_1184_">
						<polygon id="XMLID_1188_" class="st16" points="184.6,210.3 187.4,208.7 187.4,198.9 184.6,200.4 						"/>
						<polygon id="XMLID_1185_" class="st17" points="187.4,208.7 188.5,208.7 188.5,198.9 187.4,198.9 						"/>
					</g>
					<g id="XMLID_1176_">
						<polygon id="XMLID_1180_" class="st16" points="184.6,224.5 187.4,222.9 187.4,213.1 184.6,214.7 						"/>
						<polygon id="XMLID_1177_" class="st17" points="187.4,222.9 188.5,222.9 188.5,213.1 187.4,213.1 						"/>
					</g>
					<g id="XMLID_1169_">
						<polygon id="XMLID_1173_" class="st16" points="184.6,239.4 187.4,237.8 187.4,228 184.6,229.6 						"/>
						<polygon id="XMLID_1170_" class="st17" points="187.4,237.8 188.5,237.8 188.5,228 187.4,228 						"/>
					</g>
					<g id="XMLID_1162_">
						<polygon id="XMLID_1166_" class="st16" points="184.6,254.3 187.4,252.7 187.4,242.9 184.6,244.5 						"/>
						<polygon id="XMLID_1163_" class="st17" points="187.4,252.7 188.5,252.7 188.5,242.9 187.4,242.9 						"/>
					</g>
					<g id="XMLID_1155_">
						<polygon id="XMLID_1159_" class="st16" points="192.4,205.9 195.3,204.3 195.3,194.5 192.4,196 						"/>
						<polygon id="XMLID_1156_" class="st17" points="195.3,204.3 196.3,204.3 196.3,194.5 195.3,194.5 						"/>
					</g>
					<g id="XMLID_1148_">
						<polygon id="XMLID_1152_" class="st16" points="192.4,220.1 195.3,218.6 195.3,208.7 192.4,210.3 						"/>
						<polygon id="XMLID_1149_" class="st17" points="195.3,218.6 196.3,218.5 196.3,208.7 195.3,208.7 						"/>
					</g>
					<g id="XMLID_1141_">
						<polygon id="XMLID_1145_" class="st16" points="192.4,235 195.3,233.4 195.3,223.6 192.4,225.2 						"/>
						<polygon id="XMLID_1142_" class="st17" points="195.3,233.4 196.3,233.4 196.3,223.6 195.3,223.6 						"/>
					</g>
					<g id="XMLID_1134_">
						<polygon id="XMLID_1138_" class="st16" points="192.4,249.9 195.3,248.3 195.3,238.5 192.4,240.1 						"/>
						<polygon id="XMLID_1135_" class="st17" points="195.3,248.3 196.3,248.3 196.3,238.5 195.3,238.5 						"/>
					</g>
					<g id="XMLID_1488_">
						<polygon id="XMLID_1492_" class="st16" points="184.6,268.9 187.4,267.3 187.4,257.5 184.6,259.1 						"/>
						<polygon id="XMLID_1489_" class="st17" points="187.4,267.3 188.5,267.3 188.5,257.5 187.4,257.5 						"/>
					</g>
					<g id="XMLID_1481_">
						<polygon id="XMLID_1485_" class="st16" points="192.4,264.5 195.3,262.9 195.3,253.1 192.4,254.7 						"/>
						<polygon id="XMLID_1482_" class="st17" points="195.3,262.9 196.3,262.9 196.3,253.1 195.3,253.1 						"/>
					</g>
					<g id="XMLID_1502_">
						<polygon id="XMLID_1506_" class="st16" points="184.6,282.8 187.4,281.3 187.4,271.4 184.6,273 						"/>
						<polygon id="XMLID_1503_" class="st17" points="187.4,281.3 188.5,281.2 188.5,271.4 187.4,271.4 						"/>
					</g>
					<g id="XMLID_1495_">
						<polygon id="XMLID_1499_" class="st16" points="192.4,278.4 195.3,276.9 195.3,267 192.4,268.6 						"/>
						<polygon id="XMLID_1496_" class="st17" points="195.3,276.9 196.3,276.9 196.3,267 195.3,267 						"/>
					</g>
				</g>
			</g>
			<g id="XMLID_26_">
				<g id="XMLID_40_">
					<path id="XMLID_41_" class="st18" d="M186.9,138.9H173c-1.8,0-3.2,1.4-3.2,3.2V156c0,1.8,1.4,3.2,3.2,3.2h5.7l0.8,1.2v14.5
						c0,0.2,0.2,0.4,0.4,0.4c0.2,0,0.4-0.2,0.4-0.4v-14.4l0.9-1.2h5.7c1.8,0,3.2-1.4,3.2-3.2v-14
						C190.2,140.3,188.7,138.9,186.9,138.9z"/>
				</g>
				<g id="XMLID_27_">
					<path id="XMLID_28_" class="st3" d="M180.8,153.4v1.6h-1.4v-1.6c-1.4-0.1-2.8-0.5-3.6-1.2l0.8-1.8c0.7,0.5,1.8,0.9,2.8,1V149
						c-1.6-0.4-3.4-0.9-3.4-3c0-1.5,1.1-2.9,3.4-3.1v-1.6h1.4v1.6c1.1,0.1,2.1,0.4,2.9,0.9l-0.7,1.8c-0.7-0.4-1.5-0.7-2.2-0.8v2.5
						c1.6,0.4,3.4,0.9,3.4,3C184.2,151.8,183.1,153.2,180.8,153.4z M179.4,147v-2.1c-0.8,0.2-1.1,0.6-1.1,1.1S178.7,146.8,179.4,147
						z M181.8,150.5c0-0.5-0.4-0.8-1-1v2C181.5,151.4,181.8,151,181.8,150.5z"/>
				</g>
			</g>
		</g>
		<g id="XMLID_74_">
			<g id="XMLID_575_">
				<polygon id="XMLID_711_" class="st12" points="221.4,314.4 252.4,332.3 252.4,297.1 221.3,278.9 				"/>
				<polygon id="XMLID_640_" class="st10" points="313.4,262.5 252.4,297.1 252.4,332.3 313.4,297.1 				"/>
				<polygon id="XMLID_705_" class="st9" points="221.3,278.9 282.5,244.6 313.4,262.5 252.4,297.1 222.4,279.5 				"/>
				<g id="XMLID_646_">
					<g id="XMLID_617_">
						<polygon id="XMLID_621_" class="st23" points="257,309.6 260,307.8 260,297 257,298.9 						"/>
						<polygon id="XMLID_618_" class="st20" points="260,307.8 261.2,307.7 261.2,297 260,297 						"/>
					</g>
					<g id="XMLID_610_">
						<polygon id="XMLID_614_" class="st23" points="257,325.9 260,324.1 260,313.3 257,315.1 						"/>
						<polygon id="XMLID_611_" class="st20" points="260.1,324.1 261.2,324 261.2,313.3 260,313.3 						"/>
					</g>
					<g id="XMLID_597_">
						<polygon id="XMLID_601_" class="st23" points="263,306.1 266.1,304.3 266.1,293.5 263,295.4 						"/>
						<polygon id="XMLID_598_" class="st20" points="266.1,304.3 267.2,304.2 267.2,293.5 266.1,293.5 						"/>
					</g>
					<g id="XMLID_565_">
						<polygon id="XMLID_570_" class="st23" points="263,322.4 266.1,320.6 266.1,309.8 263,311.6 						"/>
						<polygon id="XMLID_566_" class="st20" points="266.1,320.6 267.2,320.5 267.2,309.8 266.1,309.8 						"/>
					</g>
					<g id="XMLID_654_">
						<polygon id="XMLID_658_" class="st23" points="269.1,302.6 272.2,300.8 272.2,290 269.1,291.9 						"/>
						<polygon id="XMLID_655_" class="st20" points="272.2,300.8 273.3,300.7 273.3,290 272.2,290 						"/>
					</g>
					<g id="XMLID_647_">
						<polygon id="XMLID_651_" class="st23" points="269.1,318.9 272.2,317.1 272.2,306.3 269.1,308.1 						"/>
						<polygon id="XMLID_648_" class="st20" points="272.2,317.1 273.3,317 273.3,306.3 272.2,306.3 						"/>
					</g>
					<g id="XMLID_668_">
						<polygon id="XMLID_672_" class="st23" points="275.1,299.1 278.2,297.3 278.2,286.5 275.1,288.4 						"/>
						<polygon id="XMLID_669_" class="st20" points="278.2,297.3 279.3,297.2 279.3,286.5 278.2,286.5 						"/>
					</g>
					<g id="XMLID_661_">
						<polygon id="XMLID_665_" class="st23" points="275.1,315.4 278.2,313.6 278.2,302.8 275.1,304.6 						"/>
						<polygon id="XMLID_662_" class="st20" points="278.2,313.6 279.3,313.5 279.3,302.8 278.2,302.8 						"/>
					</g>
					<g id="XMLID_683_">
						<polygon id="XMLID_687_" class="st23" points="281.2,295.6 284.3,293.8 284.3,283 281.2,284.9 						"/>
						<polygon id="XMLID_684_" class="st20" points="284.3,293.8 285.4,293.7 285.4,283 284.3,283 						"/>
					</g>
					<g id="XMLID_675_">
						<polygon id="XMLID_680_" class="st23" points="281.2,311.9 284.3,310.1 284.3,299.3 281.2,301.1 						"/>
						<polygon id="XMLID_676_" class="st20" points="284.3,310.1 285.4,310 285.4,299.3 284.3,299.3 						"/>
					</g>
					<g id="XMLID_697_">
						<polygon id="XMLID_701_" class="st23" points="287.2,292.1 290.3,290.3 290.3,279.5 287.2,281.4 						"/>
						<polygon id="XMLID_698_" class="st20" points="290.3,290.3 291.4,290.2 291.4,279.5 290.3,279.5 						"/>
					</g>
					<g id="XMLID_690_">
						<polygon id="XMLID_694_" class="st23" points="287.2,308.4 290.3,306.6 290.3,295.8 287.2,297.6 						"/>
						<polygon id="XMLID_691_" class="st20" points="290.3,306.6 291.4,306.5 291.4,295.8 290.3,295.8 						"/>
					</g>
					<g id="XMLID_714_">
						<polygon id="XMLID_718_" class="st23" points="293.3,288.6 296.4,286.8 296.4,276 293.3,277.9 						"/>
						<polygon id="XMLID_715_" class="st20" points="296.4,286.8 297.5,286.7 297.5,276 296.4,276 						"/>
					</g>
					<g id="XMLID_706_">
						<polygon id="XMLID_710_" class="st23" points="293.3,304.9 296.4,303.1 296.4,292.3 293.3,294.1 						"/>
						<polygon id="XMLID_707_" class="st20" points="296.4,303.1 297.5,303 297.5,292.3 296.4,292.3 						"/>
					</g>
					<g id="XMLID_728_">
						<polygon id="XMLID_732_" class="st23" points="299.4,285.1 302.4,283.3 302.4,272.5 299.3,274.4 						"/>
						<polygon id="XMLID_729_" class="st20" points="302.4,283.3 303.5,283.2 303.5,272.5 302.4,272.5 						"/>
					</g>
					<g id="XMLID_721_">
						<polygon id="XMLID_725_" class="st23" points="299.4,301.4 302.4,299.6 302.4,288.8 299.4,290.6 						"/>
						<polygon id="XMLID_722_" class="st20" points="302.4,299.6 303.5,299.5 303.5,288.8 302.4,288.8 						"/>
					</g>
					<g id="XMLID_742_">
						<polygon id="XMLID_746_" class="st23" points="305.4,281.6 308.5,279.8 308.5,269 305.4,270.9 						"/>
						<polygon id="XMLID_743_" class="st20" points="308.5,279.8 309.6,279.7 309.6,269 308.5,269 						"/>
					</g>
					<g id="XMLID_735_">
						<polygon id="XMLID_739_" class="st23" points="305.4,297.9 308.5,296.1 308.5,285.3 305.4,287.1 						"/>
						<polygon id="XMLID_736_" class="st20" points="308.5,296.1 309.6,296 309.6,285.3 308.5,285.3 						"/>
					</g>
				</g>
				<g id="XMLID_236_">
					<polygon id="XMLID_215_" class="st12" points="285.6,265.7 275,259.4 275,260.9 285.6,267.1 					"/>
					<polygon id="XMLID_231_" class="st12" points="275,259.4 285.5,253.3 296.6,259.7 285.6,265.7 					"/>
					<polygon id="XMLID_232_" class="st10" points="285.6,265.7 296.6,259.7 296.7,260.9 285.6,267.1 					"/>
				</g>
				<g id="XMLID_576_">
					<polygon id="XMLID_603_" class="st12" points="269.9,274.4 259.3,268.1 259.3,269.5 269.9,275.8 					"/>
					<polygon id="XMLID_599_" class="st12" points="259.3,268.1 269.9,261.9 281,268.3 269.9,274.4 					"/>
					<polygon id="XMLID_577_" class="st10" points="269.9,274.4 281,268.3 281,269.5 269.9,275.8 					"/>
				</g>
				<g id="XMLID_763_">
					<polygon id="XMLID_768_" class="st12" points="254.1,283.4 243.5,277.1 243.5,278.5 254.1,284.7 					"/>
					<polygon id="XMLID_767_" class="st12" points="243.5,277.1 254,270.9 265.2,277.3 254.1,283.4 					"/>
					<polygon id="XMLID_764_" class="st10" points="254.1,283.4 265.2,277.3 265.2,278.5 254.1,284.7 					"/>
				</g>
			</g>
			<g id="XMLID_63_">
				<path id="XMLID_77_" class="st18" d="M275.3,230.6h-13.9c-1.8,0-3.2,1.4-3.2,3.2v13.9c0,1.8,1.4,3.2,3.2,3.2h5.7l0.8,1.2v14.5
					c0,0.2,0.2,0.4,0.4,0.4s0.4-0.2,0.4-0.4v-14.4l0.9-1.2h5.7c1.8,0,3.2-1.4,3.2-3.2v-13.9C278.5,232.1,277.1,230.6,275.3,230.6z"
					/>
				<g id="XMLID_24_">
					<g>
						<path id="XMLID_559_" class="st3" d="M265.1,243.2v-0.1V243.2h6.8c0.2,0,0.4-0.2,0.5-0.4l1.5-5.2c0-0.2,0-0.3-0.1-0.5
							c-0.1-0.1-0.3-0.2-0.4-0.2h-9l-0.2-1.1c-0.1-0.2-0.3-0.4-0.5-0.4h-2.2c-0.3,0-0.5,0.2-0.5,0.5s0.2,0.5,0.5,0.5h1.8l1.3,5.9
							c-0.4,0.2-0.7,0.6-0.7,1.1c0,0.7,0.5,1.2,1.2,1.3c-0.3,0.2-0.5,0.6-0.5,1c0,0.7,0.6,1.3,1.3,1.3s1.3-0.6,1.3-1.3
							c0-0.4-0.2-0.7-0.5-1h3.7c-0.3,0.2-0.5,0.6-0.5,1c0,0.7,0.6,1.3,1.3,1.3s1.3-0.6,1.3-1.3c0-0.4-0.2-0.8-0.5-1
							c0.3,0,0.5-0.2,0.5-0.5s-0.2-0.5-0.5-0.5h-6.8c-0.1,0-0.2-0.1-0.2-0.2C264.9,243.3,265,243.2,265.1,243.2z M271.2,245.9
							c-0.1,0-0.2-0.1-0.2-0.2s0.1-0.2,0.2-0.2s0.2,0.1,0.2,0.2S271.3,245.9,271.2,245.9z M265.9,245.5c0.1,0,0.2,0.1,0.2,0.2
							s-0.1,0.2-0.2,0.2c-0.1,0-0.2-0.1-0.2-0.2S265.7,245.5,265.9,245.5z M264.6,238h8.1l-1.2,4.2h-6L264.6,238z"/>
					</g>
				</g>
			</g>
		</g>
		<g id="XMLID_58_">
			<polygon id="XMLID_1612_" class="st12" points="358.4,287.2 395.1,267 404.5,271.9 368.1,292.5 			"/>
			<g id="XMLID_1536_">
				<rect id="XMLID_1534_" x="392.3" y="270.4" class="st20" width="0.7" height="4"/>
				<path id="XMLID_1518_" class="st10" d="M395.8,267.8c0,1.8-1.4,3.2-3.2,3.2s-3.2-1.4-3.2-3.2c0-1.8,1.4-3.2,3.2-3.2
					S395.8,266,395.8,267.8z"/>
			</g>
			<g id="XMLID_1539_">
				<rect id="XMLID_1547_" x="384.9" y="274.1" class="st20" width="0.7" height="4"/>
				<circle id="XMLID_1542_" class="st10" cx="385.2" cy="271.5" r="3.2"/>
			</g>
			<g id="XMLID_1552_">
				<rect id="XMLID_1558_" x="377.5" y="278.5" class="st20" width="0.7" height="4"/>
				<path id="XMLID_1555_" class="st10" d="M381,276c0,1.8-1.4,3.2-3.2,3.2s-3.2-1.4-3.2-3.2c0-1.8,1.4-3.2,3.2-3.2
					C379.6,272.8,381,274.2,381,276z"/>
			</g>
			<g id="XMLID_1561_">
				<rect id="XMLID_1565_" x="370.3" y="282.8" class="st20" width="0.7" height="4"/>
				<circle id="XMLID_1562_" class="st10" cx="370.6" cy="280.3" r="3.2"/>
			</g>
		</g>
		<g id="XMLID_46_">
			<polygon id="XMLID_276_" class="st12" points="190.6,333.7 216.9,318.1 248.9,336.1 222.9,352 			"/>
			<g id="XMLID_13_">
				<polygon id="XMLID_23_" class="st21" points="197.3,334.2 219.6,346.8 219.5,269.4 197.2,256.5 				"/>
				<polygon id="XMLID_204_" class="st22" points="219.5,269.4 238.3,257.9 238.3,336 219.6,346.8 				"/>
				<polygon id="XMLID_206_" class="st3" points="197.2,256.5 216.4,245.4 238.3,257.9 219.5,269.4 198.3,257.1 				"/>
				<polygon id="XMLID_224_" class="st24" points="216.5,247.8 201.7,256.2 202.8,256.8 203.7,257.4 216.3,250.3 232,259.3 
					234.2,258 				"/>
				<g id="XMLID_214_">
					<polygon id="XMLID_210_" class="st12" points="203.4,273.6 199.3,271.3 199.3,260.6 203.4,262.9 					"/>
					<polygon id="XMLID_213_" class="st10" points="200.4,270.6 199.3,271.3 199.3,260.6 200.4,261.2 					"/>
				</g>
				<g id="XMLID_217_">
					<polygon id="XMLID_226_" class="st12" points="203.4,289.6 199.3,287.2 199.3,276.5 203.4,278.8 					"/>
					<polygon id="XMLID_218_" class="st10" points="200.4,286.6 199.3,287.2 199.3,276.5 200.4,277.1 					"/>
				</g>
				<g id="XMLID_22_">
					<polygon id="XMLID_302_" class="st12" points="203.4,305.5 199.3,303.1 199.3,292.4 203.4,294.7 					"/>
					<polygon id="XMLID_275_" class="st10" points="200.4,302.5 199.3,303.1 199.3,292.4 200.4,293 					"/>
				</g>
				<g id="XMLID_310_">
					<polygon id="XMLID_317_" class="st12" points="203.4,321.4 199.3,319 199.3,308.3 203.4,310.7 					"/>
					<polygon id="XMLID_312_" class="st10" points="200.4,318.4 199.3,319 199.3,308.3 200.4,308.9 					"/>
				</g>
				<g id="XMLID_20_">
					<polygon id="XMLID_489_" class="st12" points="210.3,277.6 206.2,275.2 206.2,264.5 210.3,266.8 					"/>
					<polygon id="XMLID_486_" class="st10" points="207.3,274.6 206.2,275.2 206.2,264.5 207.3,265.1 					"/>
				</g>
				<g id="XMLID_478_">
					<polygon id="XMLID_482_" class="st12" points="210.3,293.5 206.2,291.1 206.2,280.4 210.3,282.8 					"/>
					<polygon id="XMLID_479_" class="st10" points="207.3,290.5 206.2,291.1 206.2,280.4 207.3,281 					"/>
				</g>
				<g id="XMLID_471_">
					<polygon id="XMLID_475_" class="st12" points="210.3,309.4 206.2,307 206.2,296.3 210.3,298.7 					"/>
					<polygon id="XMLID_472_" class="st10" points="207.3,306.4 206.2,307 206.2,296.3 207.3,297 					"/>
				</g>
				<g id="XMLID_16_">
					<polygon id="XMLID_468_" class="st12" points="210.3,325.3 206.2,323 206.2,312.2 210.3,314.6 					"/>
					<polygon id="XMLID_465_" class="st10" points="207.3,322.3 206.2,323 206.2,312.2 207.3,312.9 					"/>
				</g>
				<g id="XMLID_516_">
					<polygon id="XMLID_521_" class="st12" points="217.2,281.5 213.1,279.1 213.1,268.4 217.2,270.8 					"/>
					<polygon id="XMLID_517_" class="st10" points="214.2,278.5 213.1,279.1 213.1,268.4 214.2,269 					"/>
				</g>
				<g id="XMLID_80_">
					<g id="XMLID_524_">
						<polygon id="XMLID_528_" class="st16" points="223.2,281.6 226.3,279.9 226.3,269.2 223.2,270.9 						"/>
						<polygon id="XMLID_525_" class="st10" points="226.3,279.9 227.4,279.9 227.4,269.2 226.3,269.2 						"/>
					</g>
					<g id="XMLID_225_">
						<polygon id="XMLID_529_" class="st16" points="223.2,297.9 226.3,296.2 226.3,285.4 223.2,287.2 						"/>
						<polygon id="XMLID_229_" class="st10" points="226.3,296.2 227.4,296.2 227.4,285.5 226.3,285.4 						"/>
					</g>
					<g id="XMLID_532_">
						<polygon id="XMLID_540_" class="st16" points="223.2,314.1 226.3,312.4 226.3,301.7 223.2,303.4 						"/>
						<polygon id="XMLID_533_" class="st10" points="226.3,312.4 227.4,312.4 227.4,301.7 226.3,301.7 						"/>
					</g>
					<g id="XMLID_543_">
						<polygon id="XMLID_547_" class="st16" points="223.2,330.4 226.3,328.7 226.3,318 223.2,319.7 						"/>
						<polygon id="XMLID_14_" class="st10" points="226.3,328.7 227.4,328.7 227.4,318 226.3,318 						"/>
					</g>
					<g id="XMLID_1154_">
						<polygon id="XMLID_1161_" class="st16" points="230.7,277.1 233.7,275.4 233.7,264.6 230.7,266.4 						"/>
						<polygon id="XMLID_1157_" class="st10" points="233.7,275.4 234.8,275.4 234.8,264.6 233.7,264.6 						"/>
					</g>
					<g id="XMLID_1143_">
						<polygon id="XMLID_1150_" class="st16" points="230.7,293.3 233.7,291.6 233.7,280.9 230.7,282.6 						"/>
						<polygon id="XMLID_1144_" class="st10" points="233.7,291.6 234.8,291.6 234.8,280.9 233.7,280.9 						"/>
					</g>
					<g id="XMLID_1126_">
						<polygon id="XMLID_1137_" class="st16" points="230.7,309.6 233.7,307.9 233.7,297.2 230.7,298.9 						"/>
						<polygon id="XMLID_1131_" class="st10" points="233.7,307.9 234.8,307.9 234.8,297.2 233.7,297.2 						"/>
					</g>
					<g id="XMLID_123_">
						<polygon id="XMLID_128_" class="st16" points="230.7,325.9 233.7,324.1 233.7,313.4 230.7,315.1 						"/>
						<polygon id="XMLID_125_" class="st10" points="233.7,324.1 234.8,324.1 234.8,313.4 233.7,313.4 						"/>
					</g>
				</g>
				<g id="XMLID_508_">
					<polygon id="XMLID_512_" class="st12" points="217.2,297.4 213.1,295 213.1,284.3 217.2,286.7 					"/>
					<polygon id="XMLID_509_" class="st10" points="214.2,294.4 213.1,295 213.1,284.3 214.2,285 					"/>
				</g>
				<g id="XMLID_500_">
					<polygon id="XMLID_505_" class="st12" points="217.2,313.3 213.1,311 213.1,300.2 217.2,302.6 					"/>
					<polygon id="XMLID_501_" class="st10" points="214.2,310.3 213.1,311 213.1,300.2 214.2,300.9 					"/>
				</g>
				<g id="XMLID_492_">
					<polygon id="XMLID_497_" class="st12" points="217.2,329.2 213.1,326.9 213.1,316.1 217.2,318.5 					"/>
					<polygon id="XMLID_493_" class="st10" points="214.2,326.2 213.1,326.9 213.1,316.1 214.2,316.8 					"/>
				</g>
			</g>
			<g id="XMLID_1596_">
				<rect id="XMLID_1600_" x="227.8" y="341.9" class="st20" width="0.7" height="4"/>
				<path id="XMLID_1597_" class="st10" d="M231.4,339.3c0,1.8-1.4,3.2-3.2,3.2c-1.8,0-3.2-1.4-3.2-3.2s1.4-3.2,3.2-3.2
					C229.9,336.1,231.4,337.5,231.4,339.3z"/>
			</g>
			<g id="XMLID_1557_">
				<rect id="XMLID_1564_" x="234.6" y="337.6" class="st20" width="0.7" height="4"/>
				<path id="XMLID_1559_" class="st10" d="M238.2,335.1c0,1.8-1.4,3.2-3.2,3.2c-1.8,0-3.2-1.4-3.2-3.2s1.4-3.2,3.2-3.2
					C236.7,331.8,238.2,333.3,238.2,335.1z"/>
			</g>
		</g>
		<g id="XMLID_76_">
			<g id="XMLID_11_">
				<g id="XMLID_59_">
					<polygon id="XMLID_821_" class="st12" points="295.8,226.5 312,217.7 348.8,238.3 332.8,247.5 296.9,227.2 					"/>
					<polygon id="XMLID_298_" class="st12" points="306.4,258.4 344.3,235.8 376.4,253.8 338.6,276.7 					"/>
					<g id="XMLID_1041_">
						<rect id="XMLID_1579_" x="363" y="247.8" class="st20" width="0.7" height="4"/>
						<path id="XMLID_1576_" class="st10" d="M366.5,245.3c0,1.8-1.4,3.2-3.2,3.2s-3.2-1.4-3.2-3.2c0-1.8,1.4-3.2,3.2-3.2
							C365.1,242,366.5,243.5,366.5,245.3z"/>
					</g>
					<g id="XMLID_308_">
						<rect id="XMLID_1538_" x="355.8" y="245.2" class="st20" width="0.7" height="4"/>
						<path id="XMLID_309_" class="st10" d="M359.4,242.7c0,1.8-1.4,3.2-3.2,3.2s-3.2-1.4-3.2-3.2s1.4-3.2,3.2-3.2
							S359.4,240.9,359.4,242.7z"/>
					</g>
					<g id="XMLID_1703_">
						<rect id="XMLID_1893_" x="316.7" y="225" class="st20" width="0.7" height="4"/>
						<path id="XMLID_1705_" class="st10" d="M320.3,222.5c0,1.8-1.4,3.2-3.2,3.2s-3.2-1.4-3.2-3.2s1.4-3.2,3.2-3.2
							C318.8,219.2,320.3,220.7,320.3,222.5z"/>
					</g>
					<g id="XMLID_825_">
						<rect id="XMLID_849_" x="309.6" y="222.4" class="st20" width="0.7" height="4"/>
						<circle id="XMLID_841_" class="st10" cx="309.9" cy="219.8" r="3.2"/>
					</g>
				</g>
				<g id="XMLID_219_">
					<polygon id="XMLID_980_" class="st24" points="313.4,249.2 335.2,235.9 360.6,250.9 338.7,264 					"/>
					<polygon id="XMLID_1093_" class="st21" points="316.4,249.1 338.7,261.7 338.6,184.3 316.3,171.4 					"/>
					<polygon id="XMLID_1090_" class="st22" points="338.6,184.3 357.4,173.4 357.4,250.9 338.7,261.7 					"/>
					<polygon id="XMLID_1288_" class="st21" points="313.4,259 338.7,273.4 338.7,264 313.4,249.2 					"/>
					<polygon id="XMLID_220_" class="st22" points="338.7,264 360.6,250.9 360.6,260.6 338.7,273.4 					"/>
					<polygon id="XMLID_1087_" class="st24" points="316.3,171.4 335.4,160.3 357.4,173.4 338.6,184.3 317.4,172 					"/>
					<g id="XMLID_1077_">
						<polygon id="XMLID_1081_" class="st12" points="322.5,188.5 318.4,186.2 318.4,175.5 322.5,177.8 						"/>
						<polygon id="XMLID_1078_" class="st10" points="319.5,185.5 318.4,186.2 318.4,175.5 319.5,176.1 						"/>
					</g>
					<g id="XMLID_1070_">
						<polygon id="XMLID_1074_" class="st12" points="322.5,204.5 318.4,202.1 318.4,191.4 322.5,193.7 						"/>
						<polygon id="XMLID_1071_" class="st10" points="319.5,201.5 318.4,202.1 318.4,191.4 319.5,192 						"/>
					</g>
					<g id="XMLID_1063_">
						<polygon id="XMLID_1067_" class="st12" points="322.5,220.4 318.4,218 318.4,207.3 322.5,209.6 						"/>
						<polygon id="XMLID_1064_" class="st10" points="319.5,217.4 318.4,218 318.4,207.3 319.5,207.9 						"/>
					</g>
					<g id="XMLID_1056_">
						<polygon id="XMLID_1060_" class="st12" points="322.5,236.3 318.4,233.9 318.4,223.2 322.5,225.6 						"/>
						<polygon id="XMLID_1057_" class="st10" points="319.5,233.3 318.4,233.9 318.4,223.2 319.5,223.8 						"/>
					</g>
					<g id="XMLID_1049_">
						<polygon id="XMLID_1053_" class="st12" points="329.4,192.5 325.3,190.1 325.3,179.4 329.4,181.7 						"/>
						<polygon id="XMLID_1050_" class="st10" points="326.4,189.5 325.3,190.1 325.3,179.4 326.4,180 						"/>
					</g>
					<g id="XMLID_1042_">
						<polygon id="XMLID_1046_" class="st12" points="329.4,208.4 325.3,206 325.3,195.3 329.4,197.7 						"/>
						<polygon id="XMLID_1043_" class="st10" points="326.4,205.4 325.3,206 325.3,195.3 326.4,195.9 						"/>
					</g>
					<g id="XMLID_1035_">
						<polygon id="XMLID_1039_" class="st12" points="329.4,224.3 325.3,221.9 325.3,211.2 329.4,213.6 						"/>
						<polygon id="XMLID_1036_" class="st10" points="326.4,221.3 325.3,221.9 325.3,211.2 326.4,211.9 						"/>
					</g>
					<g id="XMLID_1028_">
						<polygon id="XMLID_1032_" class="st12" points="329.4,240.2 325.3,237.9 325.3,227.1 329.4,229.5 						"/>
						<polygon id="XMLID_1029_" class="st10" points="326.4,237.2 325.3,237.9 325.3,227.1 326.4,227.8 						"/>
					</g>
					<g id="XMLID_1021_">
						<polygon id="XMLID_1025_" class="st12" points="336.3,196.4 332.2,194 332.2,183.3 336.3,185.7 						"/>
						<polygon id="XMLID_1022_" class="st10" points="333.3,193.4 332.2,194 332.2,183.3 333.3,183.9 						"/>
					</g>
					<g id="XMLID_1014_">
						<polygon id="XMLID_1018_" class="st25" points="342,196.4 345.1,194.7 345.1,183.9 342,185.7 						"/>
						<polygon id="XMLID_1015_" class="st10" points="345.1,194.7 346.2,194.7 346.2,183.9 345.1,183.9 						"/>
					</g>
					<g id="XMLID_1006_">
						<polygon id="XMLID_1010_" class="st25" points="342,212.6 345.1,210.9 345.1,200.2 342,201.9 						"/>
						<polygon id="XMLID_1007_" class="st10" points="345.1,210.9 346.2,210.9 346.2,200.2 345.1,200.2 						"/>
					</g>
					<g id="XMLID_999_">
						<polygon id="XMLID_1003_" class="st25" points="342,228.9 345.1,227.2 345.1,216.5 342,218.2 						"/>
						<polygon id="XMLID_1000_" class="st10" points="345.1,227.2 346.2,227.2 346.2,216.5 345.1,216.5 						"/>
					</g>
					<g id="XMLID_992_">
						<polygon id="XMLID_996_" class="st25" points="342,245.2 345.1,243.4 345.1,232.7 342,234.4 						"/>
						<polygon id="XMLID_993_" class="st10" points="345.1,243.4 346.2,243.4 346.2,232.7 345.1,232.7 						"/>
					</g>
					<g id="XMLID_1111_">
						<polygon id="XMLID_1119_" class="st25" points="350,192.2 353,190.5 353,179.8 350,181.5 						"/>
						<polygon id="XMLID_1115_" class="st10" points="353.1,190.5 354.2,190.5 354.2,179.8 353.1,179.8 						"/>
					</g>
					<g id="XMLID_1083_">
						<polygon id="XMLID_1094_" class="st25" points="350,208.5 353,206.7 353,196 350,197.7 						"/>
						<polygon id="XMLID_1085_" class="st10" points="353.1,206.7 354.2,206.7 354.2,196 353.1,196 						"/>
					</g>
					<g id="XMLID_1068_">
						<polygon id="XMLID_1079_" class="st25" points="350,224.7 353,223 353,212.3 350,214 						"/>
						<polygon id="XMLID_1072_" class="st10" points="353.1,223 354.2,223 354.2,212.3 353.1,212.3 						"/>
					</g>
					<g id="XMLID_82_">
						<polygon id="XMLID_1037_" class="st25" points="350,241 353,239.3 353,228.5 350,230.3 						"/>
						<polygon id="XMLID_83_" class="st10" points="353.1,239.3 354.2,239.3 354.2,228.6 353.1,228.5 						"/>
					</g>
					<g id="XMLID_985_">
						<polygon id="XMLID_989_" class="st12" points="336.3,212.3 332.2,209.9 332.2,199.2 336.3,201.6 						"/>
						<polygon id="XMLID_986_" class="st10" points="333.3,209.3 332.2,209.9 332.2,199.2 333.3,199.9 						"/>
					</g>
					<g id="XMLID_978_">
						<polygon id="XMLID_982_" class="st12" points="336.3,228.2 332.2,225.9 332.2,215.1 336.3,217.5 						"/>
						<polygon id="XMLID_979_" class="st10" points="333.3,225.2 332.2,225.9 332.2,215.1 333.3,215.8 						"/>
					</g>
					<g id="XMLID_227_">
						<polygon id="XMLID_249_" class="st12" points="336.3,244.1 332.2,241.8 332.2,231 336.3,233.4 						"/>
						<polygon id="XMLID_243_" class="st10" points="333.3,241.1 332.2,241.8 332.2,231 333.3,231.7 						"/>
					</g>
					<g id="XMLID_235_">
						<polygon id="XMLID_1232_" class="st21" points="338.7,174.2 320.9,163.6 320.9,171.5 338.7,181.9 						"/>
						<polygon id="XMLID_1229_" class="st24" points="320.9,163.6 336.8,154.5 354.7,164.9 338.7,174.2 						"/>
						<polygon id="XMLID_1084_" class="st22" points="338.7,174.2 354.7,164.9 354.7,172.9 338.7,181.9 						"/>
					</g>
					<g id="XMLID_1086_">
						<polygon id="XMLID_1240_" class="st21" points="338.6,167.8 325.8,160.2 325.8,163.7 338.6,171.2 						"/>
						<polygon id="XMLID_1234_" class="st24" points="325.8,160.2 337.4,153.5 350.3,161 338.6,167.8 						"/>
						<polygon id="XMLID_1230_" class="st22" points="338.6,167.8 350.3,161 350.3,164.6 338.6,171.2 						"/>
					</g>
					<g id="XMLID_981_">
						<g id="XMLID_1231_">
							<g>
								<g id="XMLID_518_">
									<polygon class="st21" points="328,159.8 338.6,135.3 348.1,160.5 338.6,166.1 									"/>
								</g>
							</g>
						</g>
						<polygon id="XMLID_250_" class="st22" points="338.6,135.3 338.6,166.1 348.1,160.5 						"/>
					</g>
				</g>
			</g>
			<g id="XMLID_15_">
				<path id="XMLID_29_" class="st18" d="M345.6,102.4h-13.9c-1.8,0-3.2,1.4-3.2,3.2v13.9c0,1.8,1.4,3.2,3.2,3.2h5.7l0.8,1.2v7.7
					c0,0.2,0.2,0.4,0.4,0.4s0.4-0.2,0.4-0.4v-7.7l0.9-1.2h5.7c1.8,0,3.2-1.4,3.2-3.2v-13.9C348.8,103.9,347.4,102.4,345.6,102.4z"/>
				<g id="XMLID_17_">
					<g>
						<g id="XMLID_620_">
							<g id="XMLID_626_">
								<g id="XMLID_627_">
									<path id="XMLID_629_" class="st3" d="M338.6,111.1c1.3,0,2.3-1,2.3-2.3s-1-2.3-2.3-2.3s-2.3,1-2.3,2.3
										S337.4,111.1,338.6,111.1"/>
								</g>
							</g>
							<g id="XMLID_622_">
								<g id="XMLID_624_">
									<path id="XMLID_625_" class="st3" d="M339.6,111.3h-2c-1.6,0-3,1.3-3,3v2.4l0,0l0.2,0.1c1.6,0.5,2.9,0.7,4,0.7
										c2.2,0,3.4-0.6,3.5-0.7l0.2-0.1l0,0v-2.4C342.6,112.6,341.3,111.3,339.6,111.3"/>
								</g>
							</g>
						</g>
					</g>
				</g>
			</g>
		</g>
	</g>
	<g id="glass">
		
			<linearGradient id="XMLID_2_" gradientUnits="userSpaceOnUse" x1="462.4571" y1="197.0625" x2="301.983" y2="479.7248" gradientTransform="matrix(1 0 0 -1 0 480)">
			<stop  offset="0" style="stop-color:#57F7E0"/>
			<stop  offset="7.776767e-02" style="stop-color:#57F7E0;stop-opacity:0.9222"/>
			<stop  offset="1" style="stop-color:#57F7E0;stop-opacity:0"/>
		</linearGradient>
		<path id="XMLID_2115_" class="st26" d="M274.4-74.7c-3.8,2.4-8.3,3.3-13.2,3.1c-0.1,0-0.1,0-0.2,0c0.1,0,0.1,0,0.2,0v465.9
			c2.9,0,5.9-0.7,8.8-2.1l187.1-108c3.5-1.9,5.2-3.6,5.2-6v-461.4L274.4-74.7z"/>
		
			<linearGradient id="XMLID_3_" gradientUnits="userSpaceOnUse" x1="60.1911" y1="195.7749" x2="188.8959" y2="424.6737" gradientTransform="matrix(1 0 0 -1 0 480)">
			<stop  offset="0" style="stop-color:#57F7E0"/>
			<stop  offset="7.776767e-02" style="stop-color:#57F7E0;stop-opacity:0.9222"/>
			<stop  offset="1" style="stop-color:#57F7E0;stop-opacity:0"/>
		</linearGradient>
		<path id="XMLID_2082_" class="st27" d="M261-71.6c-1.1,0-2.2,0-3.3-0.1c-0.1,0-0.1,0-0.2,0c-1.1-0.1-2.1-0.3-3.2-0.5
			c-0.7-0.2-1.3-0.4-2-0.6c-0.4-0.1-0.8-0.2-1.2-0.4c-1-0.4-2.1-0.9-3-1.4l-188-108.5v461.4c0.1,2.2,1.4,3.8,3.6,5.1l188.7,108.9
			c2.8,1.4,5.7,2,8.5,2.1c0.1,0,0.2,0,0.2,0v-466C261.1-71.6,261.1-71.6,261-71.6z"/>
	</g>
</g>
</svg>
