<?xml version="1.0" encoding="utf-8"?>
<!-- Generator: Adobe Illustrator 23.0.0, SVG Export Plug-In . SVG Version: 6.00 Build 0)  -->
<svg version="1.1" id="Layer_1" xmlns="http://www.w3.org/2000/svg" xmlns:xlink="http://www.w3.org/1999/xlink" x="0px" y="0px"
	 viewBox="0 0 522.8 477.3" style="enable-background:new 0 0 522.8 477.3;" xml:space="preserve">
<style type="text/css">
	.st0{fill:#DCEEFF;}
	.st1{fill:#A5CBFA;}
	.st2{fill:#C8E2FF;}
	.st3{fill:#FFFFFF;}
	.st4{fill:#344593;}
	.st5{fill:#1E3779;}
	.st6{fill:#031F60;}
	.st7{opacity:0.4;fill:#06033E;}
	.st8{fill:#121A46;}
	.st9{fill:url(#SVGID_1_);}
	.st10{fill:#E2B1A6;}
	.st11{fill:url(#SVGID_2_);}
	.st12{fill:url(#SVGID_3_);}
	.st13{fill:#F0F6FF;}
	.st14{fill:#C4CCD6;}
	.st15{fill:url(#SVGID_4_);}
	.st16{opacity:0.6;fill:#020230;}
	.st17{fill:#FCD1C5;}
	.st18{fill:url(#SVGID_5_);}
	.st19{opacity:0.5;fill:#380031;}
	.st20{fill:url(#SVGID_6_);}
	.st21{fill:#1E262D;}
	.st22{opacity:0.3;fill:url(#XMLID_3_);}
	.st23{opacity:0.5;fill:url(#XMLID_8_);}
</style>
<g id="box">
	<g id="sub-box">
		<path id="XMLID_2069_" class="st0" d="M516.2,333.5L274.4,473c-3.7,2.1-8.4,3.1-13.2,3.1c-4.8,0-9.5-1-13.1-3.1L6.3,333.5
			c-3.7-2.1-5.5-4.9-5.5-7.6c0-2.8,1.8-5.5,5.5-7.6l38.4-22.1L248,178.7c7.3-4.2,19.1-4.2,26.4,0l241.7,139.6
			C523.4,322.4,523.4,329.3,516.2,333.5z"/>
		<path id="XMLID_2060_" class="st1" d="M261.2,421.1v55c-4.8,0-9.5-1-13.1-3.1L6.3,333.5c-3.7-2.1-5.5-4.9-5.5-7.6v-47.7
			c0-2,1-4,2.9-5.7l41,23.7L261.2,421.1z"/>
		<path id="XMLID_2056_" class="st2" d="M261.2,421.1v55c4.8,0,9.5-1,13.1-3.1l241.8-139.6c3.7-2.1,5.5-4.9,5.5-7.6v-47.7
			c0-2-1-4-2.9-5.7l-41,23.7L261.2,421.1z"/>
		<path id="XMLID_2035_" class="st0" d="M516.2,285.8L274.4,425.4c-3.7,2.1-8.4,3.1-13.2,3.1c-4.8,0-9.5-1-13.2-3.1L6.3,285.8
			c-3.7-2.1-5.5-4.8-5.5-7.6c0-2,1-4,2.9-5.7c0.7-0.7,1.6-1.3,2.6-1.9L248,131.1c7.3-4.2,19.1-4.2,26.4,0l241.7,139.5
			C523.4,274.8,523.4,281.7,516.2,285.8z"/>
		<g id="XMLID_2030_">
			<path class="st3" d="M261.2,128.9c4.8,0,9.3,1.1,12.7,3l241.7,139.5c3.2,1.9,5,4.3,4.9,6.8c0,2.5-1.8,4.9-4.9,6.7L273.9,424.5
				c-3.3,1.9-7.8,3-12.7,3s-9.4-1.1-12.7-3L6.8,285c-3.2-1.8-5-4.2-5-6.7c0-1.7,0.9-3.5,2.6-5c0.7-0.7,1.5-1.3,2.4-1.7l241.7-139.5
				C251.9,130,256.4,128.9,261.2,128.9 M261.2,127.9c-4.8,0-9.6,1.1-13.2,3.2L6.3,270.6c-1,0.6-1.9,1.2-2.6,1.9
				c-1.9,1.7-2.9,3.8-2.9,5.7c0,2.8,1.8,5.5,5.5,7.6L248,425.4c3.7,2.1,8.4,3.1,13.2,3.1c4.8,0,9.5-1,13.2-3.1l241.7-139.6
				c7.3-4.2,7.3-11,0-15.2L274.4,131.1C270.8,129,266,127.9,261.2,127.9L261.2,127.9z"/>
		</g>
		<path id="XMLID_1781_" class="st4" d="M252.4,164.2L63.8,273.2c-4.9,2.8-4.9,7.4,0,10.2l188.7,108.9c4.9,2.8,12.7,2.8,17.6,0
			l188.7-108.9c4.9-2.8,4.9-7.4,0-10.2L270,164.2C265.2,161.4,257.3,161.4,252.4,164.2z"/>
		<path id="XMLID_1775_" class="st5" d="M458.7,273.2L270,164.2c-2.4-1.4-5.6-2.1-8.8-2.1v8.9l195.9,113.1l1.5-0.9
			C463.5,280.5,463.5,276,458.7,273.2z"/>
		<path id="XMLID_1772_" class="st6" d="M261.2,162.1c-3.2,0-6.4,0.7-8.8,2.1L63.8,273.2c-4.9,2.8-4.9,7.4,0,10.2l1.5,0.9
			l195.9-113.1L261.2,162.1z"/>
	</g>
	<g id="people">
		<ellipse class="st7" cx="261.5" cy="275.3" rx="57.8" ry="33.4"/>
		<g>
			<g>
				<path class="st8" d="M288.8,271c0,0,1.8,3.7,1.3,6c-0.5,2.4-6.2,10.6-7.9,15.1c-1.7,4.6-10.3,11.3-15.1,11.3c-4.8,0-9.3-2-7-7.4
					c2.3-5.4,4.3-7.4,6.2-9.8c1.9-2.5,5.7-9.5,6.2-12.4C273.1,270.9,288.8,271,288.8,271z"/>
				<path class="st8" d="M265.2,248.9c0,0,0.8,4.8,0.1,6.5c-0.7,1.7-2.2,3.3-6.5,4.5c-4.3,1.2-8.3,1.7-15.4,5.9
					c-7.1,4.2-16.8,6-19.7,1.4c-2.9-4.6,7.2-11.6,10.9-13.4c3.7-1.8,9.5-2.7,12.6-5.5c3.1-2.8,3.6-2.1,3.6-2.1L265.2,248.9z"/>
				
					<radialGradient id="SVGID_1_" cx="2057.7612" cy="108.0314" r="54.7248" gradientTransform="matrix(-1 0 0 1 2202.8484 0)" gradientUnits="userSpaceOnUse">
					<stop  offset="0" style="stop-color:#01C8EF"/>
					<stop  offset="0.1376" style="stop-color:#02C3EB"/>
					<stop  offset="0.2987" style="stop-color:#03B5DF"/>
					<stop  offset="0.4716" style="stop-color:#069DCA"/>
					<stop  offset="0.6529" style="stop-color:#097CAE"/>
					<stop  offset="0.8387" style="stop-color:#0D538A"/>
					<stop  offset="1" style="stop-color:#122865"/>
				</radialGradient>
				<path class="st9" d="M291.1,165.1c0,0-3.5,31.6-2.5,42.7c1.1,11.2,8.2,31.7,5.8,45.6c-2.4,14-5.1,19.7-5.1,19.7s-9.5,9.7-16.8,1
					c0,0,3.1-5.6,2.6-20.2c-0.2-7.4-0.4-11.7-0.4-14c-0.1-1.8-0.6-3.6-1.5-5.1c-2.3-3.8-6.9-12.2-10.3-21.8c0,0,1.6,20.5,1.5,29.7
					c0,1.4,0.1,2.9,0.4,4.3c0.2,1.2,0.4,2.7,0.1,3.9c-0.5,2.4-9,11.4-15.9,4.2c0,0-2.7-1.8-2.1-7.4c0.4-3.7-0.6-11.9-1.4-18.5
					c-0.6-5.2-2.2-10.1-4.6-14.6c-1.9-3.7-3.7-11.2-4.9-14.7c-2.3-6.9-10.8-40-10.9-47.5c-0.1-7.5,9.1-12.9,9.1-12.9
					s21.3,10.4,20.9,11.5c-0.4,1.1,26.7,12.5,26.7,12.5L291.1,165.1z"/>
				<path class="st7" d="M234.4,139.4c0,0,21.3,10.4,20.9,11.5c-0.4,1.1,26.7,12.5,26.7,12.5l9.1,1.6c0,0-3.5,31.6-2.5,42.7
					c1.1,11.2,8.2,31.7,5.8,45.6c-2.4,14-5.1,19.7-5.1,19.7s-1.6,1.6-3.9,2.9c1.3-4.1,5.4-18.5,5.3-31c-0.2-14.7-6.5-38.3-6.9-45.9
					c-0.2-4.1-3.3-7.4-7.1-7.6c-6.2-0.3-15.3-1.3-21.5-4.8c2,8.2,7.8,26.4,7.8,26.4s1.8,21.9,1.5,30.6c0,0.9,0.1,1.8,0.3,2.6
					c0.3,1.2,0.6,3.2,0.3,4.7c-0.2,0.9-1.4,2.6-3.2,4.1c-0.2-9-2-31.8-2.6-37c-0.7-5.8-6.9-29.3-6.9-29.3c-3.2-2.5-4.8-8.6-5.5-11.6
					c-2.8-5.9-3.2-11.5-8.3-11.6c-0.4,0-6.8,7.9-11,1.7c-1.3-6.6-2.2-12.2-2.2-14.7C225.1,144.8,234.4,139.4,234.4,139.4z"/>
				<path class="st10" d="M226.3,153.4l1.2,4c0,0,1.8,0.3,4.3-2.6c2.5-2.8,0.1-5.5,0.1-5.5l-4.7,1.1L226.3,153.4z"/>
				
					<radialGradient id="SVGID_2_" cx="2084.9189" cy="24.2403" r="156.8623" gradientTransform="matrix(-1 0 0 1 2202.8484 0)" gradientUnits="userSpaceOnUse">
					<stop  offset="0" style="stop-color:#01C8EF"/>
					<stop  offset="0.2078" style="stop-color:#01C5ED"/>
					<stop  offset="0.3691" style="stop-color:#03BBE5"/>
					<stop  offset="0.5146" style="stop-color:#05ABD8"/>
					<stop  offset="0.6509" style="stop-color:#0993C6"/>
					<stop  offset="0.7808" style="stop-color:#0D75AF"/>
					<stop  offset="0.9041" style="stop-color:#125192"/>
					<stop  offset="1" style="stop-color:#172F78"/>
				</radialGradient>
				<path class="st11" d="M242.8,44.3c0,0-1.3-0.1-4.3,1.5c-3,1.6-6.8,5.8-8.9,16c-2.2,10.2-11.1,36.7-11.8,41.6
					c-0.7,4.7,1,36.2,3.9,49.5c0.2,1,1.3,1.6,2.2,1.3c2.5-0.9,7.2-2.6,9.9-4.7c3.8-2.9,3.1-25.6,3.1-25.6l-2.6-29.2l4.1-23.9
					c0,0,5.9-18.9,5.1-20.1C242.6,49.6,242.8,44.3,242.8,44.3z"/>
				<linearGradient id="SVGID_3_" gradientUnits="userSpaceOnUse" x1="180.3181" y1="74.656" x2="253.503" y2="106.0306">
					<stop  offset="0" style="stop-color:#01C8EF"/>
					<stop  offset="0.4589" style="stop-color:#0C7BB3"/>
					<stop  offset="0.8239" style="stop-color:#144489"/>
					<stop  offset="1" style="stop-color:#172F78"/>
				</linearGradient>
				<path class="st12" d="M308,73.3c0,0,4.1,7.9-1.3,18.4c-5.5,10.6-18.7,32.2-18.7,32.2s4.3,30.2,3.7,37.6
					c-0.6,7.4-6.1,16.1-7.5,18.9c-1.4,2.8-12.9,9.8-26.2,3.1c-13.3-6.6-14.4-15.7-15.7-25.6c-1.3-9.8-0.9-9.3-0.9-9.3
					s-6.2,19.5-9.9,15.8c-1.6-1.6-1.7-6.3-1.3-11.4c0.9-10.7,1.2-21.4,0.8-32c0-0.4,0-0.7,0-1c0-3.4-0.6-34.4,0.3-42.7
					c0.9-8.3-0.4-21.5,4-26.9c3.6-4.5,7.7-6.2,7.7-6.2L249,44c0,0,36-3,39.2,1.6c3.1,4.6,4.2,7.6,4.2,7.6S303.3,64.6,308,73.3
					L308,73.3z"/>
				<path class="st13" d="M279.5,40.4c0,0,1.5,0.8,2.1,2.5c0.6,1.7,2.4,6.4,3.4,7.7c0,0-15.9,15.1-21.9,22.8
					c-6,7.8-7.9,14.1-7.9,14.1l-8.3-9.7l2.6-2.8l1.4-6.4l2.4-7.2l1.8-7.1l19.8-11.2L279.5,40.4z"/>
				<path class="st14" d="M263.7,60.9c0,0,3.2,2.1,4.3,5.1c0,0-3-2.2-4-2.4c0,0-2.3,2.2-2.7,3.1c-0.4,0.9,0,9,0,9l-1.1,1.7l-1.3,0.1
					c0,0-0.1-5.8-0.3-6.1c-0.2-0.3-0.4-5-0.3-5.3c0.1-0.4,4.3-4.4,4.3-4.4l1.5-1L263.7,60.9z"/>
				
					<radialGradient id="SVGID_4_" cx="1922.4918" cy="87.3382" r="150.0794" gradientTransform="matrix(-1 0 0 1 2202.8484 0)" gradientUnits="userSpaceOnUse">
					<stop  offset="0" style="stop-color:#F9636B"/>
					<stop  offset="1" style="stop-color:#B6246E"/>
				</radialGradient>
				<path class="st15" d="M255.3,59.2c0,0,2.1-0.9,3.3-0.6c1.3,0.3,4.9,2.1,5.4,2.8c0.5,0.7-0.1,1.6-2.2,3.1c-2,1.6-2.3,2.5-2.3,2.5
					s1.2,6.6,0.5,10.6c0,0-4.2,7.5-5.1,11.2c-0.9,3.6-4.7-11.7-4.7-11.7s1.3-4.9,1.9-6.2c0.6-1.2,2.9-7.9,2.3-9
					C253.9,60.7,255.3,59.2,255.3,59.2z"/>
				<path class="st16" d="M291.2,54.1l-2.7,5.7l-4.8-0.3l0.6,5c0,0-19.7,13.1-27.2,26.8l0.5,1.5c0,0,8.8-14.6,27.9-26.6l0.6-0.4
					l-1-4.8l4.2,0.8L291.2,54.1z"/>
				<path class="st17" d="M258.8,55.7c0,0,0.9,2.5,3.4,2.7c2.5,0.2,16.2-5.1,18.3-13.1c0,0-0.8-3.9-0.9-4.5c0,0,1-0.8,1.1-2
					c0.2-1.2,1.3-3.9,1.6-4.7c0.3-0.8,1-2.5,0.6-3.7c0,0,4.1-22.4-8.2-26.2c-12.2-3.8-21.2-0.1-25.2,12.6c0,0-1,3.4-1.8,5.9
					c-0.5,1.6-0.5,3.3-0.1,4.9c0.3,0.9,0.5,1.9,0.4,2.5c-0.1,1.6-0.9,5.1-0.2,9.4c0,0-1,2.4,0.6,3.3c1.6,0.9,1.3,7.9,1.3,7.9
					l4.6,4.7C254.3,55.2,255.3,56.2,258.8,55.7z"/>
				<radialGradient id="SVGID_5_" cx="247.7605" cy="3.8706" r="46.8915" gradientUnits="userSpaceOnUse">
					<stop  offset="0" style="stop-color:#F9636B"/>
					<stop  offset="1" style="stop-color:#B6246E"/>
				</radialGradient>
				<path class="st18" d="M283,31.4c0,0,8.8-19.9-5.4-28c-11.1-6.3-24.9-3.3-28.9,11.1c0,0-1,3.7,4,5.5c5,1.8,11.4,3.7,14.3,3.7
					c2.9-0.1,4.4,1.6,4.4,5.4c0,2.2,0.3,3,0.5,3.4c0.2,0.3,0.3,0.8,0.3,1.2l0,0.7c0,0.5,0.3,1,0.8,1.1c0.7,0.2,1.5,0,1.5-0.1
					c0,0,0,0,0,0c0.3-2.4,1.6-4.5,3.6-5.8C280.2,28.1,282.7,27.4,283,31.4z"/>
				<path class="st19" d="M252.2,70.9c0.6-1.2,2.9-7.9,2.3-9c-0.6-1.2,0.7-2.7,0.7-2.7s2.1-0.9,3.4-0.6c0.1,0,0.3,0.1,0.5,0.1
					c0,0,0,0.1,0,0.1s-1.7,3-2.1,3.8c-0.4,0.7-2,8.5-2.8,10.3c-0.9,1.7-2.5,7.8-2.5,7.8l-0.5-0.3c-0.5-1.9-0.9-3.3-0.9-3.3
					S251.6,72.1,252.2,70.9z"/>
				<path class="st10" d="M253.5,50.9c0,0,2.2,3.2,2.3,4.8c-1.1-0.2-1.5-0.6-1.5-0.6l-1.8-1.9C253,52.1,253.5,50.9,253.5,50.9z"/>
				<path class="st17" d="M239.1,80.7c0,0-2.5-3.8-2.4-7c0.1-3.2,1-7,1-7s-1.8,0.1-1.7-2.6c0.1-2.7,0.9-5.2,1.8-5.9
					c0.9-0.7,1.9-0.5,1.9-0.5s0.7-2.2,2.6-1.9c0,0,0.1-1.4,1.7-2.5c1.6-1.1,2.7,0.6,2.7,0.6s0.7-2.3,1.3-2.8
					c0.7-0.4,1.8-0.5,1.8-0.5s3.2-0.4,3.7,0.4c0.6,0.8,2.1,9.9,2,10.4c-0.1,0.5-0.9,5.1-1.3,6.6c-0.5,1.5-4.1,5.3-4.7,7.1
					c-0.6,1.8-6.3,7.6-6.4,7.7C243,82.7,239.1,80.7,239.1,80.7z"/>
				<path class="st16" d="M241.3,148.7c0,0,0.2-31.5,5.4-45.5l-2.7,4.5c0,0-4.4,18.5-3.4,43.2L241.3,148.7z"/>
				<path class="st16" d="M242.1,99.2c0,0,23.5,21.1,23.6,21.4s34.3-21.2,34.3-21.2l1.1,2.4c-6,10.4-13.1,22.1-13.1,22.1
					s0.5,3.7,1.2,8.7c0,0-16.9,18.1-27.5,15.8c-9.1-2-18.8-32.2-21.3-40.3c-0.4-1.3-0.4-2.7,0.1-4L242.1,99.2z"/>
				<path class="st10" d="M237.6,77.5c3.4-2,9.5-2.6,9.5-2.6l-7.1,6.2c-0.5-0.3-1-0.5-1-0.5s-0.9-1.3-1.5-3.1
					C237.6,77.6,237.6,77.6,237.6,77.5z"/>
				
					<radialGradient id="SVGID_6_" cx="1573.4562" cy="167.2224" r="298.5027" gradientTransform="matrix(-1 0 0 1 2202.8484 0)" gradientUnits="userSpaceOnUse">
					<stop  offset="0" style="stop-color:#01C8EF"/>
					<stop  offset="0.1376" style="stop-color:#02C3EB"/>
					<stop  offset="0.2987" style="stop-color:#03B5DF"/>
					<stop  offset="0.4716" style="stop-color:#069DCA"/>
					<stop  offset="0.6529" style="stop-color:#097CAE"/>
					<stop  offset="0.8387" style="stop-color:#0D538A"/>
					<stop  offset="1" style="stop-color:#122865"/>
				</radialGradient>
				<path class="st20" d="M281.1,86.2c3.6-4.5,8.5-8.1,13.3-11.2c4.3-2.8,9-4.9,11.5-3.1c5.5,3.8,4.4,10.8,1.8,17.9
					c-2.6,7.1-26.3,46.8-42.9,46c0,0-12-12.4-17.5-22.1c-4.6-8.1-12.2-22.2-14.4-26.4c-0.4-0.7-0.2-1.6,0.4-2.2
					c3.2-2.9,13.2-11.7,16.1-10.2c0,0,6.8,17.1,13.5,25.5l5.3,5.1c0,0,4.4-8.1,7.9-12.8C277.4,90.9,279.3,88.5,281.1,86.2z"/>
				<path class="st10" d="M262.2,58.3c-2.5-0.2-3.4-2.7-3.4-2.7s14.1-5.6,15.6-14.2c0,0,0.1,9.1-3.6,13.8
					C267,57.3,263.4,58.4,262.2,58.3z"/>
				<g>
					<path class="st21" d="M263,212.9c0,0,0,0.1,0,0.2C263,213,263,212.9,263,212.9z"/>
					<path class="st7" d="M275.3,276.4c-0.9-0.6-1.9-1.4-2.8-2.4c0,0,3.1-5.6,2.6-20.2c-0.2-7.4-0.4-11.6-0.4-14
						c-0.1-1.8-0.6-3.6-1.5-5.1c-2.1-3.6-6.4-11.4-9.7-20.4c0-0.1,0-0.1,0-0.2c2.4,4.2,13.2,17.1,14.6,27
						C279.5,250.7,276.4,270.3,275.3,276.4z"/>
					<path class="st21" d="M263.5,214.1c0,0,0-0.1-0.1-0.1c-0.1-0.4-0.3-0.7-0.4-1.1C263.1,212.6,263.2,213.1,263.5,214.1z"/>
				</g>
				<path class="st16" d="M234.8,83.6c0,0,21.5,46.5,31.3,48.4c9.8,1.8,36.2-32.4,36.2-32.4s0,0.1,0,0.1
					c-8.5,14.1-25.1,36.6-37.6,36c0,0-12-12.4-17.5-22.1c-4.6-8.1-12.2-22.2-14.4-26.4c-0.4-0.7-0.2-1.6,0.4-2.2
					C233.6,84.6,234.2,84.2,234.8,83.6z"/>
				<path class="st16" d="M268.2,105.4c0,0,2.7,4.3,3.7,7.1l-3.2-8L268.2,105.4z"/>
			</g>
		</g>
		<path class="st19" d="M283,31.4c0,0,2.6-5.8,2.7-12.4c-0.2,1.1-0.6,2.3-1.7,3c-2.4,1.6-12.5,8.5-12.5,8.5c0.1,1.1,0.3,1.7,0.5,1.9
			c0.2,0.3,0.3,0.8,0.3,1.2l0,0.7c0,0.5,0.3,1,0.8,1.1c0.7,0.2,1.5,0,1.5-0.1c0,0,0,0,0,0c0.3-2.4,1.6-4.5,3.6-5.8
			C280.2,28.1,282.7,27.4,283,31.4z"/>
	</g>
	<g id="glass">
		<linearGradient id="XMLID_3_" gradientUnits="userSpaceOnUse" x1="462.4379" y1="282.9623" x2="301.9638" y2="0.3">
			<stop  offset="0" style="stop-color:#57F7E0"/>
			<stop  offset="7.776767e-02" style="stop-color:#57F7E0;stop-opacity:0.9222"/>
			<stop  offset="1" style="stop-color:#57F7E0;stop-opacity:0"/>
		</linearGradient>
		<path id="XMLID_2115_" class="st22" d="M274.4-74.7c-3.8,2.4-8.3,3.3-13.2,3.1c-0.1,0-0.1,0-0.2,0c0.1,0,0.1,0,0.2,0v465.9
			c2.9,0,5.9-0.7,8.8-2.1l187.1-108c3.5-1.9,5.2-3.6,5.2-6v-461.4L274.4-74.7z"/>
		<linearGradient id="XMLID_8_" gradientUnits="userSpaceOnUse" x1="60.2193" y1="284.1695" x2="188.9241" y2="55.2707">
			<stop  offset="0" style="stop-color:#57F7E0"/>
			<stop  offset="7.776767e-02" style="stop-color:#57F7E0;stop-opacity:0.9222"/>
			<stop  offset="1" style="stop-color:#57F7E0;stop-opacity:0"/>
		</linearGradient>
		<path id="XMLID_2082_" class="st23" d="M261-71.6c-1.1,0-2.2,0-3.3-0.1c-0.1,0-0.1,0-0.2,0c-1.1-0.1-2.1-0.3-3.2-0.5
			c-0.7-0.2-1.3-0.4-2-0.6c-0.4-0.1-0.8-0.2-1.2-0.4c-1-0.4-2.1-0.9-3-1.4l-188-108.5v461.4c0.1,2.2,1.4,3.8,3.6,5.1l188.7,108.9
			c2.8,1.4,5.7,2,8.5,2.1c0.1,0,0.2,0,0.2,0V-71.6C261.1-71.6,261.1-71.6,261-71.6z"/>
	</g>
</g>
</svg>
